<svg xmlns="http://www.w3.org/2000/svg" xmlns:v="https://svgstorm.com"
viewBox = "0 0 1320 1000"
width="1320"
height="1000">
<g fill="None" fill-opacity="0.0" stroke="#F7F9FD" stroke-opacity="1.00" stroke-width="0.3"><path d="
M 0.00 1000.00 
L 1320.00 1000.00
L 1320.00 0.00
L 0.00 0.00
L 0.00 1000.00
M 339.00 549.00 
C 338.71 545.96 339.34 537.10 338.00 534.00
C 335.78 530.53 329.04 529.79 326.00 527.00
C 319.36 546.56 321.17 569.99 303.00 584.00
C 281.98 572.67 284.80 546.44 278.00 527.00
C 260.76 529.75 265.98 548.14 264.00 561.00
C 247.39 557.90 230.56 555.42 213.00 556.00
C 215.43 541.29 232.81 538.42 243.00 534.00
C 240.07 532.72 237.70 530.64 235.00 529.00
C 241.64 527.59 249.82 528.27 255.70 523.70 C 261.57 519.13 263.67 508.36 253.00 511.00
C 246.85 501.88 243.55 493.37 238.61 484.25 C 233.66 475.13 228.03 464.61 227.02 452.98 C 226.01 441.34 225.39 424.19 229.33 413.33 C 233.26 402.46 235.99 393.35 243.75 384.75 C 251.52 376.15 259.21 370.72 269.23 366.23 C 279.25 361.74 295.92 359.49 306.67 361.33 C 317.42 363.17 328.98 367.21 333.92 377.08 C 338.86 386.96 350.37 389.06 355.59 398.75 C 360.81 408.44 364.74 417.31 364.00 430.00 C 363.26 442.69 364.22 457.92 366.79 469.23 C 369.35 480.54 370.73 496.89 366.68 507.68 C 362.63 518.46 354.80 524.41 347.00 532.00
C 363.08 537.12 386.41 535.24 392.00 556.00
C 373.77 555.44 356.24 557.56 339.00 561.00
C 339.00 557.00 339.00 553.00 339.00 549.00
M 1033.00 416.00 
C 1035.03 418.96 1034.38 426.03 1033.00 429.00
C 1029.15 426.83 1022.51 428.21 1019.31 430.31 C 1016.10 432.40 1010.90 435.66 1012.02 440.02 C 1013.15 444.39 1009.47 454.39 1012.00 458.00
C 1017.56 460.20 1029.79 454.62 1034.00 459.00
C 1034.25 461.85 1035.25 471.43 1033.00 473.00
C 1028.30 476.29 1016.70 469.71 1012.00 473.00
C 1012.16 480.18 1011.78 487.87 1012.00 495.00 C 1012.22 502.13 1011.58 510.07 1012.00 517.00 C 1012.42 523.93 1011.11 532.52 1012.00 539.00 C 1012.89 545.48 995.68 544.41 994.00 542.00
C 991.32 538.18 995.21 529.85 994.00 525.00 C 992.79 520.15 994.56 513.34 994.00 508.00 C 993.44 502.66 994.28 496.62 994.00 491.00 C 993.72 485.38 994.21 478.72 994.00 473.00
C 990.67 473.00 987.33 473.00 984.00 473.00
C 978.09 468.86 984.63 451.29 994.00 458.00
C 997.62 452.83 991.61 443.61 994.33 437.33 C 997.05 431.05 996.29 428.65 1001.30 422.30 C 1006.32 415.95 1026.95 407.18 1033.00 416.00
M 553.00 430.00 
C 549.18 433.82 539.50 429.77 534.00 431.00 C 528.50 432.23 519.79 430.08 514.00 431.00
C 511.13 435.10 515.27 443.74 514.00 449.00 C 512.72 454.26 514.70 462.32 514.00 468.00 C 513.30 473.68 514.53 480.19 514.00 486.00 C 513.47 491.81 514.71 499.31 514.00 505.00 C 513.29 510.69 515.43 517.79 514.00 523.00 C 512.57 528.21 516.93 537.81 514.00 542.00
C 512.54 544.08 496.41 544.01 495.00 542.00
C 492.13 537.90 496.28 529.26 495.00 524.00 C 493.73 518.74 495.70 510.68 495.00 505.00 C 494.30 499.32 495.53 492.81 495.00 487.00 C 494.47 481.19 495.71 473.69 495.00 468.00 C 494.29 462.31 496.43 455.21 495.00 450.00 C 493.57 444.79 497.93 435.19 495.00 431.00
C 489.31 430.75 481.47 431.34 476.00 431.00 C 470.53 430.66 461.69 431.64 457.00 431.00 C 452.31 430.36 454.73 415.89 456.00 415.00
C 460.17 412.08 469.66 416.20 475.00 415.00 C 480.34 413.80 488.16 415.27 494.00 415.00 C 499.84 414.73 508.15 414.65 514.00 415.00 C 519.85 415.35 527.61 413.66 533.00 415.00 C 538.39 416.34 548.70 411.99 553.00 415.00
C 555.18 416.52 554.67 428.33 553.00 430.00
M 859.00 469.00 
C 867.50 465.14 872.04 456.19 883.01 457.01 C 893.98 457.83 902.65 457.69 909.75 466.25 C 916.85 474.80 918.60 483.43 919.00 494.00
C 919.27 501.08 918.55 509.00 919.00 516.00 C 919.45 523.00 918.12 532.40 919.00 539.00 C 919.88 545.60 902.64 544.35 901.00 542.00
C 897.97 537.67 902.41 527.39 901.00 522.00 C 899.59 516.61 901.73 507.60 901.00 502.00 C 900.27 496.41 901.08 489.99 899.69 485.31 C 898.30 480.62 897.70 476.92 892.77 474.23 C 887.84 471.54 882.05 471.01 877.00 472.00 C 871.95 472.99 866.66 474.31 863.75 478.75 C 860.84 483.20 858.72 487.17 858.00 492.00
C 857.69 498.37 861.01 510.18 859.00 517.00 C 856.99 523.82 862.94 538.25 858.00 543.00
C 852.64 543.48 846.36 543.48 841.00 543.00
C 836.96 539.13 841.05 529.00 840.00 523.00 C 838.95 517.00 840.39 507.58 840.00 501.00 C 839.61 494.42 839.98 485.65 840.00 479.00 C 840.02 472.35 839.51 464.35 840.00 458.00 C 840.49 451.65 838.78 441.58 840.00 436.00 C 841.22 430.42 836.78 417.96 841.00 415.00
C 842.28 414.10 856.72 414.10 858.00 415.00
C 861.49 417.44 858.31 427.34 859.00 432.00 C 859.69 436.66 859.17 444.65 859.00 450.00 C 858.83 455.35 860.02 463.57 859.00 469.00
M 955.00 418.00 
C 966.71 421.12 961.41 440.91 949.00 437.00 C 936.59 433.09 943.70 414.99 955.00 418.00
M 643.00 507.00 
C 639.96 511.34 627.69 506.68 622.00 508.00 C 616.31 509.32 606.62 507.34 600.00 508.00 C 593.38 508.66 583.88 507.50 577.00 508.00
C 573.85 512.69 581.72 522.30 586.08 524.92 C 590.44 527.53 601.96 532.08 608.00 530.00 C 614.04 527.92 620.18 524.28 624.00 519.00
C 628.43 521.78 631.05 527.19 636.00 529.00
C 616.27 558.46 559.39 544.18 559.00 507.00
C 558.22 502.67 558.24 498.27 559.00 494.00
C 559.60 485.19 559.38 486.77 563.78 477.78 C 568.17 468.78 579.21 460.48 588.69 458.69 C 598.18 456.91 600.26 456.80 608.07 457.93 C 615.88 459.06 618.51 458.96 623.70 462.30 C 628.88 465.64 632.15 468.37 634.92 473.08 C 637.68 477.80 641.33 483.68 641.33 488.67 C 641.33 493.67 646.35 502.22 643.00 507.00
M 730.00 542.00 
C 727.26 545.91 716.08 541.14 712.00 543.00
C 711.44 540.48 713.19 536.70 711.00 535.00
C 710.04 536.57 708.68 538.25 707.00 539.00
C 690.86 549.74 663.96 544.26 658.01 524.99 C 652.06 505.72 666.52 490.72 684.00 490.00
C 692.31 488.70 703.77 488.06 712.00 490.00
C 717.08 486.44 709.96 471.36 702.78 472.22 C 695.60 473.09 685.46 470.16 680.25 478.25 C 675.04 486.34 669.15 475.00 664.00 472.00
C 677.75 457.57 702.91 448.71 720.25 464.75 C 737.59 480.80 727.34 519.15 730.00 542.00
M 821.00 469.00 
C 819.89 474.52 812.62 475.93 811.00 481.00
C 792.56 461.56 764.68 474.90 763.22 498.22 C 761.76 521.54 790.74 543.70 809.00 521.00
C 814.30 522.44 816.65 529.40 822.00 531.00
C 794.86 561.38 745.69 537.08 746.00 500.00 C 746.31 462.92 792.40 443.51 821.00 469.00
M 961.00 459.00 
C 964.01 463.30 959.97 473.39 961.00 479.00 C 962.03 484.61 961.06 494.03 961.00 500.00 C 960.94 505.97 962.19 515.34 961.00 521.00 C 959.81 526.66 964.11 537.56 961.00 542.00
C 958.26 545.91 947.08 541.14 943.00 543.00
C 943.00 515.00 943.00 487.00 943.00 459.00
C 944.81 457.13 959.46 456.80 961.00 459.00
M 1059.00 460.00 
C 1065.36 467.37 1065.71 481.50 1070.39 488.75 C 1075.08 496.01 1076.32 505.40 1082.00 513.00
C 1088.46 494.40 1096.28 479.09 1104.00 459.00
C 1106.73 456.71 1120.62 457.70 1121.00 459.00
C 1122.98 465.75 1113.66 475.35 1112.61 481.75 C 1111.55 488.15 1106.39 493.73 1104.80 500.25 C 1103.22 506.76 1098.31 512.90 1095.69 520.69 C 1093.08 528.49 1089.05 536.16 1086.08 544.08 C 1083.11 552.00 1078.91 559.34 1075.08 567.08 C 1071.25 574.81 1066.97 580.53 1059.30 585.30 C 1051.64 590.07 1042.05 587.70 1034.00 584.00
C 1034.35 578.33 1036.71 573.12 1039.00 568.00
C 1057.43 578.28 1062.96 555.25 1068.93 541.93 C 1074.90 528.61 1061.83 512.26 1057.23 499.77 C 1052.63 487.28 1046.68 474.34 1041.00 460.00
C 1041.11 457.03 1055.84 456.34 1059.00 460.00
M 406.00 625.00 
C 406.87 628.23 392.37 627.00 389.00 627.00
C 384.33 627.00 379.67 627.00 375.00 627.00
C 357.03 627.00 339.64 628.29 322.78 634.78 C 305.92 641.26 289.80 637.13 272.98 632.02 C 256.15 626.92 235.05 627.00 217.00 627.00
C 210.84 627.00 203.34 627.83 198.00 626.00
C 203.21 619.50 208.41 613.41 214.00 609.00
C 213.12 600.07 210.12 593.44 210.00 584.00
C 238.35 584.63 263.35 590.89 286.00 595.00
C 266.43 583.17 235.71 582.13 206.00 583.00
C 208.99 576.19 213.47 572.20 216.00 566.00
C 205.77 567.44 212.55 556.60 220.00 559.00 C 227.45 561.40 235.81 558.68 243.00 560.00 C 250.19 561.32 254.50 561.80 260.67 563.33 C 266.84 564.86 269.54 566.67 275.08 568.92 C 280.62 571.17 285.33 573.37 290.23 576.77 C 295.13 580.17 298.87 584.58 301.00 590.00
C 309.91 578.77 323.56 568.70 338.74 564.74 C 353.93 560.79 374.41 558.55 393.00 559.00
C 393.06 562.23 394.05 567.43 389.00 566.00
C 390.65 572.22 396.47 576.70 398.00 583.00
C 370.41 583.43 339.90 580.51 319.00 596.00
C 342.07 588.91 366.03 586.00 394.00 584.00
C 393.38 593.13 392.37 600.40 390.00 609.00
C 397.48 613.37 399.00 620.11 406.00 625.00 Z"/>
</g>
<g fill="None" fill-opacity="0.0" stroke="#EA5898" stroke-opacity="1.00" stroke-width="0.3"><path d="
M 338.00 534.00 
C 340.22 537.47 339.00 544.62 339.00 549.00
C 339.00 553.00 339.00 557.00 339.00 561.00
C 356.24 557.56 373.77 555.44 392.00 556.00
C 386.41 535.24 363.08 537.12 347.00 532.00
C 354.80 524.41 362.63 518.46 366.68 507.68 C 370.73 496.89 369.35 480.54 366.79 469.23 C 364.22 457.92 363.26 442.69 364.00 430.00 C 364.74 417.31 360.81 408.44 355.59 398.75 C 350.37 389.06 338.86 386.96 333.92 377.08 C 328.98 367.21 317.42 363.17 306.67 361.33 C 295.92 359.49 279.25 361.74 269.23 366.23 C 259.21 370.72 251.52 376.15 243.75 384.75 C 235.99 393.35 233.26 402.46 229.33 413.33 C 225.39 424.19 226.01 441.34 227.02 452.98 C 228.03 464.61 233.66 475.13 238.61 484.25 C 243.55 493.37 246.85 501.88 253.00 511.00
C 263.67 508.36 261.57 519.13 255.70 523.70 C 249.82 528.27 241.64 527.59 235.00 529.00
C 237.70 530.64 240.07 532.72 243.00 534.00
C 232.81 538.42 215.43 541.29 213.00 556.00
C 230.56 555.42 247.39 557.90 264.00 561.00
C 265.98 548.14 260.76 529.75 278.00 527.00
C 284.80 546.44 281.98 572.67 303.00 584.00
C 321.17 569.99 319.36 546.56 326.00 527.00
C 329.04 529.79 335.78 530.53 338.00 534.00
M 311.00 382.00 
C 309.04 384.30 305.45 382.39 303.00 382.00
C 305.04 379.35 308.36 382.42 311.00 382.00
M 350.00 453.00 
C 349.33 456.83 339.82 454.53 334.00 455.00 C 328.18 455.47 319.12 454.65 313.00 455.00
C 313.26 453.62 315.05 454.22 316.00 454.00
C 322.56 448.92 331.58 448.89 339.00 453.00
C 334.02 446.23 312.63 445.19 312.00 455.00
C 308.07 454.16 304.67 455.36 306.00 460.00
C 302.17 460.17 295.44 461.05 297.00 455.00
C 284.50 454.33 270.68 456.33 259.00 454.00
C 270.25 451.83 281.00 450.05 292.00 454.00
C 291.56 450.00 288.40 449.67 285.00 449.00
C 298.92 443.34 314.18 438.01 323.92 424.92 C 333.65 411.83 330.07 387.69 312.00 384.00
C 321.79 383.00 330.39 389.29 334.78 399.22 C 339.16 409.16 329.06 421.77 332.92 431.08 C 336.78 440.38 353.18 441.16 350.00 453.00
M 347.00 480.00 
C 343.95 503.02 323.06 519.58 300.00 519.00 C 276.94 518.42 258.67 500.64 256.00 480.00
C 247.18 481.62 241.14 472.47 242.00 465.00
C 246.27 467.88 247.07 459.85 251.00 459.00
C 251.09 472.40 260.52 488.40 274.02 488.98 C 287.52 489.55 297.82 477.87 297.00 463.00
C 310.18 460.75 304.78 478.60 315.23 483.77 C 325.68 488.94 331.78 490.07 340.30 484.29 C 348.83 478.50 351.35 466.32 351.00 456.00
C 366.28 457.13 360.85 482.09 347.00 480.00
M 292.00 460.00 
C 295.78 465.41 289.52 477.45 284.75 480.75 C 279.98 484.05 271.70 485.35 266.31 481.69 C 260.91 478.04 255.85 468.72 258.00 462.00
C 259.47 457.42 269.76 458.40 274.00 459.00 C 278.24 459.60 289.67 456.68 292.00 460.00
M 344.00 460.00 
C 348.90 464.95 342.34 477.30 337.75 480.75 C 333.16 484.21 323.86 484.70 318.77 481.23 C 313.68 477.76 307.03 465.68 311.00 460.00
C 312.92 457.26 323.38 458.99 327.00 459.00 C 330.62 459.01 341.46 457.44 344.00 460.00
M 320.00 532.00 
C 318.50 546.04 312.14 560.46 295.78 555.22 C 279.42 549.98 285.46 533.12 284.00 520.00
C 294.48 524.22 307.90 524.11 318.00 520.00
C 321.11 520.23 320.28 529.33 320.00 532.00 Z"/>
</g>
<g fill="None" fill-opacity="0.0" stroke="#E2CAE4" stroke-opacity="1.00" stroke-width="0.3"><path d="
M 311.00 382.00 
C 308.36 382.42 305.04 379.35 303.00 382.00
C 305.45 382.39 309.04 384.30 311.00 382.00 Z"/>
</g>
<g fill="None" fill-opacity="0.0" stroke="#F7F9FD" stroke-opacity="1.00" stroke-width="0.3"><path d="
M 316.00 454.00 
C 321.06 453.36 328.17 455.00 333.00 454.00 C 337.83 453.00 346.65 456.39 350.00 453.00
C 353.18 441.16 336.78 440.38 332.92 431.08 C 329.06 421.77 339.16 409.16 334.78 399.22 C 330.39 389.29 321.79 383.00 312.00 384.00
C 330.07 387.69 333.65 411.83 323.92 424.92 C 314.18 438.01 298.92 443.34 285.00 449.00
C 288.40 449.67 291.56 450.00 292.00 454.00
C 281.00 450.05 270.25 451.83 259.00 454.00
C 270.68 456.33 284.50 454.33 297.00 455.00
C 295.44 461.05 302.17 460.17 306.00 460.00
C 304.67 455.36 308.07 454.16 312.00 455.00
C 312.63 445.19 334.02 446.23 339.00 453.00
C 331.58 448.89 322.56 448.92 316.00 454.00 Z"/>
</g>
<g fill="None" fill-opacity="0.0" stroke="#511181" stroke-opacity="1.00" stroke-width="0.3"><path d="
M 994.00 458.00 
C 992.20 460.57 986.70 458.14 984.00 459.00
C 984.00 463.67 984.00 468.33 984.00 473.00
C 987.33 473.00 990.67 473.00 994.00 473.00
C 994.21 478.72 993.72 485.38 994.00 491.00 C 994.28 496.62 993.44 502.66 994.00 508.00 C 994.56 513.34 992.79 520.15 994.00 525.00 C 995.21 529.85 991.32 538.18 994.00 542.00
C 999.67 542.00 1005.33 542.00 1011.00 542.00
C 1011.67 519.16 1009.67 495.01 1012.00 473.00
C 1016.70 469.71 1028.30 476.29 1033.00 473.00
C 1033.31 468.36 1032.58 463.63 1033.00 459.00
C 1029.09 459.00 1014.12 461.02 1012.00 458.00
C 1009.47 454.39 1013.15 444.39 1012.02 440.02 C 1010.90 435.66 1016.10 432.40 1019.31 430.31 C 1022.51 428.21 1029.15 426.83 1033.00 429.00
C 1031.75 425.25 1034.66 419.56 1033.00 416.00
C 1026.95 407.18 1006.32 415.95 1001.30 422.30 C 996.29 428.65 997.05 431.05 994.33 437.33 C 991.61 443.61 997.62 452.83 994.00 458.00 Z"/>
</g>
<g fill="None" fill-opacity="0.0" stroke="#885CAA" stroke-opacity="1.00" stroke-width="0.3"><path d="
M 495.00 431.00 
C 492.20 427.00 480.97 431.33 476.00 430.00 C 471.03 428.67 461.39 430.99 456.00 430.00
C 456.00 425.00 456.00 420.00 456.00 415.00
C 454.73 415.89 452.31 430.36 457.00 431.00 C 461.69 431.64 470.53 430.66 476.00 431.00 C 481.47 431.34 489.31 430.75 495.00 431.00 Z"/>
</g>
<g fill="None" fill-opacity="0.0" stroke="#511181" stroke-opacity="1.00" stroke-width="0.3"><path d="
M 495.00 431.00 
C 497.93 435.19 493.57 444.79 495.00 450.00 C 496.43 455.21 494.29 462.31 495.00 468.00 C 495.71 473.69 494.47 481.19 495.00 487.00 C 495.53 492.81 494.30 499.32 495.00 505.00 C 495.70 510.68 493.73 518.74 495.00 524.00 C 496.28 529.26 492.13 537.90 495.00 542.00
C 501.33 542.00 507.67 542.00 514.00 542.00
C 516.93 537.81 512.57 528.21 514.00 523.00 C 515.43 517.79 513.29 510.69 514.00 505.00 C 514.71 499.31 513.47 491.81 514.00 486.00 C 514.53 480.19 513.30 473.68 514.00 468.00 C 514.70 462.32 512.72 454.26 514.00 449.00 C 515.27 443.74 511.13 435.10 514.00 431.00
C 516.80 427.00 528.03 431.33 533.00 430.00 C 537.97 428.67 547.61 431.00 553.00 430.00
C 553.00 425.00 553.00 420.00 553.00 415.00
C 548.70 411.99 538.39 416.34 533.00 415.00 C 527.61 413.66 519.85 415.35 514.00 415.00 C 508.15 414.65 499.84 414.73 494.00 415.00 C 488.16 415.27 480.34 413.80 475.00 415.00 C 469.66 416.20 460.17 412.08 456.00 415.00
C 456.00 420.00 456.00 425.00 456.00 430.00
C 461.39 430.99 471.03 428.67 476.00 430.00 C 480.97 431.33 492.20 427.00 495.00 431.00 Z"/>
</g>
<g fill="None" fill-opacity="0.0" stroke="#AF96C7" stroke-opacity="1.00" stroke-width="0.3"><path d="
M 553.00 430.00 
C 554.67 428.33 555.18 416.52 553.00 415.00
C 553.00 420.00 553.00 425.00 553.00 430.00 Z"/>
</g>
<g fill="None" fill-opacity="0.0" stroke="#E2CAE4" stroke-opacity="1.00" stroke-width="0.3"><path d="
M 841.00 543.00 
C 840.96 543.00 841.00 542.00 841.00 542.00
C 841.00 499.67 841.00 457.33 841.00 415.00
C 836.78 417.96 841.22 430.42 840.00 436.00 C 838.78 441.58 840.49 451.65 840.00 458.00 C 839.51 464.35 840.02 472.35 840.00 479.00 C 839.98 485.65 839.61 494.42 840.00 501.00 C 840.39 507.58 838.95 517.00 840.00 523.00 C 841.05 529.00 836.96 539.13 841.00 543.00 Z"/>
</g>
<g fill="None" fill-opacity="0.0" stroke="#511181" stroke-opacity="1.00" stroke-width="0.3"><path d="
M 841.00 542.00 
C 846.36 541.51 852.64 541.52 858.00 542.00
C 857.95 525.96 855.63 507.84 858.00 492.00
C 858.72 487.17 860.84 483.20 863.75 478.75 C 866.66 474.31 871.95 472.99 877.00 472.00 C 882.05 471.01 887.84 471.54 892.77 474.23 C 897.70 476.92 898.30 480.62 899.69 485.31 C 901.08 489.99 900.27 496.41 901.00 502.00 C 901.73 507.60 899.59 516.61 901.00 522.00 C 902.41 527.39 897.97 537.67 901.00 542.00
C 906.67 542.00 912.33 542.00 918.00 542.00
C 918.67 526.17 916.67 509.01 919.00 494.00
C 918.60 483.43 916.85 474.80 909.75 466.25 C 902.65 457.69 893.98 457.83 883.01 457.01 C 872.04 456.19 867.50 465.14 859.00 469.00
C 858.68 470.70 857.52 460.34 858.00 455.00 C 858.48 449.66 857.75 440.97 858.00 435.00 C 858.25 429.03 857.81 421.15 858.00 415.00
C 856.72 414.10 842.28 414.10 841.00 415.00
C 841.00 457.33 841.00 499.67 841.00 542.00 Z"/>
</g>
<g fill="None" fill-opacity="0.0" stroke="#E2CAE4" stroke-opacity="1.00" stroke-width="0.3"><path d="
M 859.00 469.00 
C 860.02 463.57 858.83 455.35 859.00 450.00 C 859.17 444.65 859.69 436.66 859.00 432.00 C 858.31 427.34 861.49 417.44 858.00 415.00
C 857.81 421.15 858.25 429.03 858.00 435.00 C 857.75 440.97 858.48 449.66 858.00 455.00 C 857.52 460.34 858.68 470.70 859.00 469.00 Z"/>
</g>
<g fill="None" fill-opacity="0.0" stroke="#885CAA" stroke-opacity="1.00" stroke-width="0.3"><path d="
M 1033.00 429.00 
C 1034.38 426.03 1035.03 418.96 1033.00 416.00
C 1034.66 419.56 1031.75 425.25 1033.00 429.00 Z"/>
</g>
<g fill="None" fill-opacity="0.0" stroke="#511181" stroke-opacity="1.00" stroke-width="0.3"><path d="
M 955.00 418.00 
C 943.70 414.99 936.59 433.09 949.00 437.00 C 961.41 440.91 966.71 421.12 955.00 418.00 Z"/>
</g>
<g fill="None" fill-opacity="0.0" stroke="#885CAA" stroke-opacity="1.00" stroke-width="0.3"><path d="
M 514.00 431.00 
C 519.79 430.08 528.50 432.23 534.00 431.00 C 539.50 429.77 549.18 433.82 553.00 430.00
C 547.61 431.00 537.97 428.67 533.00 430.00 C 528.03 431.33 516.80 427.00 514.00 431.00 Z"/>
</g>
<g fill="None" fill-opacity="0.0" stroke="#E2CAE4" stroke-opacity="1.00" stroke-width="0.3"><path d="
M 316.00 454.00 
C 315.05 454.22 313.26 453.62 313.00 455.00
C 319.12 454.65 328.18 455.47 334.00 455.00 C 339.82 454.53 349.33 456.83 350.00 453.00
C 346.65 456.39 337.83 453.00 333.00 454.00 C 328.17 455.00 321.06 453.36 316.00 454.00 Z"/>
</g>
<g fill="None" fill-opacity="0.0" stroke="#F7F9FD" stroke-opacity="1.00" stroke-width="0.3"><path d="
M 347.00 480.00 
C 360.85 482.09 366.28 457.13 351.00 456.00
C 351.35 466.32 348.83 478.50 340.30 484.29 C 331.78 490.07 325.68 488.94 315.23 483.77 C 304.78 478.60 310.18 460.75 297.00 463.00
C 297.82 477.87 287.52 489.55 274.02 488.98 C 260.52 488.40 251.09 472.40 251.00 459.00
C 247.07 459.85 246.27 467.88 242.00 465.00
C 241.14 472.47 247.18 481.62 256.00 480.00
C 258.67 500.64 276.94 518.42 300.00 519.00 C 323.06 519.58 343.95 503.02 347.00 480.00
M 306.00 482.00 
C 307.40 484.09 306.97 489.81 303.00 487.00
C 306.66 486.24 302.13 481.92 306.00 482.00
M 296.00 488.00 
C 292.33 481.64 302.19 483.94 296.00 488.00
M 311.00 501.00 
C 310.77 501.13 309.25 502.76 309.00 503.00
C 304.11 507.70 295.72 508.92 293.00 502.00
C 292.66 501.98 292.23 501.05 292.00 501.00
C 290.32 500.61 287.83 500.95 287.00 499.00
C 291.96 500.57 297.91 493.28 301.00 500.00
C 305.53 495.35 312.03 500.22 317.00 498.00
C 317.11 500.81 313.22 501.17 311.00 501.00 Z"/>
</g>
<g fill="None" fill-opacity="0.0" stroke="#511181" stroke-opacity="1.00" stroke-width="0.3"><path d="
M 559.00 494.00 
C 558.71 498.20 558.71 502.80 559.00 507.00
C 559.39 544.18 616.27 558.46 636.00 529.00
C 631.05 527.19 628.43 521.78 624.00 519.00
C 620.18 524.28 614.04 527.92 608.00 530.00 C 601.96 532.08 590.44 527.53 586.08 524.92 C 581.72 522.30 573.85 512.69 577.00 508.00
C 579.91 503.67 592.37 508.32 598.00 507.00 C 603.63 505.68 613.41 507.66 620.00 507.00 C 626.59 506.34 636.14 507.50 643.00 507.00
C 646.35 502.22 641.33 493.67 641.33 488.67 C 641.33 483.68 637.68 477.80 634.92 473.08 C 632.15 468.37 628.88 465.64 623.70 462.30 C 618.51 458.96 615.88 459.06 608.07 457.93 C 600.26 456.80 598.18 456.91 588.69 458.69 C 579.21 460.48 568.17 468.78 563.78 477.78 C 559.38 486.77 559.60 485.19 559.00 494.00
M 624.00 492.00 
C 622.02 494.91 612.71 492.66 609.00 493.00 C 605.29 493.34 596.75 493.53 593.00 493.00 C 589.25 492.47 579.03 495.05 577.00 492.00
C 573.16 486.21 584.04 477.30 588.70 474.70 C 593.35 472.09 608.07 471.02 613.02 473.98 C 617.98 476.93 628.26 485.74 624.00 492.00 Z"/>
</g>
<g fill="None" fill-opacity="0.0" stroke="#511181" stroke-opacity="1.00" stroke-width="0.3"><path d="
M 712.00 490.00 
C 709.00 492.10 701.81 489.15 698.00 490.00 C 694.19 490.85 688.04 489.83 684.00 490.00
C 666.52 490.72 652.06 505.72 658.01 524.99 C 663.96 544.26 690.86 549.74 707.00 539.00
C 708.91 537.50 709.97 533.72 713.00 534.00
C 709.49 545.78 723.00 541.18 730.00 542.00
C 727.34 519.15 737.59 480.80 720.25 464.75 C 702.91 448.71 677.75 457.57 664.00 472.00
C 669.15 475.00 675.04 486.34 680.25 478.25 C 685.46 470.16 695.60 473.09 702.78 472.22 C 709.96 471.36 717.08 486.44 712.00 490.00
M 712.00 518.00 
C 710.60 522.96 707.75 526.08 702.92 527.92 C 698.10 529.77 691.31 530.54 686.33 529.67 C 681.35 528.80 677.24 526.35 675.23 521.77 C 673.22 517.19 674.33 511.07 678.25 508.25 C 682.17 505.43 688.06 502.50 693.00 504.00 C 697.94 505.50 707.92 501.15 712.00 504.00
C 714.87 506.01 712.67 515.64 712.00 518.00 Z"/>
</g>
<g fill="None" fill-opacity="0.0" stroke="#511181" stroke-opacity="1.00" stroke-width="0.3"><path d="
M 821.00 469.00 
C 792.40 443.51 746.31 462.92 746.00 500.00 C 745.69 537.08 794.86 561.38 822.00 531.00
C 816.65 529.40 814.30 522.44 809.00 521.00
C 790.74 543.70 761.76 521.54 763.22 498.22 C 764.68 474.90 792.56 461.56 811.00 481.00
C 812.62 475.93 819.89 474.52 821.00 469.00 Z"/>
</g>
<g fill="None" fill-opacity="0.0" stroke="#E2CAE4" stroke-opacity="1.00" stroke-width="0.3"><path d="
M 943.00 459.00 
C 943.00 458.96 944.00 459.00 944.00 459.00
C 949.67 459.00 955.33 459.00 961.00 459.00
C 959.46 456.80 944.81 457.13 943.00 459.00 Z"/>
</g>
<g fill="None" fill-opacity="0.0" stroke="#E2CAE4" stroke-opacity="1.00" stroke-width="0.3"><path d="
M 984.00 473.00 
C 984.00 468.33 984.00 463.67 984.00 459.00
C 986.70 458.14 992.20 460.57 994.00 458.00
C 984.63 451.29 978.09 468.86 984.00 473.00 Z"/>
</g>
<g fill="None" fill-opacity="0.0" stroke="#E2CAE4" stroke-opacity="1.00" stroke-width="0.3"><path d="
M 1033.00 459.00 
C 1033.50 459.00 1034.00 459.00 1034.00 459.00
C 1029.79 454.62 1017.56 460.20 1012.00 458.00
C 1014.12 461.02 1029.09 459.00 1033.00 459.00 Z"/>
</g>
<g fill="None" fill-opacity="0.0" stroke="#E2CAE4" stroke-opacity="1.00" stroke-width="0.3"><path d="
M 1041.00 460.00 
C 1044.98 459.56 1055.05 456.73 1059.00 460.00
C 1055.84 456.34 1041.11 457.03 1041.00 460.00 Z"/>
</g>
<g fill="None" fill-opacity="0.0" stroke="#E2CAE4" stroke-opacity="1.00" stroke-width="0.3"><path d="
M 1104.00 459.00 
C 1109.26 457.74 1115.88 460.68 1121.00 459.00
C 1120.62 457.70 1106.73 456.71 1104.00 459.00 Z"/>
</g>
<g fill="None" fill-opacity="0.0" stroke="#F0ADCC" stroke-opacity="1.00" stroke-width="0.3"><path d="
M 258.00 462.00 
C 260.15 457.57 269.80 460.70 273.00 461.00
C 275.19 461.21 277.81 461.21 280.00 461.00
C 283.27 460.69 288.02 459.15 292.00 460.00
C 289.67 456.68 278.24 459.60 274.00 459.00 C 269.76 458.40 259.47 457.42 258.00 462.00 Z"/>
</g>
<g fill="None" fill-opacity="0.0" stroke="#F0ADCC" stroke-opacity="1.00" stroke-width="0.3"><path d="
M 311.00 460.00 
C 314.98 459.14 319.80 460.70 323.00 461.00
C 325.19 461.21 327.81 461.21 330.00 461.00
C 332.50 460.76 341.20 458.02 344.00 460.00
C 341.46 457.44 330.62 459.01 327.00 459.00 C 323.38 458.99 312.92 457.26 311.00 460.00 Z"/>
</g>
<g fill="None" fill-opacity="0.0" stroke="#885CAA" stroke-opacity="1.00" stroke-width="0.3"><path d="
M 961.00 542.00 
C 955.33 542.00 949.67 542.00 944.00 542.00
C 944.00 514.33 944.00 486.67 944.00 459.00
C 944.00 459.00 943.00 458.96 943.00 459.00
C 943.00 487.00 943.00 515.00 943.00 543.00
C 947.08 541.14 958.26 545.91 961.00 542.00 Z"/>
</g>
<g fill="None" fill-opacity="0.0" stroke="#511181" stroke-opacity="1.00" stroke-width="0.3"><path d="
M 961.00 542.00 
C 964.11 537.56 959.81 526.66 961.00 521.00 C 962.19 515.34 960.94 505.97 961.00 500.00 C 961.06 494.03 962.03 484.61 961.00 479.00 C 959.97 473.39 964.01 463.30 961.00 459.00
C 955.33 459.00 949.67 459.00 944.00 459.00
C 944.00 486.67 944.00 514.33 944.00 542.00
C 949.67 542.00 955.33 542.00 961.00 542.00 Z"/>
</g>
<g fill="None" fill-opacity="0.0" stroke="#885CAA" stroke-opacity="1.00" stroke-width="0.3"><path d="
M 1033.00 473.00 
C 1035.25 471.43 1034.25 461.85 1034.00 459.00
C 1034.00 459.00 1033.50 459.00 1033.00 459.00
C 1032.58 463.63 1033.31 468.36 1033.00 473.00 Z"/>
</g>
<g fill="None" fill-opacity="0.0" stroke="#511181" stroke-opacity="1.00" stroke-width="0.3"><path d="
M 1041.00 460.00 
C 1046.68 474.34 1052.63 487.28 1057.23 499.77 C 1061.83 512.26 1074.90 528.61 1068.93 541.93 C 1062.96 555.25 1057.43 578.28 1039.00 568.00
C 1036.71 573.12 1034.35 578.33 1034.00 584.00
C 1042.05 587.70 1051.64 590.07 1059.30 585.30 C 1066.97 580.53 1071.25 574.81 1075.08 567.08 C 1078.91 559.34 1083.11 552.00 1086.08 544.08 C 1089.05 536.16 1093.08 528.49 1095.69 520.69 C 1098.31 512.90 1103.22 506.76 1104.80 500.25 C 1106.39 493.73 1111.55 488.15 1112.61 481.75 C 1113.66 475.35 1122.98 465.75 1121.00 459.00
C 1115.88 460.68 1109.26 457.74 1104.00 459.00
C 1096.28 479.09 1088.46 494.40 1082.00 513.00
C 1076.32 505.40 1075.08 496.01 1070.39 488.75 C 1065.71 481.50 1065.36 467.37 1059.00 460.00
C 1055.05 456.73 1044.98 459.56 1041.00 460.00 Z"/>
</g>
<g fill="None" fill-opacity="0.0" stroke="#F7F9FD" stroke-opacity="1.00" stroke-width="0.3"><path d="
M 258.00 462.00 
C 255.85 468.72 260.91 478.04 266.31 481.69 C 271.70 485.35 279.98 484.05 284.75 480.75 C 289.52 477.45 295.78 465.41 292.00 460.00
C 288.02 459.15 283.27 460.69 280.00 461.00
C 283.71 461.58 287.45 464.94 288.00 469.00
C 290.39 470.10 281.44 472.09 280.00 472.00
C 272.68 471.52 274.06 464.10 267.00 464.00
C 266.89 461.19 270.78 460.83 273.00 461.00
C 269.80 460.70 260.15 457.57 258.00 462.00 Z"/>
</g>
<g fill="None" fill-opacity="0.0" stroke="#F7F9FD" stroke-opacity="1.00" stroke-width="0.3"><path d="
M 344.00 460.00 
C 341.20 458.02 332.50 460.76 330.00 461.00
C 331.90 461.26 335.24 461.22 335.00 464.00
C 328.43 463.25 330.48 469.49 326.00 471.00
C 324.04 471.96 318.42 472.20 316.00 471.00
C 315.17 470.59 314.13 470.03 314.00 469.00
C 315.00 468.89 316.73 469.47 317.00 468.00
C 318.28 465.16 317.29 461.89 323.00 461.00
C 319.80 460.70 314.98 459.14 311.00 460.00
C 307.03 465.68 313.68 477.76 318.77 481.23 C 323.86 484.70 333.16 484.21 337.75 480.75 C 342.34 477.30 348.90 464.95 344.00 460.00 Z"/>
</g>
<g fill="None" fill-opacity="0.0" stroke="#EC80B1" stroke-opacity="1.00" stroke-width="0.3"><path d="
M 280.00 472.00 
C 280.60 470.16 281.55 469.09 283.00 468.00
C 285.51 466.11 283.96 467.85 287.00 470.00
C 287.35 469.93 288.04 469.31 288.00 469.00
C 287.45 464.94 283.71 461.58 280.00 461.00
C 277.81 461.21 275.19 461.21 273.00 461.00
C 270.78 460.83 266.89 461.19 267.00 464.00
C 274.06 464.10 272.68 471.52 280.00 472.00 Z"/>
</g>
<g fill="None" fill-opacity="0.0" stroke="#EA5898" stroke-opacity="1.00" stroke-width="0.3"><path d="
M 317.00 468.00 
C 317.71 467.49 318.46 466.38 319.00 466.00
C 321.87 464.00 320.83 469.00 322.00 471.00
C 323.33 471.00 324.67 471.00 326.00 471.00
C 330.48 469.49 328.43 463.25 335.00 464.00
C 335.24 461.22 331.90 461.26 330.00 461.00
C 327.81 461.21 325.19 461.21 323.00 461.00
C 317.29 461.89 318.28 465.16 317.00 468.00 Z"/>
</g>
<g fill="None" fill-opacity="0.0" stroke="#F0ADCC" stroke-opacity="1.00" stroke-width="0.3"><path d="
M 319.00 466.00 
C 320.35 466.73 319.96 468.83 321.00 470.00
C 319.43 470.39 316.78 469.06 316.00 471.00
C 318.42 472.20 324.04 471.96 326.00 471.00
C 324.67 471.00 323.33 471.00 322.00 471.00
C 320.83 469.00 321.87 464.00 319.00 466.00 Z"/>
</g>
<g fill="None" fill-opacity="0.0" stroke="#F7F9FD" stroke-opacity="1.00" stroke-width="0.3"><path d="
M 283.00 468.00 
C 282.75 470.29 283.83 470.65 287.00 470.00
C 283.96 467.85 285.51 466.11 283.00 468.00 Z"/>
</g>
<g fill="None" fill-opacity="0.0" stroke="#E2CAE4" stroke-opacity="1.00" stroke-width="0.3"><path d="
M 317.00 468.00 
C 316.73 469.47 315.00 468.89 314.00 469.00
C 314.13 470.03 315.17 470.59 316.00 471.00
C 316.78 469.06 319.43 470.39 321.00 470.00
C 319.96 468.83 320.35 466.73 319.00 466.00
C 318.46 466.38 317.71 467.49 317.00 468.00 Z"/>
</g>
<g fill="None" fill-opacity="0.0" stroke="#F0ADCC" stroke-opacity="1.00" stroke-width="0.3"><path d="
M 280.00 472.00 
C 281.44 472.09 290.39 470.10 288.00 469.00
C 288.04 469.31 287.35 469.93 287.00 470.00
C 283.83 470.65 282.75 470.29 283.00 468.00
C 281.55 469.09 280.60 470.16 280.00 472.00 Z"/>
</g>
<g fill="None" fill-opacity="0.0" stroke="#F7F9FD" stroke-opacity="1.00" stroke-width="0.3"><path d="
M 577.00 492.00 
C 592.67 492.00 608.33 492.00 624.00 492.00
C 628.26 485.74 617.98 476.93 613.02 473.98 C 608.07 471.02 593.35 472.09 588.70 474.70 C 584.04 477.30 573.16 486.21 577.00 492.00 Z"/>
</g>
<g fill="None" fill-opacity="0.0" stroke="#885CAA" stroke-opacity="1.00" stroke-width="0.3"><path d="
M 994.00 542.00 
C 995.68 544.41 1012.89 545.48 1012.00 539.00 C 1011.11 532.52 1012.42 523.93 1012.00 517.00 C 1011.58 510.07 1012.22 502.13 1012.00 495.00 C 1011.78 487.87 1012.16 480.18 1012.00 473.00
C 1009.67 495.01 1011.67 519.16 1011.00 542.00
C 1005.33 542.00 999.67 542.00 994.00 542.00 Z"/>
</g>
<g fill="None" fill-opacity="0.0" stroke="#EC80B1" stroke-opacity="1.00" stroke-width="0.3"><path d="
M 306.00 482.00 
C 302.13 481.92 306.66 486.24 303.00 487.00
C 306.97 489.81 307.40 484.09 306.00 482.00 Z"/>
</g>
<g fill="None" fill-opacity="0.0" stroke="#EC80B1" stroke-opacity="1.00" stroke-width="0.3"><path d="
M 296.00 488.00 
C 302.19 483.94 292.33 481.64 296.00 488.00 Z"/>
</g>
<g fill="None" fill-opacity="0.0" stroke="#E2CAE4" stroke-opacity="1.00" stroke-width="0.3"><path d="
M 684.00 490.00 
C 688.04 489.83 694.19 490.85 698.00 490.00 C 701.81 489.15 709.00 492.10 712.00 490.00
C 703.77 488.06 692.31 488.70 684.00 490.00 Z"/>
</g>
<g fill="None" fill-opacity="0.0" stroke="#E2CAE4" stroke-opacity="1.00" stroke-width="0.3"><path d="
M 624.00 492.00 
C 608.33 492.00 592.67 492.00 577.00 492.00
C 579.03 495.05 589.25 492.47 593.00 493.00 C 596.75 493.53 605.29 493.34 609.00 493.00 C 612.71 492.66 622.02 494.91 624.00 492.00 Z"/>
</g>
<g fill="None" fill-opacity="0.0" stroke="#E2CAE4" stroke-opacity="1.00" stroke-width="0.3"><path d="
M 858.00 542.00 
C 858.00 542.50 858.00 543.00 858.00 543.00
C 862.94 538.25 856.99 523.82 859.00 517.00 C 861.01 510.18 857.69 498.37 858.00 492.00
C 855.63 507.84 857.95 525.96 858.00 542.00 Z"/>
</g>
<g fill="None" fill-opacity="0.0" stroke="#AF96C7" stroke-opacity="1.00" stroke-width="0.3"><path d="
M 559.00 507.00 
C 558.71 502.80 558.71 498.20 559.00 494.00
C 558.24 498.27 558.22 502.67 559.00 507.00 Z"/>
</g>
<g fill="None" fill-opacity="0.0" stroke="#885CAA" stroke-opacity="1.00" stroke-width="0.3"><path d="
M 901.00 542.00 
C 902.64 544.35 919.88 545.60 919.00 539.00 C 918.12 532.40 919.45 523.00 919.00 516.00 C 918.55 509.00 919.27 501.08 919.00 494.00
C 916.67 509.01 918.67 526.17 918.00 542.00
C 912.33 542.00 906.67 542.00 901.00 542.00 Z"/>
</g>
<g fill="None" fill-opacity="0.0" stroke="#EC80B1" stroke-opacity="1.00" stroke-width="0.3"><path d="
M 292.00 501.00 
C 297.82 501.75 305.15 501.53 311.00 501.00
C 313.22 501.17 317.11 500.81 317.00 498.00
C 312.03 500.22 305.53 495.35 301.00 500.00
C 297.91 493.28 291.96 500.57 287.00 499.00
C 287.83 500.95 290.32 500.61 292.00 501.00 Z"/>
</g>
<g fill="None" fill-opacity="0.0" stroke="#E2CAE4" stroke-opacity="1.00" stroke-width="0.3"><path d="
M 293.00 502.00 
C 297.59 502.29 305.33 503.72 309.00 503.00
C 309.25 502.76 310.77 501.13 311.00 501.00
C 305.15 501.53 297.82 501.75 292.00 501.00
C 292.23 501.05 292.66 501.98 293.00 502.00 Z"/>
</g>
<g fill="None" fill-opacity="0.0" stroke="#EC80B1" stroke-opacity="1.00" stroke-width="0.3"><path d="
M 309.00 503.00 
C 305.33 503.72 297.59 502.29 293.00 502.00
C 295.72 508.92 304.11 507.70 309.00 503.00 Z"/>
</g>
<g fill="None" fill-opacity="0.0" stroke="#F7F9FD" stroke-opacity="1.00" stroke-width="0.3"><path d="
M 712.00 518.00 
C 712.70 513.44 711.48 508.59 712.00 504.00
C 707.92 501.15 697.94 505.50 693.00 504.00 C 688.06 502.50 682.17 505.43 678.25 508.25 C 674.33 511.07 673.22 517.19 675.23 521.77 C 677.24 526.35 681.35 528.80 686.33 529.67 C 691.31 530.54 698.10 529.77 702.92 527.92 C 707.75 526.08 710.60 522.96 712.00 518.00 Z"/>
</g>
<g fill="None" fill-opacity="0.0" stroke="#885CAA" stroke-opacity="1.00" stroke-width="0.3"><path d="
M 712.00 518.00 
C 712.67 515.64 714.87 506.01 712.00 504.00
C 711.48 508.59 712.70 513.44 712.00 518.00 Z"/>
</g>
<g fill="None" fill-opacity="0.0" stroke="#E2CAE4" stroke-opacity="1.00" stroke-width="0.3"><path d="
M 577.00 508.00 
C 583.88 507.50 593.38 508.66 600.00 508.00 C 606.62 507.34 616.31 509.32 622.00 508.00 C 627.69 506.68 639.96 511.34 643.00 507.00
C 636.14 507.50 626.59 506.34 620.00 507.00 C 613.41 507.66 603.63 505.68 598.00 507.00 C 592.37 508.32 579.91 503.67 577.00 508.00 Z"/>
</g>
<g fill="None" fill-opacity="0.0" stroke="#EC80B1" stroke-opacity="1.00" stroke-width="0.3"><path d="
M 318.00 520.00 
C 318.75 523.11 319.95 528.55 320.00 532.00
C 320.28 529.33 321.11 520.23 318.00 520.00 Z"/>
</g>
<g fill="None" fill-opacity="0.0" stroke="#F7F9FD" stroke-opacity="1.00" stroke-width="0.3"><path d="
M 320.00 532.00 
C 319.95 528.55 318.75 523.11 318.00 520.00
C 307.90 524.11 294.48 524.22 284.00 520.00
C 285.46 533.12 279.42 549.98 295.78 555.22 C 312.14 560.46 318.50 546.04 320.00 532.00 Z"/>
</g>
<g fill="None" fill-opacity="0.0" stroke="#F0ADCC" stroke-opacity="1.00" stroke-width="0.3"><path d="
M 339.00 549.00 
C 339.00 544.62 340.22 537.47 338.00 534.00
C 339.34 537.10 338.71 545.96 339.00 549.00 Z"/>
</g>
<g fill="None" fill-opacity="0.0" stroke="#885CAA" stroke-opacity="1.00" stroke-width="0.3"><path d="
M 707.00 539.00 
C 708.68 538.25 710.04 536.57 711.00 535.00
C 713.19 536.70 711.44 540.48 712.00 543.00
C 716.08 541.14 727.26 545.91 730.00 542.00
C 723.00 541.18 709.49 545.78 713.00 534.00
C 709.97 533.72 708.91 537.50 707.00 539.00 Z"/>
</g>
<g fill="None" fill-opacity="0.0" stroke="#885CAA" stroke-opacity="1.00" stroke-width="0.3"><path d="
M 514.00 542.00 
C 507.67 542.00 501.33 542.00 495.00 542.00
C 496.41 544.01 512.54 544.08 514.00 542.00 Z"/>
</g>
<g fill="None" fill-opacity="0.0" stroke="#885CAA" stroke-opacity="1.00" stroke-width="0.3"><path d="
M 841.00 543.00 
C 846.36 543.48 852.64 543.48 858.00 543.00
C 858.00 543.00 858.00 542.50 858.00 542.00
C 852.64 541.52 846.36 541.51 841.00 542.00
C 841.00 542.00 840.96 543.00 841.00 543.00 Z"/>
</g>
<g fill="None" fill-opacity="0.0" stroke="#EA5898" stroke-opacity="1.00" stroke-width="0.3"><path d="
M 198.00 626.00 
C 204.29 625.32 211.49 626.47 217.00 627.00
C 235.05 627.00 256.15 626.92 272.98 632.02 C 289.80 637.13 305.92 641.26 322.78 634.78 C 339.64 628.29 357.03 627.00 375.00 627.00
C 379.06 626.61 384.26 626.00 389.00 626.00
C 394.50 626.00 401.33 626.83 406.00 625.00
C 399.00 620.11 397.48 613.37 390.00 609.00
C 392.37 600.40 393.38 593.13 394.00 584.00
C 366.03 586.00 342.07 588.91 319.00 596.00
C 339.90 580.51 370.41 583.43 398.00 583.00
C 396.47 576.70 390.65 572.22 389.00 566.00
C 394.05 567.43 393.06 562.23 393.00 559.00
C 374.41 558.55 353.93 560.79 338.74 564.74 C 323.56 568.70 309.91 578.77 301.00 590.00
C 298.87 584.58 295.13 580.17 290.23 576.77 C 285.33 573.37 280.62 571.17 275.08 568.92 C 269.54 566.67 266.84 564.86 260.67 563.33 C 254.50 561.80 250.19 561.32 243.00 560.00 C 235.81 558.68 227.45 561.40 220.00 559.00 C 212.55 556.60 205.77 567.44 216.00 566.00
C 213.47 572.20 208.99 576.19 206.00 583.00
C 235.71 582.13 266.43 583.17 286.00 595.00
C 263.35 590.89 238.35 584.63 210.00 584.00
C 210.12 593.44 213.12 600.07 214.00 609.00
C 208.41 613.41 203.21 619.50 198.00 626.00
M 244.00 577.00 
C 240.34 576.93 236.66 577.00 233.00 577.00
C 228.17 577.00 222.01 577.83 218.00 576.00
C 220.05 573.09 221.94 570.36 223.00 567.00
C 248.71 568.29 278.64 571.42 295.00 593.00
C 279.80 583.67 262.51 577.21 244.00 577.00
M 385.00 574.00 
C 385.42 574.87 387.91 575.24 387.00 577.00
C 380.84 576.34 373.34 578.32 368.00 576.00
C 346.32 576.43 325.78 582.10 308.00 594.00
C 324.12 572.20 354.95 568.44 381.00 567.00
C 381.31 569.73 383.84 571.59 385.00 574.00
M 282.00 602.00 
C 284.63 603.25 285.56 626.11 283.00 627.00
C 276.36 629.32 269.08 623.03 261.93 623.07 C 254.77 623.12 245.64 621.21 238.00 621.00 C 230.36 620.79 221.11 619.08 213.00 620.00
C 213.94 616.90 219.95 615.34 218.00 612.00
C 221.00 612.00 224.00 612.00 227.00 612.00
C 228.99 612.00 231.01 612.09 233.00 612.00
C 228.64 611.44 218.22 610.29 220.00 603.00
C 228.03 601.83 236.71 606.08 244.00 603.00
C 235.82 599.27 218.69 603.76 218.00 592.00
C 240.01 592.66 261.21 596.51 282.00 602.00
M 367.00 602.00 
C 367.69 602.08 370.37 603.93 371.00 604.00
C 375.10 603.64 379.56 602.23 384.00 603.00
C 386.05 611.54 375.54 608.49 371.00 611.00
C 378.40 612.31 388.05 611.03 392.00 620.00
C 367.71 620.03 343.63 622.23 321.00 628.00
C 321.00 619.33 321.00 610.67 321.00 602.00
C 342.19 596.93 363.61 592.47 386.00 592.00
C 387.86 602.77 373.13 598.53 367.00 602.00
M 307.00 608.00 
C 303.42 609.07 299.54 609.33 296.00 608.00
C 294.41 607.40 291.77 607.19 292.00 605.00
C 298.50 607.59 305.40 606.81 312.00 605.00
C 312.44 608.01 308.42 606.36 307.00 608.00
M 312.00 614.00 
C 308.19 619.76 298.23 617.05 292.00 616.00
C 297.67 614.58 305.97 617.74 312.00 614.00
M 312.00 625.00 
C 306.33 627.73 297.62 627.76 292.00 625.00
C 297.32 625.06 306.75 624.48 312.00 625.00 Z"/>
</g>
<g fill="None" fill-opacity="0.0" stroke="#F7F9FD" stroke-opacity="1.00" stroke-width="0.3"><path d="
M 218.00 576.00 
C 223.00 576.00 228.00 576.00 233.00 576.00
C 236.80 576.00 240.93 576.63 244.00 577.00
C 262.51 577.21 279.80 583.67 295.00 593.00
C 278.64 571.42 248.71 568.29 223.00 567.00
C 221.94 570.36 220.05 573.09 218.00 576.00 Z"/>
</g>
<g fill="None" fill-opacity="0.0" stroke="#F7F9FD" stroke-opacity="1.00" stroke-width="0.3"><path d="
M 368.00 576.00 
C 372.23 575.92 385.28 577.66 385.00 574.00
C 383.84 571.59 381.31 569.73 381.00 567.00
C 354.95 568.44 324.12 572.20 308.00 594.00
C 325.78 582.10 346.32 576.43 368.00 576.00 Z"/>
</g>
<g fill="None" fill-opacity="0.0" stroke="#F0ADCC" stroke-opacity="1.00" stroke-width="0.3"><path d="
M 368.00 576.00 
C 373.34 578.32 380.84 576.34 387.00 577.00
C 387.91 575.24 385.42 574.87 385.00 574.00
C 385.28 577.66 372.23 575.92 368.00 576.00 Z"/>
</g>
<g fill="None" fill-opacity="0.0" stroke="#F0ADCC" stroke-opacity="1.00" stroke-width="0.3"><path d="
M 233.00 577.00 
C 232.96 577.00 233.00 576.00 233.00 576.00
C 228.00 576.00 223.00 576.00 218.00 576.00
C 222.01 577.83 228.17 577.00 233.00 577.00 Z"/>
</g>
<g fill="None" fill-opacity="0.0" stroke="#E2CAE4" stroke-opacity="1.00" stroke-width="0.3"><path d="
M 233.00 577.00 
C 236.66 577.00 240.34 576.93 244.00 577.00
C 240.93 576.63 236.80 576.00 233.00 576.00
C 233.00 576.00 232.96 577.00 233.00 577.00 Z"/>
</g>
<g fill="None" fill-opacity="0.0" stroke="#F7F9FD" stroke-opacity="1.00" stroke-width="0.3"><path d="
M 233.00 612.00 
C 234.91 611.91 236.16 611.33 238.00 611.00
C 236.13 614.29 229.53 613.47 227.00 612.00
C 224.00 612.00 221.00 612.00 218.00 612.00
C 219.95 615.34 213.94 616.90 213.00 620.00
C 221.11 619.08 230.36 620.79 238.00 621.00 C 245.64 621.21 254.77 623.12 261.93 623.07 C 269.08 623.03 276.36 629.32 283.00 627.00
C 280.91 620.61 286.62 606.85 282.00 602.00
C 261.21 596.51 240.01 592.66 218.00 592.00
C 218.69 603.76 235.82 599.27 244.00 603.00
C 236.71 606.08 228.03 601.83 220.00 603.00
C 218.22 610.29 228.64 611.44 233.00 612.00 Z"/>
</g>
<g fill="None" fill-opacity="0.0" stroke="#F7F9FD" stroke-opacity="1.00" stroke-width="0.3"><path d="
M 371.00 604.00 
C 367.69 604.29 364.31 603.78 361.00 604.00
C 362.26 602.20 364.80 601.78 367.00 602.00
C 373.13 598.53 387.86 602.77 386.00 592.00
C 363.61 592.47 342.19 596.93 321.00 602.00
C 321.00 610.67 321.00 619.33 321.00 628.00
C 343.63 622.23 367.71 620.03 392.00 620.00
C 388.05 611.03 378.40 612.31 371.00 611.00
C 375.54 608.49 386.05 611.54 384.00 603.00
C 379.56 602.23 375.10 603.64 371.00 604.00 Z"/>
</g>
<g fill="None" fill-opacity="0.0" stroke="#EC80B1" stroke-opacity="1.00" stroke-width="0.3"><path d="
M 282.00 602.00 
C 286.62 606.85 280.91 620.61 283.00 627.00
C 285.56 626.11 284.63 603.25 282.00 602.00 Z"/>
</g>
<g fill="None" fill-opacity="0.0" stroke="#EC80B1" stroke-opacity="1.00" stroke-width="0.3"><path d="
M 371.00 604.00 
C 370.37 603.93 367.69 602.08 367.00 602.00
C 364.80 601.78 362.26 602.20 361.00 604.00
C 364.31 603.78 367.69 604.29 371.00 604.00 Z"/>
</g>
<g fill="None" fill-opacity="0.0" stroke="#F7F9FD" stroke-opacity="1.00" stroke-width="0.3"><path d="
M 296.00 608.00 
C 298.89 608.64 304.08 608.48 307.00 608.00
C 308.42 606.36 312.44 608.01 312.00 605.00
C 305.40 606.81 298.50 607.59 292.00 605.00
C 291.77 607.19 294.41 607.40 296.00 608.00 Z"/>
</g>
<g fill="None" fill-opacity="0.0" stroke="#F0ADCC" stroke-opacity="1.00" stroke-width="0.3"><path d="
M 307.00 608.00 
C 304.08 608.48 298.89 608.64 296.00 608.00
C 299.54 609.33 303.42 609.07 307.00 608.00 Z"/>
</g>
<g fill="None" fill-opacity="0.0" stroke="#E2CAE4" stroke-opacity="1.00" stroke-width="0.3"><path d="
M 233.00 612.00 
C 231.01 612.09 228.99 612.00 227.00 612.00
C 229.53 613.47 236.13 614.29 238.00 611.00
C 236.16 611.33 234.91 611.91 233.00 612.00 Z"/>
</g>
<g fill="None" fill-opacity="0.0" stroke="#F7F9FD" stroke-opacity="1.00" stroke-width="0.3"><path d="
M 312.00 614.00 
C 305.97 617.74 297.67 614.58 292.00 616.00
C 298.23 617.05 308.19 619.76 312.00 614.00 Z"/>
</g>
<g fill="None" fill-opacity="0.0" stroke="#F7F9FD" stroke-opacity="1.00" stroke-width="0.3"><path d="
M 312.00 625.00 
C 306.75 624.48 297.32 625.06 292.00 625.00
C 297.62 627.76 306.33 627.73 312.00 625.00 Z"/>
</g>
<g fill="None" fill-opacity="0.0" stroke="#E2CAE4" stroke-opacity="1.00" stroke-width="0.3"><path d="
M 389.00 626.00 
C 389.04 626.00 389.00 627.00 389.00 627.00
C 392.37 627.00 406.87 628.23 406.00 625.00
C 401.33 626.83 394.50 626.00 389.00 626.00 Z"/>
</g>
<g fill="None" fill-opacity="0.0" stroke="#E2CAE4" stroke-opacity="1.00" stroke-width="0.3"><path d="
M 217.00 627.00 
C 211.49 626.47 204.29 625.32 198.00 626.00
C 203.34 627.83 210.84 627.00 217.00 627.00 Z"/>
</g>
<g fill="None" fill-opacity="0.0" stroke="#F0ADCC" stroke-opacity="1.00" stroke-width="0.3"><path d="
M 375.00 627.00 
C 379.67 627.00 384.33 627.00 389.00 627.00
C 389.00 627.00 389.04 626.00 389.00 626.00
C 384.26 626.00 379.06 626.61 375.00 627.00 Z"/>
</g>
<g fill="#F7F9FD" fill-opacity="1.00" stroke="None">
<path d="
M 0.00 1000.00 
L 1320.00 1000.00
L 1320.00 0.00
L 0.00 0.00
L 0.00 1000.00
M 339.00 549.00 
C 338.71 545.96 339.34 537.10 338.00 534.00
C 335.78 530.53 329.04 529.79 326.00 527.00
C 319.36 546.56 321.17 569.99 303.00 584.00
C 281.98 572.67 284.80 546.44 278.00 527.00
C 260.76 529.75 265.98 548.14 264.00 561.00
C 247.39 557.90 230.56 555.42 213.00 556.00
C 215.43 541.29 232.81 538.42 243.00 534.00
C 240.07 532.72 237.70 530.64 235.00 529.00
C 241.64 527.59 249.82 528.27 255.70 523.70 C 261.57 519.13 263.67 508.36 253.00 511.00
C 246.85 501.88 243.55 493.37 238.61 484.25 C 233.66 475.13 228.03 464.61 227.02 452.98 C 226.01 441.34 225.39 424.19 229.33 413.33 C 233.26 402.46 235.99 393.35 243.75 384.75 C 251.52 376.15 259.21 370.72 269.23 366.23 C 279.25 361.74 295.92 359.49 306.67 361.33 C 317.42 363.17 328.98 367.21 333.92 377.08 C 338.86 386.96 350.37 389.06 355.59 398.75 C 360.81 408.44 364.74 417.31 364.00 430.00 C 363.26 442.69 364.22 457.92 366.79 469.23 C 369.35 480.54 370.73 496.89 366.68 507.68 C 362.63 518.46 354.80 524.41 347.00 532.00
C 363.08 537.12 386.41 535.24 392.00 556.00
C 373.77 555.44 356.24 557.56 339.00 561.00
C 339.00 557.00 339.00 553.00 339.00 549.00
M 1033.00 416.00 
C 1035.03 418.96 1034.38 426.03 1033.00 429.00
C 1029.15 426.83 1022.51 428.21 1019.31 430.31 C 1016.10 432.40 1010.90 435.66 1012.02 440.02 C 1013.15 444.39 1009.47 454.39 1012.00 458.00
C 1017.56 460.20 1029.79 454.62 1034.00 459.00
C 1034.25 461.85 1035.25 471.43 1033.00 473.00
C 1028.30 476.29 1016.70 469.71 1012.00 473.00
C 1012.16 480.18 1011.78 487.87 1012.00 495.00 C 1012.22 502.13 1011.58 510.07 1012.00 517.00 C 1012.42 523.93 1011.11 532.52 1012.00 539.00 C 1012.89 545.48 995.68 544.41 994.00 542.00
C 991.32 538.18 995.21 529.85 994.00 525.00 C 992.79 520.15 994.56 513.34 994.00 508.00 C 993.44 502.66 994.28 496.62 994.00 491.00 C 993.72 485.38 994.21 478.72 994.00 473.00
C 990.67 473.00 987.33 473.00 984.00 473.00
C 978.09 468.86 984.63 451.29 994.00 458.00
C 997.62 452.83 991.61 443.61 994.33 437.33 C 997.05 431.05 996.29 428.65 1001.30 422.30 C 1006.32 415.95 1026.95 407.18 1033.00 416.00
M 553.00 430.00 
C 549.18 433.82 539.50 429.77 534.00 431.00 C 528.50 432.23 519.79 430.08 514.00 431.00
C 511.13 435.10 515.27 443.74 514.00 449.00 C 512.72 454.26 514.70 462.32 514.00 468.00 C 513.30 473.68 514.53 480.19 514.00 486.00 C 513.47 491.81 514.71 499.31 514.00 505.00 C 513.29 510.69 515.43 517.79 514.00 523.00 C 512.57 528.21 516.93 537.81 514.00 542.00
C 512.54 544.08 496.41 544.01 495.00 542.00
C 492.13 537.90 496.28 529.26 495.00 524.00 C 493.73 518.74 495.70 510.68 495.00 505.00 C 494.30 499.32 495.53 492.81 495.00 487.00 C 494.47 481.19 495.71 473.69 495.00 468.00 C 494.29 462.31 496.43 455.21 495.00 450.00 C 493.57 444.79 497.93 435.19 495.00 431.00
C 489.31 430.75 481.47 431.34 476.00 431.00 C 470.53 430.66 461.69 431.64 457.00 431.00 C 452.31 430.36 454.73 415.89 456.00 415.00
C 460.17 412.08 469.66 416.20 475.00 415.00 C 480.34 413.80 488.16 415.27 494.00 415.00 C 499.84 414.73 508.15 414.65 514.00 415.00 C 519.85 415.35 527.61 413.66 533.00 415.00 C 538.39 416.34 548.70 411.99 553.00 415.00
C 555.18 416.52 554.67 428.33 553.00 430.00
M 859.00 469.00 
C 867.50 465.14 872.04 456.19 883.01 457.01 C 893.98 457.83 902.65 457.69 909.75 466.25 C 916.85 474.80 918.60 483.43 919.00 494.00
C 919.27 501.08 918.55 509.00 919.00 516.00 C 919.45 523.00 918.12 532.40 919.00 539.00 C 919.88 545.60 902.64 544.35 901.00 542.00
C 897.97 537.67 902.41 527.39 901.00 522.00 C 899.59 516.61 901.73 507.60 901.00 502.00 C 900.27 496.41 901.08 489.99 899.69 485.31 C 898.30 480.62 897.70 476.92 892.77 474.23 C 887.84 471.54 882.05 471.01 877.00 472.00 C 871.95 472.99 866.66 474.31 863.75 478.75 C 860.84 483.20 858.72 487.17 858.00 492.00
C 857.69 498.37 861.01 510.18 859.00 517.00 C 856.99 523.82 862.94 538.25 858.00 543.00
C 852.64 543.48 846.36 543.48 841.00 543.00
C 836.96 539.13 841.05 529.00 840.00 523.00 C 838.95 517.00 840.39 507.58 840.00 501.00 C 839.61 494.42 839.98 485.65 840.00 479.00 C 840.02 472.35 839.51 464.35 840.00 458.00 C 840.49 451.65 838.78 441.58 840.00 436.00 C 841.22 430.42 836.78 417.96 841.00 415.00
C 842.28 414.10 856.72 414.10 858.00 415.00
C 861.49 417.44 858.31 427.34 859.00 432.00 C 859.69 436.66 859.17 444.65 859.00 450.00 C 858.83 455.35 860.02 463.57 859.00 469.00
M 955.00 418.00 
C 966.71 421.12 961.41 440.91 949.00 437.00 C 936.59 433.09 943.70 414.99 955.00 418.00
M 643.00 507.00 
C 639.96 511.34 627.69 506.68 622.00 508.00 C 616.31 509.32 606.62 507.34 600.00 508.00 C 593.38 508.66 583.88 507.50 577.00 508.00
C 573.85 512.69 581.72 522.30 586.08 524.92 C 590.44 527.53 601.96 532.08 608.00 530.00 C 614.04 527.92 620.18 524.28 624.00 519.00
C 628.43 521.78 631.05 527.19 636.00 529.00
C 616.27 558.46 559.39 544.18 559.00 507.00
C 558.22 502.67 558.24 498.27 559.00 494.00
C 559.60 485.19 559.38 486.77 563.78 477.78 C 568.17 468.78 579.21 460.48 588.69 458.69 C 598.18 456.91 600.26 456.80 608.07 457.93 C 615.88 459.06 618.51 458.96 623.70 462.30 C 628.88 465.64 632.15 468.37 634.92 473.08 C 637.68 477.80 641.33 483.68 641.33 488.67 C 641.33 493.67 646.35 502.22 643.00 507.00
M 730.00 542.00 
C 727.26 545.91 716.08 541.14 712.00 543.00
C 711.44 540.48 713.19 536.70 711.00 535.00
C 710.04 536.57 708.68 538.25 707.00 539.00
C 690.86 549.74 663.96 544.26 658.01 524.99 C 652.06 505.72 666.52 490.72 684.00 490.00
C 692.31 488.70 703.77 488.06 712.00 490.00
C 717.08 486.44 709.96 471.36 702.78 472.22 C 695.60 473.09 685.46 470.16 680.25 478.25 C 675.04 486.34 669.15 475.00 664.00 472.00
C 677.75 457.57 702.91 448.71 720.25 464.75 C 737.59 480.80 727.34 519.15 730.00 542.00
M 821.00 469.00 
C 819.89 474.52 812.62 475.93 811.00 481.00
C 792.56 461.56 764.68 474.90 763.22 498.22 C 761.76 521.54 790.74 543.70 809.00 521.00
C 814.30 522.44 816.65 529.40 822.00 531.00
C 794.86 561.38 745.69 537.08 746.00 500.00 C 746.31 462.92 792.40 443.51 821.00 469.00
M 961.00 459.00 
C 964.01 463.30 959.97 473.39 961.00 479.00 C 962.03 484.61 961.06 494.03 961.00 500.00 C 960.94 505.97 962.19 515.34 961.00 521.00 C 959.81 526.66 964.11 537.56 961.00 542.00
C 958.26 545.91 947.08 541.14 943.00 543.00
C 943.00 515.00 943.00 487.00 943.00 459.00
C 944.81 457.13 959.46 456.80 961.00 459.00
M 1059.00 460.00 
C 1065.36 467.37 1065.71 481.50 1070.39 488.75 C 1075.08 496.01 1076.32 505.40 1082.00 513.00
C 1088.46 494.40 1096.28 479.09 1104.00 459.00
C 1106.73 456.71 1120.62 457.70 1121.00 459.00
C 1122.98 465.75 1113.66 475.35 1112.61 481.75 C 1111.55 488.15 1106.39 493.73 1104.80 500.25 C 1103.22 506.76 1098.31 512.90 1095.69 520.69 C 1093.08 528.49 1089.05 536.16 1086.08 544.08 C 1083.11 552.00 1078.91 559.34 1075.08 567.08 C 1071.25 574.81 1066.97 580.53 1059.30 585.30 C 1051.64 590.07 1042.05 587.70 1034.00 584.00
C 1034.35 578.33 1036.71 573.12 1039.00 568.00
C 1057.43 578.28 1062.96 555.25 1068.93 541.93 C 1074.90 528.61 1061.83 512.26 1057.23 499.77 C 1052.63 487.28 1046.68 474.34 1041.00 460.00
C 1041.11 457.03 1055.84 456.34 1059.00 460.00
M 406.00 625.00 
C 406.87 628.23 392.37 627.00 389.00 627.00
C 384.33 627.00 379.67 627.00 375.00 627.00
C 357.03 627.00 339.64 628.29 322.78 634.78 C 305.92 641.26 289.80 637.13 272.98 632.02 C 256.15 626.92 235.05 627.00 217.00 627.00
C 210.84 627.00 203.34 627.83 198.00 626.00
C 203.21 619.50 208.41 613.41 214.00 609.00
C 213.12 600.07 210.12 593.44 210.00 584.00
C 238.35 584.63 263.35 590.89 286.00 595.00
C 266.43 583.17 235.71 582.13 206.00 583.00
C 208.99 576.19 213.47 572.20 216.00 566.00
C 205.77 567.44 212.55 556.60 220.00 559.00 C 227.45 561.40 235.81 558.68 243.00 560.00 C 250.19 561.32 254.50 561.80 260.67 563.33 C 266.84 564.86 269.54 566.67 275.08 568.92 C 280.62 571.17 285.33 573.37 290.23 576.77 C 295.13 580.17 298.87 584.58 301.00 590.00
C 309.91 578.77 323.56 568.70 338.74 564.74 C 353.93 560.79 374.41 558.55 393.00 559.00
C 393.06 562.23 394.05 567.43 389.00 566.00
C 390.65 572.22 396.47 576.70 398.00 583.00
C 370.41 583.43 339.90 580.51 319.00 596.00
C 342.07 588.91 366.03 586.00 394.00 584.00
C 393.38 593.13 392.37 600.40 390.00 609.00
C 397.48 613.37 399.00 620.11 406.00 625.00 Z"/>
</g>
<g fill="#EA5898" fill-opacity="1.00" stroke="None">
<path d="
M 338.00 534.00 
C 340.22 537.47 339.00 544.62 339.00 549.00
C 339.00 553.00 339.00 557.00 339.00 561.00
C 356.24 557.56 373.77 555.44 392.00 556.00
C 386.41 535.24 363.08 537.12 347.00 532.00
C 354.80 524.41 362.63 518.46 366.68 507.68 C 370.73 496.89 369.35 480.54 366.79 469.23 C 364.22 457.92 363.26 442.69 364.00 430.00 C 364.74 417.31 360.81 408.44 355.59 398.75 C 350.37 389.06 338.86 386.96 333.92 377.08 C 328.98 367.21 317.42 363.17 306.67 361.33 C 295.92 359.49 279.25 361.74 269.23 366.23 C 259.21 370.72 251.52 376.15 243.75 384.75 C 235.99 393.35 233.26 402.46 229.33 413.33 C 225.39 424.19 226.01 441.34 227.02 452.98 C 228.03 464.61 233.66 475.13 238.61 484.25 C 243.55 493.37 246.85 501.88 253.00 511.00
C 263.67 508.36 261.57 519.13 255.70 523.70 C 249.82 528.27 241.64 527.59 235.00 529.00
C 237.70 530.64 240.07 532.72 243.00 534.00
C 232.81 538.42 215.43 541.29 213.00 556.00
C 230.56 555.42 247.39 557.90 264.00 561.00
C 265.98 548.14 260.76 529.75 278.00 527.00
C 284.80 546.44 281.98 572.67 303.00 584.00
C 321.17 569.99 319.36 546.56 326.00 527.00
C 329.04 529.79 335.78 530.53 338.00 534.00
M 311.00 382.00 
C 309.04 384.30 305.45 382.39 303.00 382.00
C 305.04 379.35 308.36 382.42 311.00 382.00
M 350.00 453.00 
C 349.33 456.83 339.82 454.53 334.00 455.00 C 328.18 455.47 319.12 454.65 313.00 455.00
C 313.26 453.62 315.05 454.22 316.00 454.00
C 322.56 448.92 331.58 448.89 339.00 453.00
C 334.02 446.23 312.63 445.19 312.00 455.00
C 308.07 454.16 304.67 455.36 306.00 460.00
C 302.17 460.17 295.44 461.05 297.00 455.00
C 284.50 454.33 270.68 456.33 259.00 454.00
C 270.25 451.83 281.00 450.05 292.00 454.00
C 291.56 450.00 288.40 449.67 285.00 449.00
C 298.92 443.34 314.18 438.01 323.92 424.92 C 333.65 411.83 330.07 387.69 312.00 384.00
C 321.79 383.00 330.39 389.29 334.78 399.22 C 339.16 409.16 329.06 421.77 332.92 431.08 C 336.78 440.38 353.18 441.16 350.00 453.00
M 347.00 480.00 
C 343.95 503.02 323.06 519.58 300.00 519.00 C 276.94 518.42 258.67 500.64 256.00 480.00
C 247.18 481.62 241.14 472.47 242.00 465.00
C 246.27 467.88 247.07 459.85 251.00 459.00
C 251.09 472.40 260.52 488.40 274.02 488.98 C 287.52 489.55 297.82 477.87 297.00 463.00
C 310.18 460.75 304.78 478.60 315.23 483.77 C 325.68 488.94 331.78 490.07 340.30 484.29 C 348.83 478.50 351.35 466.32 351.00 456.00
C 366.28 457.13 360.85 482.09 347.00 480.00
M 292.00 460.00 
C 295.78 465.41 289.52 477.45 284.75 480.75 C 279.98 484.05 271.70 485.35 266.31 481.69 C 260.91 478.04 255.85 468.72 258.00 462.00
C 259.47 457.42 269.76 458.40 274.00 459.00 C 278.24 459.60 289.67 456.68 292.00 460.00
M 344.00 460.00 
C 348.90 464.95 342.34 477.30 337.75 480.75 C 333.16 484.21 323.86 484.70 318.77 481.23 C 313.68 477.76 307.03 465.68 311.00 460.00
C 312.92 457.26 323.38 458.99 327.00 459.00 C 330.62 459.01 341.46 457.44 344.00 460.00
M 320.00 532.00 
C 318.50 546.04 312.14 560.46 295.78 555.22 C 279.42 549.98 285.46 533.12 284.00 520.00
C 294.48 524.22 307.90 524.11 318.00 520.00
C 321.11 520.23 320.28 529.33 320.00 532.00 Z"/>
</g>
<g fill="#E2CAE4" fill-opacity="1.00" stroke="None">
<path d="
M 311.00 382.00 
C 308.36 382.42 305.04 379.35 303.00 382.00
C 305.45 382.39 309.04 384.30 311.00 382.00 Z"/>
</g>
<g fill="#F7F9FD" fill-opacity="1.00" stroke="None">
<path d="
M 316.00 454.00 
C 321.06 453.36 328.17 455.00 333.00 454.00 C 337.83 453.00 346.65 456.39 350.00 453.00
C 353.18 441.16 336.78 440.38 332.92 431.08 C 329.06 421.77 339.16 409.16 334.78 399.22 C 330.39 389.29 321.79 383.00 312.00 384.00
C 330.07 387.69 333.65 411.83 323.92 424.92 C 314.18 438.01 298.92 443.34 285.00 449.00
C 288.40 449.67 291.56 450.00 292.00 454.00
C 281.00 450.05 270.25 451.83 259.00 454.00
C 270.68 456.33 284.50 454.33 297.00 455.00
C 295.44 461.05 302.17 460.17 306.00 460.00
C 304.67 455.36 308.07 454.16 312.00 455.00
C 312.63 445.19 334.02 446.23 339.00 453.00
C 331.58 448.89 322.56 448.92 316.00 454.00 Z"/>
</g>
<g fill="#511181" fill-opacity="1.00" stroke="None">
<path d="
M 994.00 458.00 
C 992.20 460.57 986.70 458.14 984.00 459.00
C 984.00 463.67 984.00 468.33 984.00 473.00
C 987.33 473.00 990.67 473.00 994.00 473.00
C 994.21 478.72 993.72 485.38 994.00 491.00 C 994.28 496.62 993.44 502.66 994.00 508.00 C 994.56 513.34 992.79 520.15 994.00 525.00 C 995.21 529.85 991.32 538.18 994.00 542.00
C 999.67 542.00 1005.33 542.00 1011.00 542.00
C 1011.67 519.16 1009.67 495.01 1012.00 473.00
C 1016.70 469.71 1028.30 476.29 1033.00 473.00
C 1033.31 468.36 1032.58 463.63 1033.00 459.00
C 1029.09 459.00 1014.12 461.02 1012.00 458.00
C 1009.47 454.39 1013.15 444.39 1012.02 440.02 C 1010.90 435.66 1016.10 432.40 1019.31 430.31 C 1022.51 428.21 1029.15 426.83 1033.00 429.00
C 1031.75 425.25 1034.66 419.56 1033.00 416.00
C 1026.95 407.18 1006.32 415.95 1001.30 422.30 C 996.29 428.65 997.05 431.05 994.33 437.33 C 991.61 443.61 997.62 452.83 994.00 458.00 Z"/>
</g>
<g fill="#885CAA" fill-opacity="1.00" stroke="None">
<path d="
M 495.00 431.00 
C 492.20 427.00 480.97 431.33 476.00 430.00 C 471.03 428.67 461.39 430.99 456.00 430.00
C 456.00 425.00 456.00 420.00 456.00 415.00
C 454.73 415.89 452.31 430.36 457.00 431.00 C 461.69 431.64 470.53 430.66 476.00 431.00 C 481.47 431.34 489.31 430.75 495.00 431.00 Z"/>
</g>
<g fill="#511181" fill-opacity="1.00" stroke="None">
<path d="
M 495.00 431.00 
C 497.93 435.19 493.57 444.79 495.00 450.00 C 496.43 455.21 494.29 462.31 495.00 468.00 C 495.71 473.69 494.47 481.19 495.00 487.00 C 495.53 492.81 494.30 499.32 495.00 505.00 C 495.70 510.68 493.73 518.74 495.00 524.00 C 496.28 529.26 492.13 537.90 495.00 542.00
C 501.33 542.00 507.67 542.00 514.00 542.00
C 516.93 537.81 512.57 528.21 514.00 523.00 C 515.43 517.79 513.29 510.69 514.00 505.00 C 514.71 499.31 513.47 491.81 514.00 486.00 C 514.53 480.19 513.30 473.68 514.00 468.00 C 514.70 462.32 512.72 454.26 514.00 449.00 C 515.27 443.74 511.13 435.10 514.00 431.00
C 516.80 427.00 528.03 431.33 533.00 430.00 C 537.97 428.67 547.61 431.00 553.00 430.00
C 553.00 425.00 553.00 420.00 553.00 415.00
C 548.70 411.99 538.39 416.34 533.00 415.00 C 527.61 413.66 519.85 415.35 514.00 415.00 C 508.15 414.65 499.84 414.73 494.00 415.00 C 488.16 415.27 480.34 413.80 475.00 415.00 C 469.66 416.20 460.17 412.08 456.00 415.00
C 456.00 420.00 456.00 425.00 456.00 430.00
C 461.39 430.99 471.03 428.67 476.00 430.00 C 480.97 431.33 492.20 427.00 495.00 431.00 Z"/>
</g>
<g fill="#AF96C7" fill-opacity="1.00" stroke="None">
<path d="
M 553.00 430.00 
C 554.67 428.33 555.18 416.52 553.00 415.00
C 553.00 420.00 553.00 425.00 553.00 430.00 Z"/>
</g>
<g fill="#E2CAE4" fill-opacity="1.00" stroke="None">
<path d="
M 841.00 543.00 
C 840.96 543.00 841.00 542.00 841.00 542.00
C 841.00 499.67 841.00 457.33 841.00 415.00
C 836.78 417.96 841.22 430.42 840.00 436.00 C 838.78 441.58 840.49 451.65 840.00 458.00 C 839.51 464.35 840.02 472.35 840.00 479.00 C 839.98 485.65 839.61 494.42 840.00 501.00 C 840.39 507.58 838.95 517.00 840.00 523.00 C 841.05 529.00 836.96 539.13 841.00 543.00 Z"/>
</g>
<g fill="#511181" fill-opacity="1.00" stroke="None">
<path d="
M 841.00 542.00 
C 846.36 541.51 852.64 541.52 858.00 542.00
C 857.95 525.96 855.63 507.84 858.00 492.00
C 858.72 487.17 860.84 483.20 863.75 478.75 C 866.66 474.31 871.95 472.99 877.00 472.00 C 882.05 471.01 887.84 471.54 892.77 474.23 C 897.70 476.92 898.30 480.62 899.69 485.31 C 901.08 489.99 900.27 496.41 901.00 502.00 C 901.73 507.60 899.59 516.61 901.00 522.00 C 902.41 527.39 897.97 537.67 901.00 542.00
C 906.67 542.00 912.33 542.00 918.00 542.00
C 918.67 526.17 916.67 509.01 919.00 494.00
C 918.60 483.43 916.85 474.80 909.75 466.25 C 902.65 457.69 893.98 457.83 883.01 457.01 C 872.04 456.19 867.50 465.14 859.00 469.00
C 858.68 470.70 857.52 460.34 858.00 455.00 C 858.48 449.66 857.75 440.97 858.00 435.00 C 858.25 429.03 857.81 421.15 858.00 415.00
C 856.72 414.10 842.28 414.10 841.00 415.00
C 841.00 457.33 841.00 499.67 841.00 542.00 Z"/>
</g>
<g fill="#E2CAE4" fill-opacity="1.00" stroke="None">
<path d="
M 859.00 469.00 
C 860.02 463.57 858.83 455.35 859.00 450.00 C 859.17 444.65 859.69 436.66 859.00 432.00 C 858.31 427.34 861.49 417.44 858.00 415.00
C 857.81 421.15 858.25 429.03 858.00 435.00 C 857.75 440.97 858.48 449.66 858.00 455.00 C 857.52 460.34 858.68 470.70 859.00 469.00 Z"/>
</g>
<g fill="#885CAA" fill-opacity="1.00" stroke="None">
<path d="
M 1033.00 429.00 
C 1034.38 426.03 1035.03 418.96 1033.00 416.00
C 1034.66 419.56 1031.75 425.25 1033.00 429.00 Z"/>
</g>
<g fill="#511181" fill-opacity="1.00" stroke="None">
<path d="
M 955.00 418.00 
C 943.70 414.99 936.59 433.09 949.00 437.00 C 961.41 440.91 966.71 421.12 955.00 418.00 Z"/>
</g>
<g fill="#885CAA" fill-opacity="1.00" stroke="None">
<path d="
M 514.00 431.00 
C 519.79 430.08 528.50 432.23 534.00 431.00 C 539.50 429.77 549.18 433.82 553.00 430.00
C 547.61 431.00 537.97 428.67 533.00 430.00 C 528.03 431.33 516.80 427.00 514.00 431.00 Z"/>
</g>
<g fill="#E2CAE4" fill-opacity="1.00" stroke="None">
<path d="
M 316.00 454.00 
C 315.05 454.22 313.26 453.62 313.00 455.00
C 319.12 454.65 328.18 455.47 334.00 455.00 C 339.82 454.53 349.33 456.83 350.00 453.00
C 346.65 456.39 337.83 453.00 333.00 454.00 C 328.17 455.00 321.06 453.36 316.00 454.00 Z"/>
</g>
<g fill="#F7F9FD" fill-opacity="1.00" stroke="None">
<path d="
M 347.00 480.00 
C 360.85 482.09 366.28 457.13 351.00 456.00
C 351.35 466.32 348.83 478.50 340.30 484.29 C 331.78 490.07 325.68 488.94 315.23 483.77 C 304.78 478.60 310.18 460.75 297.00 463.00
C 297.82 477.87 287.52 489.55 274.02 488.98 C 260.52 488.40 251.09 472.40 251.00 459.00
C 247.07 459.85 246.27 467.88 242.00 465.00
C 241.14 472.47 247.18 481.62 256.00 480.00
C 258.67 500.64 276.94 518.42 300.00 519.00 C 323.06 519.58 343.95 503.02 347.00 480.00
M 306.00 482.00 
C 307.40 484.09 306.97 489.81 303.00 487.00
C 306.66 486.24 302.13 481.92 306.00 482.00
M 296.00 488.00 
C 292.33 481.64 302.19 483.94 296.00 488.00
M 311.00 501.00 
C 310.77 501.13 309.25 502.76 309.00 503.00
C 304.11 507.70 295.72 508.92 293.00 502.00
C 292.66 501.98 292.23 501.05 292.00 501.00
C 290.32 500.61 287.83 500.95 287.00 499.00
C 291.96 500.57 297.91 493.28 301.00 500.00
C 305.53 495.35 312.03 500.22 317.00 498.00
C 317.11 500.81 313.22 501.17 311.00 501.00 Z"/>
</g>
<g fill="#511181" fill-opacity="1.00" stroke="None">
<path d="
M 559.00 494.00 
C 558.71 498.20 558.71 502.80 559.00 507.00
C 559.39 544.18 616.27 558.46 636.00 529.00
C 631.05 527.19 628.43 521.78 624.00 519.00
C 620.18 524.28 614.04 527.92 608.00 530.00 C 601.96 532.08 590.44 527.53 586.08 524.92 C 581.72 522.30 573.85 512.69 577.00 508.00
C 579.91 503.67 592.37 508.32 598.00 507.00 C 603.63 505.68 613.41 507.66 620.00 507.00 C 626.59 506.34 636.14 507.50 643.00 507.00
C 646.35 502.22 641.33 493.67 641.33 488.67 C 641.33 483.68 637.68 477.80 634.92 473.08 C 632.15 468.37 628.88 465.64 623.70 462.30 C 618.51 458.96 615.88 459.06 608.07 457.93 C 600.26 456.80 598.18 456.91 588.69 458.69 C 579.21 460.48 568.17 468.78 563.78 477.78 C 559.38 486.77 559.60 485.19 559.00 494.00
M 624.00 492.00 
C 622.02 494.91 612.71 492.66 609.00 493.00 C 605.29 493.34 596.75 493.53 593.00 493.00 C 589.25 492.47 579.03 495.05 577.00 492.00
C 573.16 486.21 584.04 477.30 588.70 474.70 C 593.35 472.09 608.07 471.02 613.02 473.98 C 617.98 476.93 628.26 485.74 624.00 492.00 Z"/>
</g>
<g fill="#511181" fill-opacity="1.00" stroke="None">
<path d="
M 712.00 490.00 
C 709.00 492.10 701.81 489.15 698.00 490.00 C 694.19 490.85 688.04 489.83 684.00 490.00
C 666.52 490.72 652.06 505.72 658.01 524.99 C 663.96 544.26 690.86 549.74 707.00 539.00
C 708.91 537.50 709.97 533.72 713.00 534.00
C 709.49 545.78 723.00 541.18 730.00 542.00
C 727.34 519.15 737.59 480.80 720.25 464.75 C 702.91 448.71 677.75 457.57 664.00 472.00
C 669.15 475.00 675.04 486.34 680.25 478.25 C 685.46 470.16 695.60 473.09 702.78 472.22 C 709.96 471.36 717.08 486.44 712.00 490.00
M 712.00 518.00 
C 710.60 522.96 707.75 526.08 702.92 527.92 C 698.10 529.77 691.31 530.54 686.33 529.67 C 681.35 528.80 677.24 526.35 675.23 521.77 C 673.22 517.19 674.33 511.07 678.25 508.25 C 682.17 505.43 688.06 502.50 693.00 504.00 C 697.94 505.50 707.92 501.15 712.00 504.00
C 714.87 506.01 712.67 515.64 712.00 518.00 Z"/>
</g>
<g fill="#511181" fill-opacity="1.00" stroke="None">
<path d="
M 821.00 469.00 
C 792.40 443.51 746.31 462.92 746.00 500.00 C 745.69 537.08 794.86 561.38 822.00 531.00
C 816.65 529.40 814.30 522.44 809.00 521.00
C 790.74 543.70 761.76 521.54 763.22 498.22 C 764.68 474.90 792.56 461.56 811.00 481.00
C 812.62 475.93 819.89 474.52 821.00 469.00 Z"/>
</g>
<g fill="#E2CAE4" fill-opacity="1.00" stroke="None">
<path d="
M 943.00 459.00 
C 943.00 458.96 944.00 459.00 944.00 459.00
C 949.67 459.00 955.33 459.00 961.00 459.00
C 959.46 456.80 944.81 457.13 943.00 459.00 Z"/>
</g>
<g fill="#E2CAE4" fill-opacity="1.00" stroke="None">
<path d="
M 984.00 473.00 
C 984.00 468.33 984.00 463.67 984.00 459.00
C 986.70 458.14 992.20 460.57 994.00 458.00
C 984.63 451.29 978.09 468.86 984.00 473.00 Z"/>
</g>
<g fill="#E2CAE4" fill-opacity="1.00" stroke="None">
<path d="
M 1033.00 459.00 
C 1033.50 459.00 1034.00 459.00 1034.00 459.00
C 1029.79 454.62 1017.56 460.20 1012.00 458.00
C 1014.12 461.02 1029.09 459.00 1033.00 459.00 Z"/>
</g>
<g fill="#E2CAE4" fill-opacity="1.00" stroke="None">
<path d="
M 1041.00 460.00 
C 1044.98 459.56 1055.05 456.73 1059.00 460.00
C 1055.84 456.34 1041.11 457.03 1041.00 460.00 Z"/>
</g>
<g fill="#E2CAE4" fill-opacity="1.00" stroke="None">
<path d="
M 1104.00 459.00 
C 1109.26 457.74 1115.88 460.68 1121.00 459.00
C 1120.62 457.70 1106.73 456.71 1104.00 459.00 Z"/>
</g>
<g fill="#F0ADCC" fill-opacity="1.00" stroke="None">
<path d="
M 258.00 462.00 
C 260.15 457.57 269.80 460.70 273.00 461.00
C 275.19 461.21 277.81 461.21 280.00 461.00
C 283.27 460.69 288.02 459.15 292.00 460.00
C 289.67 456.68 278.24 459.60 274.00 459.00 C 269.76 458.40 259.47 457.42 258.00 462.00 Z"/>
</g>
<g fill="#F0ADCC" fill-opacity="1.00" stroke="None">
<path d="
M 311.00 460.00 
C 314.98 459.14 319.80 460.70 323.00 461.00
C 325.19 461.21 327.81 461.21 330.00 461.00
C 332.50 460.76 341.20 458.02 344.00 460.00
C 341.46 457.44 330.62 459.01 327.00 459.00 C 323.38 458.99 312.92 457.26 311.00 460.00 Z"/>
</g>
<g fill="#885CAA" fill-opacity="1.00" stroke="None">
<path d="
M 961.00 542.00 
C 955.33 542.00 949.67 542.00 944.00 542.00
C 944.00 514.33 944.00 486.67 944.00 459.00
C 944.00 459.00 943.00 458.96 943.00 459.00
C 943.00 487.00 943.00 515.00 943.00 543.00
C 947.08 541.14 958.26 545.91 961.00 542.00 Z"/>
</g>
<g fill="#511181" fill-opacity="1.00" stroke="None">
<path d="
M 961.00 542.00 
C 964.11 537.56 959.81 526.66 961.00 521.00 C 962.19 515.34 960.94 505.97 961.00 500.00 C 961.06 494.03 962.03 484.61 961.00 479.00 C 959.97 473.39 964.01 463.30 961.00 459.00
C 955.33 459.00 949.67 459.00 944.00 459.00
C 944.00 486.67 944.00 514.33 944.00 542.00
C 949.67 542.00 955.33 542.00 961.00 542.00 Z"/>
</g>
<g fill="#885CAA" fill-opacity="1.00" stroke="None">
<path d="
M 1033.00 473.00 
C 1035.25 471.43 1034.25 461.85 1034.00 459.00
C 1034.00 459.00 1033.50 459.00 1033.00 459.00
C 1032.58 463.63 1033.31 468.36 1033.00 473.00 Z"/>
</g>
<g fill="#511181" fill-opacity="1.00" stroke="None">
<path d="
M 1041.00 460.00 
C 1046.68 474.34 1052.63 487.28 1057.23 499.77 C 1061.83 512.26 1074.90 528.61 1068.93 541.93 C 1062.96 555.25 1057.43 578.28 1039.00 568.00
C 1036.71 573.12 1034.35 578.33 1034.00 584.00
C 1042.05 587.70 1051.64 590.07 1059.30 585.30 C 1066.97 580.53 1071.25 574.81 1075.08 567.08 C 1078.91 559.34 1083.11 552.00 1086.08 544.08 C 1089.05 536.16 1093.08 528.49 1095.69 520.69 C 1098.31 512.90 1103.22 506.76 1104.80 500.25 C 1106.39 493.73 1111.55 488.15 1112.61 481.75 C 1113.66 475.35 1122.98 465.75 1121.00 459.00
C 1115.88 460.68 1109.26 457.74 1104.00 459.00
C 1096.28 479.09 1088.46 494.40 1082.00 513.00
C 1076.32 505.40 1075.08 496.01 1070.39 488.75 C 1065.71 481.50 1065.36 467.37 1059.00 460.00
C 1055.05 456.73 1044.98 459.56 1041.00 460.00 Z"/>
</g>
<g fill="#F7F9FD" fill-opacity="1.00" stroke="None">
<path d="
M 258.00 462.00 
C 255.85 468.72 260.91 478.04 266.31 481.69 C 271.70 485.35 279.98 484.05 284.75 480.75 C 289.52 477.45 295.78 465.41 292.00 460.00
C 288.02 459.15 283.27 460.69 280.00 461.00
C 283.71 461.58 287.45 464.94 288.00 469.00
C 290.39 470.10 281.44 472.09 280.00 472.00
C 272.68 471.52 274.06 464.10 267.00 464.00
C 266.89 461.19 270.78 460.83 273.00 461.00
C 269.80 460.70 260.15 457.57 258.00 462.00 Z"/>
</g>
<g fill="#F7F9FD" fill-opacity="1.00" stroke="None">
<path d="
M 344.00 460.00 
C 341.20 458.02 332.50 460.76 330.00 461.00
C 331.90 461.26 335.24 461.22 335.00 464.00
C 328.43 463.25 330.48 469.49 326.00 471.00
C 324.04 471.96 318.42 472.20 316.00 471.00
C 315.17 470.59 314.13 470.03 314.00 469.00
C 315.00 468.89 316.73 469.47 317.00 468.00
C 318.28 465.16 317.29 461.89 323.00 461.00
C 319.80 460.70 314.98 459.14 311.00 460.00
C 307.03 465.68 313.68 477.76 318.77 481.23 C 323.86 484.70 333.16 484.21 337.75 480.75 C 342.34 477.30 348.90 464.95 344.00 460.00 Z"/>
</g>
<g fill="#EC80B1" fill-opacity="1.00" stroke="None">
<path d="
M 280.00 472.00 
C 280.60 470.16 281.55 469.09 283.00 468.00
C 285.51 466.11 283.96 467.85 287.00 470.00
C 287.35 469.93 288.04 469.31 288.00 469.00
C 287.45 464.94 283.71 461.58 280.00 461.00
C 277.81 461.21 275.19 461.21 273.00 461.00
C 270.78 460.83 266.89 461.19 267.00 464.00
C 274.06 464.10 272.68 471.52 280.00 472.00 Z"/>
</g>
<g fill="#EA5898" fill-opacity="1.00" stroke="None">
<path d="
M 317.00 468.00 
C 317.71 467.49 318.46 466.38 319.00 466.00
C 321.87 464.00 320.83 469.00 322.00 471.00
C 323.33 471.00 324.67 471.00 326.00 471.00
C 330.48 469.49 328.43 463.25 335.00 464.00
C 335.24 461.22 331.90 461.26 330.00 461.00
C 327.81 461.21 325.19 461.21 323.00 461.00
C 317.29 461.89 318.28 465.16 317.00 468.00 Z"/>
</g>
<g fill="#F0ADCC" fill-opacity="1.00" stroke="None">
<path d="
M 319.00 466.00 
C 320.35 466.73 319.96 468.83 321.00 470.00
C 319.43 470.39 316.78 469.06 316.00 471.00
C 318.42 472.20 324.04 471.96 326.00 471.00
C 324.67 471.00 323.33 471.00 322.00 471.00
C 320.83 469.00 321.87 464.00 319.00 466.00 Z"/>
</g>
<g fill="#F7F9FD" fill-opacity="1.00" stroke="None">
<path d="
M 283.00 468.00 
C 282.75 470.29 283.83 470.65 287.00 470.00
C 283.96 467.85 285.51 466.11 283.00 468.00 Z"/>
</g>
<g fill="#E2CAE4" fill-opacity="1.00" stroke="None">
<path d="
M 317.00 468.00 
C 316.73 469.47 315.00 468.89 314.00 469.00
C 314.13 470.03 315.17 470.59 316.00 471.00
C 316.78 469.06 319.43 470.39 321.00 470.00
C 319.96 468.83 320.35 466.73 319.00 466.00
C 318.46 466.38 317.71 467.49 317.00 468.00 Z"/>
</g>
<g fill="#F0ADCC" fill-opacity="1.00" stroke="None">
<path d="
M 280.00 472.00 
C 281.44 472.09 290.39 470.10 288.00 469.00
C 288.04 469.31 287.35 469.93 287.00 470.00
C 283.83 470.65 282.75 470.29 283.00 468.00
C 281.55 469.09 280.60 470.16 280.00 472.00 Z"/>
</g>
<g fill="#F7F9FD" fill-opacity="1.00" stroke="None">
<path d="
M 577.00 492.00 
C 592.67 492.00 608.33 492.00 624.00 492.00
C 628.26 485.74 617.98 476.93 613.02 473.98 C 608.07 471.02 593.35 472.09 588.70 474.70 C 584.04 477.30 573.16 486.21 577.00 492.00 Z"/>
</g>
<g fill="#885CAA" fill-opacity="1.00" stroke="None">
<path d="
M 994.00 542.00 
C 995.68 544.41 1012.89 545.48 1012.00 539.00 C 1011.11 532.52 1012.42 523.93 1012.00 517.00 C 1011.58 510.07 1012.22 502.13 1012.00 495.00 C 1011.78 487.87 1012.16 480.18 1012.00 473.00
C 1009.67 495.01 1011.67 519.16 1011.00 542.00
C 1005.33 542.00 999.67 542.00 994.00 542.00 Z"/>
</g>
<g fill="#EC80B1" fill-opacity="1.00" stroke="None">
<path d="
M 306.00 482.00 
C 302.13 481.92 306.66 486.24 303.00 487.00
C 306.97 489.81 307.40 484.09 306.00 482.00 Z"/>
</g>
<g fill="#EC80B1" fill-opacity="1.00" stroke="None">
<path d="
M 296.00 488.00 
C 302.19 483.94 292.33 481.64 296.00 488.00 Z"/>
</g>
<g fill="#E2CAE4" fill-opacity="1.00" stroke="None">
<path d="
M 684.00 490.00 
C 688.04 489.83 694.19 490.85 698.00 490.00 C 701.81 489.15 709.00 492.10 712.00 490.00
C 703.77 488.06 692.31 488.70 684.00 490.00 Z"/>
</g>
<g fill="#E2CAE4" fill-opacity="1.00" stroke="None">
<path d="
M 624.00 492.00 
C 608.33 492.00 592.67 492.00 577.00 492.00
C 579.03 495.05 589.25 492.47 593.00 493.00 C 596.75 493.53 605.29 493.34 609.00 493.00 C 612.71 492.66 622.02 494.91 624.00 492.00 Z"/>
</g>
<g fill="#E2CAE4" fill-opacity="1.00" stroke="None">
<path d="
M 858.00 542.00 
C 858.00 542.50 858.00 543.00 858.00 543.00
C 862.94 538.25 856.99 523.82 859.00 517.00 C 861.01 510.18 857.69 498.37 858.00 492.00
C 855.63 507.84 857.95 525.96 858.00 542.00 Z"/>
</g>
<g fill="#AF96C7" fill-opacity="1.00" stroke="None">
<path d="
M 559.00 507.00 
C 558.71 502.80 558.71 498.20 559.00 494.00
C 558.24 498.27 558.22 502.67 559.00 507.00 Z"/>
</g>
<g fill="#885CAA" fill-opacity="1.00" stroke="None">
<path d="
M 901.00 542.00 
C 902.64 544.35 919.88 545.60 919.00 539.00 C 918.12 532.40 919.45 523.00 919.00 516.00 C 918.55 509.00 919.27 501.08 919.00 494.00
C 916.67 509.01 918.67 526.17 918.00 542.00
C 912.33 542.00 906.67 542.00 901.00 542.00 Z"/>
</g>
<g fill="#EC80B1" fill-opacity="1.00" stroke="None">
<path d="
M 292.00 501.00 
C 297.82 501.75 305.15 501.53 311.00 501.00
C 313.22 501.17 317.11 500.81 317.00 498.00
C 312.03 500.22 305.53 495.35 301.00 500.00
C 297.91 493.28 291.96 500.57 287.00 499.00
C 287.83 500.95 290.32 500.61 292.00 501.00 Z"/>
</g>
<g fill="#E2CAE4" fill-opacity="1.00" stroke="None">
<path d="
M 293.00 502.00 
C 297.59 502.29 305.33 503.72 309.00 503.00
C 309.25 502.76 310.77 501.13 311.00 501.00
C 305.15 501.53 297.82 501.75 292.00 501.00
C 292.23 501.05 292.66 501.98 293.00 502.00 Z"/>
</g>
<g fill="#EC80B1" fill-opacity="1.00" stroke="None">
<path d="
M 309.00 503.00 
C 305.33 503.72 297.59 502.29 293.00 502.00
C 295.72 508.92 304.11 507.70 309.00 503.00 Z"/>
</g>
<g fill="#F7F9FD" fill-opacity="1.00" stroke="None">
<path d="
M 712.00 518.00 
C 712.70 513.44 711.48 508.59 712.00 504.00
C 707.92 501.15 697.94 505.50 693.00 504.00 C 688.06 502.50 682.17 505.43 678.25 508.25 C 674.33 511.07 673.22 517.19 675.23 521.77 C 677.24 526.35 681.35 528.80 686.33 529.67 C 691.31 530.54 698.10 529.77 702.92 527.92 C 707.75 526.08 710.60 522.96 712.00 518.00 Z"/>
</g>
<g fill="#885CAA" fill-opacity="1.00" stroke="None">
<path d="
M 712.00 518.00 
C 712.67 515.64 714.87 506.01 712.00 504.00
C 711.48 508.59 712.70 513.44 712.00 518.00 Z"/>
</g>
<g fill="#E2CAE4" fill-opacity="1.00" stroke="None">
<path d="
M 577.00 508.00 
C 583.88 507.50 593.38 508.66 600.00 508.00 C 606.62 507.34 616.31 509.32 622.00 508.00 C 627.69 506.68 639.96 511.34 643.00 507.00
C 636.14 507.50 626.59 506.34 620.00 507.00 C 613.41 507.66 603.63 505.68 598.00 507.00 C 592.37 508.32 579.91 503.67 577.00 508.00 Z"/>
</g>
<g fill="#EC80B1" fill-opacity="1.00" stroke="None">
<path d="
M 318.00 520.00 
C 318.75 523.11 319.95 528.55 320.00 532.00
C 320.28 529.33 321.11 520.23 318.00 520.00 Z"/>
</g>
<g fill="#F7F9FD" fill-opacity="1.00" stroke="None">
<path d="
M 320.00 532.00 
C 319.95 528.55 318.75 523.11 318.00 520.00
C 307.90 524.11 294.48 524.22 284.00 520.00
C 285.46 533.12 279.42 549.98 295.78 555.22 C 312.14 560.46 318.50 546.04 320.00 532.00 Z"/>
</g>
<g fill="#F0ADCC" fill-opacity="1.00" stroke="None">
<path d="
M 339.00 549.00 
C 339.00 544.62 340.22 537.47 338.00 534.00
C 339.34 537.10 338.71 545.96 339.00 549.00 Z"/>
</g>
<g fill="#885CAA" fill-opacity="1.00" stroke="None">
<path d="
M 707.00 539.00 
C 708.68 538.25 710.04 536.57 711.00 535.00
C 713.19 536.70 711.44 540.48 712.00 543.00
C 716.08 541.14 727.26 545.91 730.00 542.00
C 723.00 541.18 709.49 545.78 713.00 534.00
C 709.97 533.72 708.91 537.50 707.00 539.00 Z"/>
</g>
<g fill="#885CAA" fill-opacity="1.00" stroke="None">
<path d="
M 514.00 542.00 
C 507.67 542.00 501.33 542.00 495.00 542.00
C 496.41 544.01 512.54 544.08 514.00 542.00 Z"/>
</g>
<g fill="#885CAA" fill-opacity="1.00" stroke="None">
<path d="
M 841.00 543.00 
C 846.36 543.48 852.64 543.48 858.00 543.00
C 858.00 543.00 858.00 542.50 858.00 542.00
C 852.64 541.52 846.36 541.51 841.00 542.00
C 841.00 542.00 840.96 543.00 841.00 543.00 Z"/>
</g>
<g fill="#EA5898" fill-opacity="1.00" stroke="None">
<path d="
M 198.00 626.00 
C 204.29 625.32 211.49 626.47 217.00 627.00
C 235.05 627.00 256.15 626.92 272.98 632.02 C 289.80 637.13 305.92 641.26 322.78 634.78 C 339.64 628.29 357.03 627.00 375.00 627.00
C 379.06 626.61 384.26 626.00 389.00 626.00
C 394.50 626.00 401.33 626.83 406.00 625.00
C 399.00 620.11 397.48 613.37 390.00 609.00
C 392.37 600.40 393.38 593.13 394.00 584.00
C 366.03 586.00 342.07 588.91 319.00 596.00
C 339.90 580.51 370.41 583.43 398.00 583.00
C 396.47 576.70 390.65 572.22 389.00 566.00
C 394.05 567.43 393.06 562.23 393.00 559.00
C 374.41 558.55 353.93 560.79 338.74 564.74 C 323.56 568.70 309.91 578.77 301.00 590.00
C 298.87 584.58 295.13 580.17 290.23 576.77 C 285.33 573.37 280.62 571.17 275.08 568.92 C 269.54 566.67 266.84 564.86 260.67 563.33 C 254.50 561.80 250.19 561.32 243.00 560.00 C 235.81 558.68 227.45 561.40 220.00 559.00 C 212.55 556.60 205.77 567.44 216.00 566.00
C 213.47 572.20 208.99 576.19 206.00 583.00
C 235.71 582.13 266.43 583.17 286.00 595.00
C 263.35 590.89 238.35 584.63 210.00 584.00
C 210.12 593.44 213.12 600.07 214.00 609.00
C 208.41 613.41 203.21 619.50 198.00 626.00
M 244.00 577.00 
C 240.34 576.93 236.66 577.00 233.00 577.00
C 228.17 577.00 222.01 577.83 218.00 576.00
C 220.05 573.09 221.94 570.36 223.00 567.00
C 248.71 568.29 278.64 571.42 295.00 593.00
C 279.80 583.67 262.51 577.21 244.00 577.00
M 385.00 574.00 
C 385.42 574.87 387.91 575.24 387.00 577.00
C 380.84 576.34 373.34 578.32 368.00 576.00
C 346.32 576.43 325.78 582.10 308.00 594.00
C 324.12 572.20 354.95 568.44 381.00 567.00
C 381.31 569.73 383.84 571.59 385.00 574.00
M 282.00 602.00 
C 284.63 603.25 285.56 626.11 283.00 627.00
C 276.36 629.32 269.08 623.03 261.93 623.07 C 254.77 623.12 245.64 621.21 238.00 621.00 C 230.36 620.79 221.11 619.08 213.00 620.00
C 213.94 616.90 219.95 615.34 218.00 612.00
C 221.00 612.00 224.00 612.00 227.00 612.00
C 228.99 612.00 231.01 612.09 233.00 612.00
C 228.64 611.44 218.22 610.29 220.00 603.00
C 228.03 601.83 236.71 606.08 244.00 603.00
C 235.82 599.27 218.69 603.76 218.00 592.00
C 240.01 592.66 261.21 596.51 282.00 602.00
M 367.00 602.00 
C 367.69 602.08 370.37 603.93 371.00 604.00
C 375.10 603.64 379.56 602.23 384.00 603.00
C 386.05 611.54 375.54 608.49 371.00 611.00
C 378.40 612.31 388.05 611.03 392.00 620.00
C 367.71 620.03 343.63 622.23 321.00 628.00
C 321.00 619.33 321.00 610.67 321.00 602.00
C 342.19 596.93 363.61 592.47 386.00 592.00
C 387.86 602.77 373.13 598.53 367.00 602.00
M 307.00 608.00 
C 303.42 609.07 299.54 609.33 296.00 608.00
C 294.41 607.40 291.77 607.19 292.00 605.00
C 298.50 607.59 305.40 606.81 312.00 605.00
C 312.44 608.01 308.42 606.36 307.00 608.00
M 312.00 614.00 
C 308.19 619.76 298.23 617.05 292.00 616.00
C 297.67 614.58 305.97 617.74 312.00 614.00
M 312.00 625.00 
C 306.33 627.73 297.62 627.76 292.00 625.00
C 297.32 625.06 306.75 624.48 312.00 625.00 Z"/>
</g>
<g fill="#F7F9FD" fill-opacity="1.00" stroke="None">
<path d="
M 218.00 576.00 
C 223.00 576.00 228.00 576.00 233.00 576.00
C 236.80 576.00 240.93 576.63 244.00 577.00
C 262.51 577.21 279.80 583.67 295.00 593.00
C 278.64 571.42 248.71 568.29 223.00 567.00
C 221.94 570.36 220.05 573.09 218.00 576.00 Z"/>
</g>
<g fill="#F7F9FD" fill-opacity="1.00" stroke="None">
<path d="
M 368.00 576.00 
C 372.23 575.92 385.28 577.66 385.00 574.00
C 383.84 571.59 381.31 569.73 381.00 567.00
C 354.95 568.44 324.12 572.20 308.00 594.00
C 325.78 582.10 346.32 576.43 368.00 576.00 Z"/>
</g>
<g fill="#F0ADCC" fill-opacity="1.00" stroke="None">
<path d="
M 368.00 576.00 
C 373.34 578.32 380.84 576.34 387.00 577.00
C 387.91 575.24 385.42 574.87 385.00 574.00
C 385.28 577.66 372.23 575.92 368.00 576.00 Z"/>
</g>
<g fill="#F0ADCC" fill-opacity="1.00" stroke="None">
<path d="
M 233.00 577.00 
C 232.96 577.00 233.00 576.00 233.00 576.00
C 228.00 576.00 223.00 576.00 218.00 576.00
C 222.01 577.83 228.17 577.00 233.00 577.00 Z"/>
</g>
<g fill="#E2CAE4" fill-opacity="1.00" stroke="None">
<path d="
M 233.00 577.00 
C 236.66 577.00 240.34 576.93 244.00 577.00
C 240.93 576.63 236.80 576.00 233.00 576.00
C 233.00 576.00 232.96 577.00 233.00 577.00 Z"/>
</g>
<g fill="#F7F9FD" fill-opacity="1.00" stroke="None">
<path d="
M 233.00 612.00 
C 234.91 611.91 236.16 611.33 238.00 611.00
C 236.13 614.29 229.53 613.47 227.00 612.00
C 224.00 612.00 221.00 612.00 218.00 612.00
C 219.95 615.34 213.94 616.90 213.00 620.00
C 221.11 619.08 230.36 620.79 238.00 621.00 C 245.64 621.21 254.77 623.12 261.93 623.07 C 269.08 623.03 276.36 629.32 283.00 627.00
C 280.91 620.61 286.62 606.85 282.00 602.00
C 261.21 596.51 240.01 592.66 218.00 592.00
C 218.69 603.76 235.82 599.27 244.00 603.00
C 236.71 606.08 228.03 601.83 220.00 603.00
C 218.22 610.29 228.64 611.44 233.00 612.00 Z"/>
</g>
<g fill="#F7F9FD" fill-opacity="1.00" stroke="None">
<path d="
M 371.00 604.00 
C 367.69 604.29 364.31 603.78 361.00 604.00
C 362.26 602.20 364.80 601.78 367.00 602.00
C 373.13 598.53 387.86 602.77 386.00 592.00
C 363.61 592.47 342.19 596.93 321.00 602.00
C 321.00 610.67 321.00 619.33 321.00 628.00
C 343.63 622.23 367.71 620.03 392.00 620.00
C 388.05 611.03 378.40 612.31 371.00 611.00
C 375.54 608.49 386.05 611.54 384.00 603.00
C 379.56 602.23 375.10 603.64 371.00 604.00 Z"/>
</g>
<g fill="#EC80B1" fill-opacity="1.00" stroke="None">
<path d="
M 282.00 602.00 
C 286.62 606.85 280.91 620.61 283.00 627.00
C 285.56 626.11 284.63 603.25 282.00 602.00 Z"/>
</g>
<g fill="#EC80B1" fill-opacity="1.00" stroke="None">
<path d="
M 371.00 604.00 
C 370.37 603.93 367.69 602.08 367.00 602.00
C 364.80 601.78 362.26 602.20 361.00 604.00
C 364.31 603.78 367.69 604.29 371.00 604.00 Z"/>
</g>
<g fill="#F7F9FD" fill-opacity="1.00" stroke="None">
<path d="
M 296.00 608.00 
C 298.89 608.64 304.08 608.48 307.00 608.00
C 308.42 606.36 312.44 608.01 312.00 605.00
C 305.40 606.81 298.50 607.59 292.00 605.00
C 291.77 607.19 294.41 607.40 296.00 608.00 Z"/>
</g>
<g fill="#F0ADCC" fill-opacity="1.00" stroke="None">
<path d="
M 307.00 608.00 
C 304.08 608.48 298.89 608.64 296.00 608.00
C 299.54 609.33 303.42 609.07 307.00 608.00 Z"/>
</g>
<g fill="#E2CAE4" fill-opacity="1.00" stroke="None">
<path d="
M 233.00 612.00 
C 231.01 612.09 228.99 612.00 227.00 612.00
C 229.53 613.47 236.13 614.29 238.00 611.00
C 236.16 611.33 234.91 611.91 233.00 612.00 Z"/>
</g>
<g fill="#F7F9FD" fill-opacity="1.00" stroke="None">
<path d="
M 312.00 614.00 
C 305.97 617.74 297.67 614.58 292.00 616.00
C 298.23 617.05 308.19 619.76 312.00 614.00 Z"/>
</g>
<g fill="#F7F9FD" fill-opacity="1.00" stroke="None">
<path d="
M 312.00 625.00 
C 306.75 624.48 297.32 625.06 292.00 625.00
C 297.62 627.76 306.33 627.73 312.00 625.00 Z"/>
</g>
<g fill="#E2CAE4" fill-opacity="1.00" stroke="None">
<path d="
M 389.00 626.00 
C 389.04 626.00 389.00 627.00 389.00 627.00
C 392.37 627.00 406.87 628.23 406.00 625.00
C 401.33 626.83 394.50 626.00 389.00 626.00 Z"/>
</g>
<g fill="#E2CAE4" fill-opacity="1.00" stroke="None">
<path d="
M 217.00 627.00 
C 211.49 626.47 204.29 625.32 198.00 626.00
C 203.34 627.83 210.84 627.00 217.00 627.00 Z"/>
</g>
<g fill="#F0ADCC" fill-opacity="1.00" stroke="None">
<path d="
M 375.00 627.00 
C 379.67 627.00 384.33 627.00 389.00 627.00
C 389.00 627.00 389.04 626.00 389.00 626.00
C 384.26 626.00 379.06 626.61 375.00 627.00 Z"/>
</g>
</svg>