<svg version="1.1" id="Layer_1" xmlns="http://www.w3.org/2000/svg" xmlns:xlink="http://www.w3.org/1999/xlink" x="0px" y="0px"
	 width="100%" viewBox="0 0 1024 1024" enable-background="new 0 0 1024 1024" xml:space="preserve">
<path fill="#000000" opacity="1.000000" stroke="none" 
	d="
M662.085083,343.897614 
	C685.404358,363.815521 703.279663,387.328522 714.969055,415.402161 
	C716.759766,419.702637 718.715149,423.954773 720.168152,428.369537 
	C721.449951,432.263947 723.591187,433.982880 727.810242,433.865112 
	C734.466553,433.679260 741.137451,433.965637 747.801025,434.105072 
	C754.604370,434.247437 755.306030,434.767517 754.844421,441.722443 
	C754.126221,452.546356 754.348938,463.373901 754.215454,474.199738 
	C754.136536,480.602722 755.862915,482.046356 762.300110,481.610962 
	C775.961487,480.687012 783.742676,472.777832 782.839600,459.865540 
	C782.526733,455.392700 782.862000,450.870758 782.975952,446.373138 
	C783.055054,443.250519 782.073242,441.594971 778.530884,441.172455 
	C769.528625,440.098785 769.350403,438.485413 767.848816,429.720306 
	C767.025574,424.915497 767.885742,419.537048 764.781006,415.002930 
	C763.237000,412.748138 763.307251,409.510162 764.927612,407.351807 
	C767.819458,403.500000 766.578186,399.379364 766.602234,395.326294 
	C766.619080,392.483093 764.162659,391.555054 762.197266,390.383087 
	C738.511353,376.259277 731.139404,344.671112 746.326782,321.943420 
	C761.234619,299.634216 795.009766,292.256714 817.166321,312.334534 
	C828.154785,322.292114 835.450745,334.116669 834.836243,348.846252 
	C834.152527,365.236511 828.302368,380.055756 812.934082,388.601440 
	C806.667358,392.086090 804.575928,396.588196 805.296265,403.195038 
	C805.461060,404.706390 805.535156,406.138123 806.581055,407.385529 
	C808.972534,410.237427 808.871460,413.121887 806.530518,415.982788 
	C805.765137,416.918091 805.230225,417.989166 805.690796,419.213165 
	C807.576233,424.224274 805.028442,429.038422 804.984436,433.982727 
	C804.948975,437.953644 801.838318,440.116852 798.013245,440.654938 
	C793.406067,441.303040 792.167114,443.954620 792.237732,448.300140 
	C792.358948,455.766846 792.818420,463.277557 790.472229,470.607117 
	C787.014099,481.410278 778.374084,488.102356 767.133728,488.369415 
	C765.634949,488.405029 764.131958,488.414459 762.639343,488.537781 
	C754.346924,489.223083 754.347778,489.233826 754.106567,497.627930 
	C753.877563,505.595093 754.033691,505.800995 761.977478,505.804016 
	C773.308960,505.808350 784.670166,505.204529 795.964966,505.830292 
	C813.000732,506.774109 824.416992,495.297058 824.618835,477.296082 
	C824.803833,460.799438 824.911743,444.296021 824.624817,427.803040 
	C824.510925,421.257690 827.090942,414.657227 824.023132,408.086578 
	C823.007935,405.912140 825.093994,404.077454 826.893372,402.759552 
	C828.674805,401.454773 830.646240,401.308197 832.513733,402.485901 
	C834.328125,403.630157 835.769104,405.551697 834.857971,407.530701 
	C832.445801,412.770050 834.207458,418.013672 834.157837,423.262482 
	C833.970154,443.084076 834.585510,462.912720 833.319214,482.726318 
	C832.230469,499.761932 818.233276,513.780090 801.072998,514.187378 
	C787.580872,514.507629 774.077332,514.320984 760.579529,514.437805 
	C754.204407,514.492981 752.823242,516.065430 753.854736,522.327209 
	C754.363892,525.418091 753.610596,528.655396 755.044373,532.013000 
	C770.805115,530.305603 786.563416,530.710083 802.995667,530.996887 
	C801.412537,535.745361 798.502319,536.032959 796.029968,535.975586 
	C783.268127,535.679443 770.401672,537.983215 757.758423,534.607361 
	C755.364441,533.968140 754.341370,534.894531 754.182800,537.262085 
	C753.738281,543.898315 752.997253,550.525391 752.853821,557.166443 
	C752.784790,560.362183 755.480835,561.701477 758.392273,561.515625 
	C764.107971,561.150818 768.518555,557.087524 769.725098,551.131042 
	C770.214050,548.717346 771.594971,547.881836 773.767212,547.460632 
	C778.734802,546.497498 783.722778,546.722900 788.711304,547.026001 
	C791.635803,547.203796 793.155029,548.747925 793.327026,551.820740 
	C793.672424,557.991028 799.021667,559.576355 803.256470,561.901855 
	C806.703796,563.794983 808.756226,560.747620 810.798767,558.662537 
	C812.758911,556.661682 814.575806,556.708862 816.331482,558.697205 
	C819.967468,562.815125 823.574890,566.961243 827.083008,571.187927 
	C828.823547,573.285034 828.788696,575.293701 826.482666,577.237854 
	C824.243103,579.126038 822.580811,581.450867 823.968140,584.663147 
	C825.464111,588.126831 827.893005,590.325623 831.829895,590.702881 
	C839.007996,591.390564 839.211975,591.646301 838.930359,598.801331 
	C838.838806,601.129333 838.515991,603.447876 838.408752,605.775818 
	C838.041626,613.743774 838.060242,613.744629 830.115906,615.270935 
	C824.976990,616.258240 821.848083,623.361755 825.296387,627.273254 
	C828.983398,631.455505 828.264526,634.438232 824.374084,637.660706 
	C822.589355,639.139038 821.196350,641.084351 819.444946,642.610474 
	C817.325928,644.456848 816.282410,647.716736 813.358521,648.322693 
	C810.327026,648.950867 809.164001,645.473450 806.824341,644.307739 
	C802.903687,642.354370 794.270142,646.941833 794.010498,652.098877 
	C793.673950,658.782776 789.793823,659.409851 784.772156,659.338745 
	C782.939758,659.312805 781.106201,659.375793 779.273193,659.377441 
	C770.745056,659.385315 770.744995,659.382629 768.699280,651.067139 
	C767.727966,647.119202 758.742188,641.974609 754.861511,643.941101 
	C750.164368,646.321228 747.068237,644.811523 743.725952,641.768311 
	C739.013367,637.477417 734.648376,633.625122 738.993469,626.169983 
	C741.342896,622.138794 737.231323,616.221252 732.494141,615.170959 
	C723.866028,613.258057 723.864685,613.257996 723.840454,604.345093 
	C723.835876,602.678589 723.965271,601.002136 723.826965,599.347534 
	C723.466553,595.036743 724.469849,592.490723 729.686646,592.434265 
	C734.863464,592.378296 738.201721,589.033447 739.663391,584.046814 
	C740.141541,582.415405 740.439880,580.358582 739.103638,579.290588 
	C733.435852,574.760742 737.274170,570.921997 739.689148,566.893188 
	C740.683777,565.233765 742.508301,564.036072 742.666931,561.106079 
	C736.172241,561.106079 729.769592,561.017151 723.371704,561.154541 
	C721.142090,561.202332 720.734619,563.338257 719.970886,565.002014 
	C707.857056,591.389587 692.274109,615.495789 672.214661,636.551453 
	C667.290222,641.720459 661.743530,646.331543 656.221802,650.882324 
	C653.281921,653.305176 651.577087,655.990356 651.617493,659.780762 
	C651.752258,672.417664 651.878845,685.054749 652.010315,697.691711 
	C652.012085,697.857727 651.971497,698.074707 652.057617,698.182129 
	C657.378418,704.817505 652.418457,711.029968 651.256958,717.389221 
	C650.922485,719.220337 650.427002,721.265991 648.160278,721.347534 
	C645.611877,721.439209 645.702454,719.031128 645.242981,717.364868 
	C644.625549,715.125916 644.371521,712.803284 643.182922,710.717163 
	C641.125977,707.106995 640.373962,703.600464 644.135132,700.424866 
	C645.305115,699.437073 645.843079,697.838440 645.541321,696.305542 
	C643.619019,686.540405 645.486694,676.686707 644.768616,666.898621 
	C644.649231,665.271912 644.961548,663.558289 643.872192,662.057312 
	C641.332092,661.176392 639.741699,663.064331 638.044495,664.148987 
	C613.765381,679.666077 587.665955,690.582581 559.194153,695.539673 
	C532.359131,700.211914 505.600677,700.450073 478.815125,694.790710 
	C428.917114,684.248230 387.392853,659.739746 354.996002,620.357788 
	C342.925873,605.685181 332.439758,589.795105 324.919495,572.170898 
	C324.462311,571.099426 323.957245,570.030945 323.659180,568.911865 
	C321.167877,559.558228 321.934113,560.079651 311.264832,560.227356 
	C304.112152,560.326355 296.957825,560.725281 289.818420,561.202026 
	C285.697449,561.477356 284.014435,559.707336 284.044983,555.728882 
	C284.073120,552.064758 283.775848,548.395813 283.865814,544.734985 
	C283.951050,541.265991 282.417694,540.265015 279.054962,540.101196 
	C270.690033,539.693665 262.474243,541.508606 254.142151,541.366821 
	C250.092133,541.297913 246.362747,540.339478 242.371414,538.163147 
	C246.846542,534.044067 251.894577,533.031738 257.232330,533.002319 
	C264.397522,532.962830 271.567078,532.947327 278.727753,533.158691 
	C282.515320,533.270508 284.322632,531.706421 284.423920,527.992249 
	C284.455688,526.827271 284.583527,525.663574 284.583313,524.499329 
	C284.581848,516.026550 283.883270,515.434753 275.555084,515.298889 
	C263.739166,515.106323 251.886917,516.128296 240.113297,514.424561 
	C222.863663,511.928375 211.236008,499.789795 209.813538,482.331635 
	C207.875565,458.546722 209.092712,434.699493 208.789734,410.881226 
	C208.746078,407.450348 210.222733,405.458618 213.747528,405.402740 
	C217.594467,405.341736 218.247101,407.727203 218.238708,411.036560 
	C218.183823,432.700867 218.199677,454.365723 218.306396,476.029877 
	C218.404419,495.925171 228.979630,506.455414 249.023132,506.708527 
	C258.854309,506.832703 268.690308,506.686005 278.517975,506.920135 
	C282.312653,507.010559 283.859680,505.881805 283.922302,501.865082 
	C284.113922,489.565430 284.251099,489.600586 271.844269,489.304871 
	C269.192230,489.241699 266.514618,489.031586 263.906555,488.565643 
	C254.187790,486.829498 249.026428,480.899384 248.636322,471.160248 
	C248.469193,466.987671 248.744400,462.788849 243.257187,461.349915 
	C241.170197,460.802673 240.732605,458.489319 240.675156,456.356781 
	C240.298721,442.384857 239.077728,428.426300 240.638138,414.437439 
	C241.481613,406.875732 246.909195,401.585236 254.026077,401.761810 
	C257.707581,401.853149 260.390533,403.432922 262.325043,406.453827 
	C265.000153,410.631256 266.699738,415.183411 266.122620,420.162720 
	C264.754913,431.963440 265.439667,443.794281 265.408630,455.608185 
	C265.398804,459.347626 264.569153,461.637421 260.610718,462.245880 
	C256.796356,462.832214 255.903336,465.292633 256.559723,468.832611 
	C258.177582,477.558105 262.949524,481.673645 271.987427,481.937592 
	C283.626923,482.277496 283.579193,482.277313 283.625671,470.827698 
	C283.664856,461.162781 283.754395,451.496674 283.968964,441.834351 
	C284.117218,435.157562 284.656006,434.709320 291.151184,434.673798 
	C297.983734,434.636414 304.823334,434.468628 311.646973,434.714874 
	C316.477173,434.889130 319.272461,433.196991 321.001495,428.462341 
	C327.134857,411.667053 334.811798,395.596497 345.447571,381.124359 
	C365.642975,353.644318 389.714813,330.518188 420.577881,315.192932 
	C423.471619,313.756012 424.917358,312.025360 424.730499,308.667847 
	C424.480835,304.182190 424.806335,299.665741 424.593811,295.176331 
	C424.420929,291.523987 426.203583,290.051971 429.520477,289.708771 
	C431.008636,289.554810 432.484955,289.035828 433.961395,289.056641 
	C456.900574,289.379944 479.996246,284.551147 502.703705,289.145294 
	C514.785217,291.589630 526.015076,292.193054 537.858459,288.882996 
	C546.566711,286.449249 555.767090,287.335114 564.720825,287.917450 
	C576.545776,288.686462 588.364258,288.597412 600.190369,288.684845 
	C601.855530,288.697144 603.531067,288.697052 605.182983,288.875793 
	C612.957458,289.716949 614.137817,290.309387 613.180969,298.130341 
	C611.887085,308.706329 615.507202,314.740875 625.370728,319.245361 
	C638.704651,325.334747 650.448608,334.348053 662.085083,343.897614 
M585.187805,565.336975 
	C573.382019,556.654175 561.631592,547.894531 549.743164,539.326416 
	C545.005005,535.911560 540.370178,532.414612 536.103455,528.420837 
	C533.985291,526.438293 533.824951,524.772400 535.919373,522.530212 
	C540.088013,518.067505 541.541260,517.717834 546.235535,521.822327 
	C552.397522,527.210144 558.825195,532.223145 565.812500,536.467102 
	C567.025391,537.203796 568.821533,539.252563 570.128174,537.610352 
	C572.247498,534.946716 573.874756,536.544556 575.724426,537.487183 
	C588.090210,543.789307 598.398193,553.189087 610.153137,560.419128 
	C611.714600,561.379517 612.910767,562.972473 611.987061,565.108032 
	C610.311890,568.981140 612.466553,571.394836 615.134949,573.679688 
	C618.335876,576.420471 622.016846,578.363281 625.782288,580.150757 
	C630.724060,582.496582 635.364868,581.900269 638.413574,577.915894 
	C641.258728,574.197632 641.288818,570.066528 638.794739,565.829224 
	C635.925110,560.954041 631.885010,557.315186 627.454041,554.022766 
	C598.043213,532.169373 568.340637,510.720612 538.274231,489.776306 
	C535.896667,488.120087 533.402100,486.575592 530.519653,486.640320 
	C519.555481,486.886505 508.683868,487.050629 498.664459,492.982147 
	C487.559692,499.556213 475.834808,504.867218 462.316528,503.251129 
	C452.683899,502.099548 445.344238,497.420105 441.263733,488.485077 
	C436.626648,478.331360 437.969788,470.851624 445.712616,465.895569 
	C454.395782,460.337646 462.617737,454.036499 471.981140,449.520050 
	C475.077209,448.026642 478.571991,446.823425 481.326019,443.700592 
	C477.432343,442.886993 474.378082,444.022491 471.385712,444.776947 
	C456.857300,448.439941 442.458618,452.648987 427.860382,455.994476 
	C412.782257,459.449921 397.360229,458.332428 382.042114,458.076233 
	C375.122803,457.960510 374.732239,458.421967 374.432739,465.232635 
	C373.655823,482.901276 375.310699,500.536255 375.030029,518.191040 
	C374.908325,525.848389 374.376526,533.499695 374.007263,541.152527 
	C373.811401,545.211731 375.477539,547.797424 379.569458,548.802063 
	C384.582581,550.032837 389.595581,551.298645 394.528564,552.810547 
	C398.620453,554.064697 402.317474,553.844666 405.960175,551.443054 
	C409.091736,549.378418 412.619415,548.644104 416.423187,548.693298 
	C423.250854,548.781616 427.764954,552.756653 432.154114,557.267517 
	C438.268585,563.551636 440.229492,563.723022 447.509064,559.241150 
	C464.191467,548.970276 472.273407,550.385620 483.838867,566.110107 
	C486.562225,569.812866 489.315216,571.126282 493.926331,570.367920 
	C503.961884,568.717407 512.456238,572.250488 517.229187,581.174133 
	C521.232788,588.659424 526.252197,594.569214 533.465393,598.843506 
	C535.454041,600.022034 537.116577,601.737671 539.001465,603.106812 
	C547.355347,609.174927 555.604553,615.400635 564.155396,621.178955 
	C569.333740,624.678467 574.484924,623.112793 578.374878,617.650940 
	C582.110046,612.406372 581.731323,608.087585 576.815552,604.102112 
	C568.147827,597.074646 559.629578,589.875977 550.676453,583.180603 
	C538.274353,573.905884 526.293945,564.069275 513.285889,555.613098 
	C511.926636,554.729431 510.384491,553.843689 511.239532,551.648499 
	C512.696899,547.906616 518.065979,545.826782 521.426331,548.005371 
	C526.736450,551.447998 531.895386,555.122742 537.161804,558.634094 
	C542.006226,561.864075 546.907898,565.008240 552.139954,568.422180 
	C552.234558,565.814087 549.284180,564.933655 550.862366,562.594604 
	C554.614441,563.082520 556.231750,566.701050 559.185364,568.429504 
	C566.142700,572.500977 573.186218,576.658508 579.058655,582.398010 
	C581.224670,584.514954 582.915527,586.425659 580.699890,588.159607 
	C583.761963,591.667725 586.340576,595.228638 589.519897,598.131653 
	C595.204163,603.321960 602.107056,603.065918 606.803467,597.964905 
	C611.126404,593.269592 610.379761,587.949463 605.275024,582.001038 
	C599.659302,575.457153 592.637878,570.726990 585.187805,565.336975 
M387.578094,628.942505 
	C389.533478,632.070557 393.563110,632.579590 395.758789,635.359985 
	C401.695709,642.877930 408.814423,648.688110 417.164825,653.659546 
	C430.552216,661.629700 444.848938,665.575989 460.068909,666.955872 
	C463.992188,667.311523 467.679779,667.862061 470.719513,670.543335 
	C475.503632,674.763184 480.957794,674.831238 486.672577,673.131409 
	C488.113708,672.702698 489.506683,672.024109 491.037781,672.364929 
	C497.897125,673.891479 504.589600,672.424622 511.356384,671.500183 
	C517.423889,670.671326 523.669922,669.630371 528.806519,674.662109 
	C530.019226,675.850159 531.858948,675.947754 533.540283,675.954102 
	C538.537537,675.973022 543.535034,675.951965 548.532349,675.921631 
	C551.235657,675.905273 553.064270,675.038940 554.234741,672.152344 
	C556.399109,666.814697 560.898254,665.164001 566.875183,666.878174 
	C567.759644,668.575745 564.851074,669.681091 566.485596,671.902161 
	C567.467468,672.153748 568.903259,672.470154 570.307922,672.890686 
	C575.465393,674.434753 580.133606,671.894409 584.967834,671.035156 
	C594.344604,669.368469 603.252441,666.308289 611.208496,660.838989 
	C617.645630,656.413879 624.178406,652.227051 632.160950,650.919922 
	C634.368225,650.558472 636.598633,649.364868 638.465332,648.051392 
	C652.959351,637.852722 666.259521,626.407043 676.942017,612.057068 
	C680.124207,607.782349 682.868286,603.229858 686.121460,599.010193 
	C691.019897,592.656372 696.042908,586.242859 692.664001,577.272156 
	C692.248962,576.170227 692.828796,574.652100 693.073425,573.350525 
	C694.041809,568.197266 691.985474,565.392944 686.640320,565.230835 
	C681.985291,565.089661 677.315369,565.313904 672.656616,565.493347 
	C671.118225,565.552612 669.116211,565.909058 668.616394,564.386841 
	C666.644958,558.383362 662.283386,561.305603 658.726562,561.530029 
	C655.364624,561.742249 653.732605,563.456909 654.142029,567.144836 
	C654.562622,570.933105 654.808838,574.797546 653.780151,578.569824 
	C650.829529,589.389954 641.107544,595.629883 628.742004,594.483826 
	C625.526367,594.185730 623.195496,594.029724 621.960938,598.131653 
	C618.837219,608.510010 610.846924,614.383911 599.984131,614.276855 
	C595.835388,614.235840 594.347046,615.709534 593.038757,619.439880 
	C589.383362,629.862915 578.100647,637.011658 567.538513,635.570862 
	C563.251099,634.986023 561.442139,636.258789 559.676392,640.064941 
	C554.324768,651.600525 538.669861,657.949585 528.509766,651.872314 
	C522.884766,648.507751 520.256958,649.795166 515.919067,653.431824 
	C504.729462,662.812561 487.253113,660.240662 481.158173,648.418030 
	C478.901642,644.040894 476.333588,643.031067 471.808807,643.323425 
	C459.643250,644.109558 452.693573,639.478577 448.486206,628.170532 
	C447.374908,625.183716 445.924347,623.608337 442.595215,624.733521 
	C431.375977,628.525085 417.068420,615.684998 416.861237,605.521484 
	C416.752777,600.201172 414.875214,598.311157 409.435303,598.205261 
	C397.966400,597.982117 386.634247,583.437561 389.575409,572.364746 
	C391.093658,566.649048 389.598877,563.981506 384.471893,562.303833 
	C382.422150,561.633057 380.483551,560.629028 378.471375,559.835022 
	C376.612183,559.101379 374.894836,559.232483 373.468048,560.837402 
	C370.031281,564.703369 365.473267,565.169373 360.681305,565.217651 
	C358.241852,565.242126 355.005585,564.172852 353.497375,566.191772 
	C349.644379,571.349731 344.672546,571.910950 338.087738,570.255310 
	C340.218140,576.947571 343.007019,581.827576 348.204651,584.995972 
	C350.338745,586.296936 351.288879,587.987854 352.233704,590.293640 
	C355.081146,597.242615 357.851196,603.999695 364.519592,608.940918 
	C372.465973,614.829041 381.091064,620.185425 387.578094,628.942505 
M454.925934,487.600464 
	C458.557678,491.013550 462.906433,492.289307 467.797638,491.841370 
	C475.872864,491.101898 483.428802,488.775879 490.429718,484.600159 
	C494.566528,482.132751 498.547272,479.007111 503.373230,478.252686 
	C515.372986,476.376801 527.435059,474.923065 539.616577,474.749878 
	C542.434753,474.709808 544.353577,475.848999 545.889343,478.063446 
	C553.428833,488.934875 564.751343,495.234314 575.396851,502.327362 
	C579.536865,505.085815 584.180237,506.089325 589.195068,505.771301 
	C598.252197,505.196991 606.959167,503.373230 615.172302,499.390137 
	C616.876587,498.563629 618.609619,497.110596 621.136047,498.853729 
	C619.725891,504.183868 614.896973,506.719971 611.352722,510.194916 
	C607.649109,513.826172 602.111694,514.406128 597.797119,517.225769 
	C599.133179,520.158997 601.507751,521.483459 603.666077,522.975464 
	C614.067871,530.166138 624.638916,537.120239 634.885925,544.523621 
	C642.535095,550.050110 650.302490,552.207581 659.650208,549.173706 
	C664.005615,547.760071 665.881104,546.220642 665.841309,541.415161 
	C665.630493,515.927490 665.757690,490.437012 665.756958,464.947510 
	C665.756775,458.666412 664.636230,457.387177 658.078430,457.492950 
	C649.588623,457.629883 641.047607,457.636505 632.631470,458.598389 
	C619.421631,460.108246 606.772888,458.173889 594.234375,454.288330 
	C582.316040,450.595001 570.433716,446.736450 558.377502,443.547943 
	C535.761902,437.566803 514.467163,443.630341 493.672791,451.902252 
	C480.469818,457.154327 468.894318,465.526917 456.721313,472.727234 
	C448.769806,477.430542 448.484802,479.767822 454.925934,487.600464 
M616.488525,434.380798 
	C604.722046,434.622681 592.878418,433.477753 579.750732,435.916718 
	C586.960999,439.506866 593.191589,441.175140 599.443237,442.812622 
	C619.344299,448.025146 639.508850,445.414520 659.610046,444.976044 
	C663.960205,444.881134 666.166992,443.172272 666.082153,438.735077 
	C666.009705,434.945648 667.943604,433.336212 671.682495,433.554901 
	C673.665527,433.670898 675.664856,433.471588 677.656189,433.487610 
	C685.154114,433.547882 692.656555,433.833801 700.148315,433.657104 
	C706.467163,433.508026 708.132812,430.318817 705.222839,424.806091 
	C703.592773,421.718018 701.790100,418.693634 700.467957,415.475098 
	C692.643860,396.428833 681.431274,379.678741 667.008972,364.995728 
	C653.593506,351.337708 638.325928,340.169800 621.703369,330.804962 
	C617.148560,328.238861 615.101379,329.241364 613.735901,334.272430 
	C612.325195,339.470428 611.988159,344.820526 612.410400,350.143524 
	C613.637878,365.618195 613.234314,381.116760 613.375854,396.608032 
	C613.432068,402.765015 614.226135,403.720215 620.244385,403.623749 
	C629.919495,403.468567 639.547974,404.181976 649.190125,404.747986 
	C653.398315,404.994995 654.925659,406.900269 653.631531,410.939148 
	C653.226135,412.204376 652.852234,413.502075 652.257812,414.680939 
	C645.052368,428.969727 633.742859,436.055756 616.488525,434.380798 
M409.479919,403.757294 
	C412.312805,403.764374 415.146667,403.822723 417.978333,403.767761 
	C423.559662,403.659485 424.599030,402.613556 424.661743,396.918304 
	C424.824982,382.088623 424.144196,367.190216 425.399017,352.455414 
	C426.093903,344.295959 419.998322,339.970306 418.221375,333.438507 
	C417.744293,331.684814 415.688141,332.496094 414.280762,333.109528 
	C409.685211,335.112671 405.236481,337.423248 401.217468,340.410126 
	C370.061462,363.564423 347.803589,393.524811 333.401733,429.443939 
	C332.828949,430.872437 331.605072,432.414795 333.500061,434.687866 
	C344.964081,434.687866 356.909271,434.886475 368.842255,434.591553 
	C373.717773,434.471069 376.120514,435.697632 375.392944,440.964874 
	C375.047363,443.466858 375.622406,445.799530 378.873779,445.840668 
	C392.188599,446.009064 405.657623,447.430603 418.776459,445.890900 
	C432.059998,444.331818 444.997986,439.826141 458.079193,436.578308 
	C458.225006,436.542114 458.261322,436.064911 458.420441,435.571045 
	C456.908997,435.422699 455.448486,435.274017 453.986938,435.136780 
	C441.354919,433.950562 428.685028,434.344727 416.029205,434.295044 
	C400.464996,434.233948 392.333466,424.384125 388.191803,412.047699 
	C386.385681,406.667877 387.538696,405.326050 393.028107,404.440918 
	C398.162231,403.613068 403.330902,403.871033 409.479919,403.757294 
M439.767944,301.191345 
	C436.638977,302.123322 437.249786,304.754150 437.243774,306.990356 
	C437.202972,322.151123 437.224823,337.312042 437.221161,352.472931 
	C437.217682,366.965759 437.266541,381.459045 437.163757,395.951172 
	C437.134277,400.108948 438.624847,402.109802 443.034058,401.884399 
	C450.680481,401.493500 458.344910,401.502716 465.999268,401.277435 
	C480.912903,400.838531 495.999847,398.850403 510.576752,404.073212 
	C513.507019,405.123138 514.699707,403.938263 514.631226,401.094971 
	C514.515015,396.273865 514.026062,391.443298 514.210449,386.636536 
	C515.155945,361.992889 515.256226,337.350494 514.006592,312.723175 
	C513.548462,303.696075 512.717529,303.110229 503.746124,301.208099 
	C482.711060,296.748260 461.633728,300.512970 439.767944,301.191345 
M545.670715,400.803406 
	C561.471863,400.030945 577.243164,402.281982 593.067383,401.118042 
	C600.992615,400.535095 600.961914,400.913208 600.906128,392.921509 
	C600.706360,364.300507 600.525085,335.679291 600.402283,307.057892 
	C600.382935,302.554230 598.486267,300.414581 593.862854,300.182861 
	C578.728577,299.424194 563.591187,298.986938 548.443604,299.394501 
	C543.293457,299.533051 538.200134,300.371643 533.147034,301.492706 
	C528.210693,302.587830 526.132996,305.038147 526.186707,310.475098 
	C526.458069,337.942474 526.311523,365.413940 526.316223,392.883972 
	C526.316650,395.214325 526.256226,397.550415 526.395508,399.873566 
	C526.567871,402.747620 527.772461,404.151276 530.960999,403.064911 
	C535.400513,401.552277 540.086182,401.299164 545.670715,400.803406 
M804.548279,319.866791 
	C803.668701,319.394073 802.810730,318.874542 801.906250,318.455536 
	C784.838623,310.547943 763.634949,316.710510 755.667847,331.955750 
	C749.068970,344.582855 749.097534,357.288391 757.781067,368.642670 
	C766.839783,380.487427 779.910461,384.264404 794.335632,382.261688 
	C806.477783,380.575989 817.181396,371.433655 819.870361,355.836182 
	C822.299988,341.742706 816.920288,328.000702 804.548279,319.866791 
M362.666138,476.500092 
	C362.686493,470.672028 362.676788,464.843658 362.733246,459.015961 
	C362.865662,445.339447 362.890381,445.444641 349.153320,446.999176 
	C345.600403,447.401215 344.137299,448.779633 344.270050,452.341125 
	C344.443604,456.997467 344.312134,461.664673 344.340332,466.327026 
	C344.489288,490.955658 345.699615,515.581604 344.441467,540.215210 
	C344.289551,543.189331 344.664154,546.196106 344.884888,549.181030 
	C344.982086,550.495178 345.082367,552.184448 346.618011,552.477783 
	C351.046509,553.323914 355.701843,553.845764 359.949249,552.484192 
	C363.303680,551.408875 361.441498,547.482788 362.115936,544.893250 
	C362.609772,542.997070 362.575775,540.933777 362.580841,538.944458 
	C362.632935,518.463074 362.644958,497.981598 362.666138,476.500092 
M695.715149,461.515442 
	C695.720093,460.182739 695.726929,458.850006 695.729797,457.517303 
	C695.752930,446.796631 695.752686,446.796692 684.884338,446.684662 
	C679.000916,446.624023 678.272766,447.315765 678.269043,453.199310 
	C678.258728,469.358154 678.196106,485.517456 678.296875,501.675720 
	C678.393433,517.155579 677.800659,532.650024 679.127930,548.109314 
	C679.295898,550.065369 678.861267,552.455505 681.807190,552.564575 
	C685.297180,552.693848 688.803650,552.687500 692.289917,552.498596 
	C694.681213,552.369019 695.693420,550.673401 695.792847,548.398376 
	C696.025269,543.078125 696.268372,537.758179 696.471069,532.436768 
	C697.359314,509.115540 695.006897,485.829071 695.715149,461.515442 
M776.112000,573.196960 
	C786.316772,571.604492 795.218201,574.462585 802.960266,581.143799 
	C806.954346,584.590637 809.644226,584.942993 812.847290,581.140259 
	C814.695557,578.945862 816.466675,576.051758 814.595459,572.498962 
	C812.648499,568.802185 810.335938,570.492920 807.959595,571.516907 
	C806.187317,572.280579 804.754028,571.682800 803.318481,570.666931 
	C799.341858,567.852722 794.955383,565.873474 790.330017,564.389954 
	C787.804443,563.579956 785.665955,562.332153 785.731995,559.260559 
	C785.799377,556.121948 784.129517,555.225952 781.312378,555.390442 
	C778.312622,555.565552 776.080444,556.356323 776.256104,560.025146 
	C776.343445,561.849121 776.408936,564.232422 774.364136,564.784363 
	C768.400269,566.394287 762.820618,568.959351 757.064758,571.082458 
	C755.645386,571.605896 754.092773,571.105530 752.752441,570.305054 
	C750.918457,569.209839 749.214417,567.632385 747.056091,569.939697 
	C744.892456,572.252625 745.419250,574.299927 747.025085,576.626160 
	C748.792175,579.185913 748.507080,581.978943 747.338013,584.737610 
	C746.429932,586.880554 745.228638,588.959778 744.710876,591.195496 
	C743.519165,596.341858 741.452637,600.242004 735.335449,600.300476 
	C733.346924,600.319458 732.509827,601.864319 732.463379,603.742249 
	C732.410156,605.891785 733.795471,606.782104 735.658936,606.724976 
	C740.284363,606.583191 742.519653,609.500671 744.252197,613.131104 
	C746.841309,618.556274 749.163208,623.966675 748.403992,630.306274 
	C747.994690,633.724060 751.690491,636.127258 754.841614,634.771179 
	C761.447937,631.928223 764.467102,629.167480 758.972595,622.706726 
	C758.114502,621.697815 757.440735,620.528625 756.711426,619.414124 
	C744.703979,601.063171 753.904602,578.249084 776.112000,573.196960 
M463.129395,595.622986 
	C466.325043,592.237061 469.604919,588.925781 472.690216,585.442139 
	C475.238678,582.564636 476.429169,579.308105 475.241791,575.310486 
	C472.043976,564.543823 461.777344,561.558350 453.555908,569.339783 
	C446.666840,575.860229 440.099579,582.721252 433.405701,589.447266 
	C431.245636,591.617615 429.800537,594.249817 428.934998,597.154724 
	C426.086151,606.716125 432.670624,614.968445 442.115570,613.717957 
	C445.796814,613.230591 448.517365,611.001831 450.972382,608.480042 
	C454.920441,604.424561 458.744659,600.248413 463.129395,595.622986 
M492.695618,582.852417 
	C491.049713,583.958435 489.136353,584.809998 487.801941,586.212402 
	C479.900818,594.515991 472.057709,602.878540 464.376984,611.385559 
	C462.519470,613.442871 461.009186,615.977356 459.932861,618.541626 
	C457.861542,623.476379 460.072815,629.001526 464.949646,630.368713 
	C469.432953,631.625366 474.083405,631.796265 478.222443,628.552185 
	C484.794586,623.401001 489.937225,616.780396 496.237457,611.355774 
	C499.753448,608.328430 503.383392,605.383911 505.964142,601.432678 
	C509.109253,596.617493 509.230103,591.295166 506.127502,586.956360 
	C502.969940,582.540894 498.684814,581.076965 492.695618,582.852417 
M462.423370,422.121277 
	C481.459717,424.116974 500.451447,426.497986 519.619568,427.169678 
	C526.153259,427.398651 530.815308,424.748596 536.100342,420.273285 
	C526.637695,420.273285 518.163879,420.227814 509.691010,420.293396 
	C505.721344,420.324097 501.397125,419.901733 499.048126,416.914398 
	C495.407654,412.284607 491.199738,412.174683 486.228088,412.947601 
	C483.942230,413.302948 481.572571,413.176392 479.241119,413.171753 
	C455.922760,413.125122 432.608307,413.320892 409.306091,414.272949 
	C407.710205,414.338165 405.935974,413.787994 404.317383,415.686005 
	C406.290405,419.101532 408.684723,422.542938 413.000458,422.665466 
	C424.205933,422.983765 435.426453,422.772400 446.640991,422.772400 
	C445.532013,422.193878 444.394775,422.099457 443.270630,421.922272 
	C442.108826,421.739136 440.849182,421.682098 439.906738,420.456299 
	C447.547699,418.772583 454.469391,421.269531 462.423370,422.121277 
M798.397888,614.789795 
	C804.326904,605.642029 803.014709,595.624878 794.790283,587.251282 
	C788.163208,580.504028 779.490173,579.441223 771.142944,584.353455 
	C762.150024,589.645630 757.827515,599.640015 761.364441,609.052979 
	C768.726379,628.645447 788.791687,626.883667 798.397888,614.789795 
M496.116913,627.630493 
	C495.552979,628.241638 494.977478,628.842529 494.426880,629.465515 
	C489.237274,635.337524 488.775940,640.023010 492.949219,644.408997 
	C496.531433,648.173767 503.535217,648.389587 508.333679,644.035095 
	C515.081421,637.911743 521.907898,631.718323 526.719543,623.836792 
	C529.910522,618.609802 528.984863,612.299561 525.073547,609.305115 
	C521.258484,606.384399 517.439148,606.916565 512.245667,611.718872 
	C506.876862,616.683289 501.808960,621.973145 496.116913,627.630493 
M612.742676,419.198090 
	C619.046387,419.432617 625.319641,420.234741 631.666809,419.661316 
	C634.810913,419.377289 636.461975,418.062225 637.145264,415.168243 
	C635.315186,413.669495 633.412537,414.214264 631.648621,414.158569 
	C626.987000,414.011322 622.313782,414.125488 617.659424,413.872864 
	C593.849548,412.580566 570.015320,413.638489 546.198242,413.073395 
	C542.905396,412.995239 541.114319,414.842926 540.787476,418.232513 
	C542.947327,419.282043 544.971313,418.958740 546.933228,418.962616 
	C563.763733,418.996002 580.594177,418.989258 597.424683,419.019714 
	C602.238037,419.028442 607.025208,420.389709 612.742676,419.198090 
M402.418213,579.976990 
	C406.573395,587.078491 413.231720,589.185120 419.445831,585.252869 
	C422.431000,583.363892 424.839081,580.825195 426.527802,577.702393 
	C428.976196,573.174744 427.982971,568.022217 424.106842,564.616150 
	C419.749359,560.787109 413.869843,560.049194 409.371552,562.766907 
	C403.209839,566.489624 400.729980,572.201416 402.418213,579.976990 
M329.792023,452.582123 
	C332.205261,452.431335 332.761078,450.878510 332.713898,448.798340 
	C332.654907,446.199097 330.642487,446.003815 328.868042,445.803162 
	C319.389954,444.731140 309.931488,445.725861 300.469452,446.214294 
	C298.181091,446.332397 295.436646,445.868286 295.448517,449.428162 
	C295.460266,452.942749 298.153748,452.646881 300.470703,452.649811 
	C309.956451,452.661774 319.442322,452.625916 329.792023,452.582123 
M716.619385,445.908478 
	C714.959167,445.949524 713.292725,445.914673 711.640503,446.052094 
	C709.841370,446.201752 707.700134,446.158569 707.732910,448.797852 
	C707.765564,451.433228 709.343811,452.684265 711.915100,452.673309 
	C720.716919,452.635834 729.520142,452.644745 738.319275,452.465546 
	C740.227661,452.426697 742.608704,452.172241 742.631531,449.381622 
	C742.657227,446.236633 740.196045,446.271637 738.015564,446.227570 
	C731.207458,446.089966 724.398071,446.014893 716.619385,445.908478 
M734.279480,498.634979 
	C734.957092,497.225372 735.242126,495.670349 734.628052,494.278168 
	C733.297241,491.260986 731.391724,488.525818 727.560852,489.379517 
	C724.889771,489.974792 723.307129,492.070038 723.755554,494.967224 
	C724.515747,499.878784 729.327148,501.872223 734.279480,498.634979 
M248.277527,437.795441 
	C248.288986,440.126587 248.123291,442.475861 248.359634,444.783997 
	C248.618042,447.307678 246.902344,451.037140 249.741791,452.034332 
	C252.098663,452.862030 254.572617,450.110107 256.511078,448.065002 
	C250.193665,444.288391 253.718689,436.647095 250.618393,431.206390 
	C247.800568,432.881714 248.417953,435.025879 248.277527,437.795441 
M313.743134,490.524078 
	C311.338715,488.270966 308.732635,486.994781 306.032379,489.878906 
	C303.923065,492.131775 303.359192,494.871094 305.348755,497.518433 
	C307.034119,499.760986 309.333618,500.434784 311.883667,498.920044 
	C315.035645,497.047791 316.234650,494.516754 313.743134,490.524078 
M784.062988,396.168396 
	C783.248108,396.250641 782.409241,396.236938 781.622986,396.433655 
	C779.529480,396.957458 777.107666,397.467590 777.526062,400.342377 
	C777.955505,403.293030 780.628479,404.159576 783.020386,404.386749 
	C786.000244,404.669800 787.281311,401.876831 788.057251,399.761993 
	C788.869507,397.547913 787.196167,396.157806 784.062988,396.168396 
M254.159561,413.504303 
	C250.069611,412.322845 247.528946,415.084930 248.316620,419.789062 
	C248.520020,421.003906 248.806946,422.095612 250.168839,422.373108 
	C251.502243,422.644775 252.428986,421.896790 252.933838,420.782806 
	C253.886261,418.681335 254.579346,416.491791 254.159561,413.504303 
M776.928711,416.335175 
	C774.139526,418.990631 777.751892,418.333557 778.202881,418.335144 
	C783.482910,418.354004 788.765015,418.222046 794.043457,418.040863 
	C796.223816,417.966034 798.533142,418.541565 800.533508,416.283234 
	C792.905457,416.283234 785.277344,416.283234 776.928711,416.335175 
M787.557617,428.296967 
	C784.888672,428.296967 782.219727,428.296967 779.550781,428.296967 
	C779.571228,428.711548 779.591736,429.126099 779.612183,429.540680 
	C786.069885,429.540680 792.527527,429.540680 798.985168,429.540680 
	C795.618103,427.935516 792.017212,428.480286 787.557617,428.296967 
z"/>
<path fill="#000000" opacity="1.000000" stroke="none" 
	d="
M629.144226,172.696136 
	C631.674500,173.680374 633.826965,174.577591 636.007080,175.401382 
	C637.232239,175.864334 638.299255,176.221069 639.681458,175.189697 
	C646.161438,170.354340 653.557434,172.981888 655.374817,180.794266 
	C655.888489,183.002594 657.261414,183.706390 659.021362,184.376236 
	C669.597839,188.401657 680.165222,192.451172 690.732422,196.501038 
	C691.507874,196.798233 692.291870,197.101486 693.012756,197.507004 
	C694.734924,198.475693 696.929260,199.266785 696.819885,201.656860 
	C696.715637,203.933701 694.762756,205.030655 692.864563,205.719589 
	C683.010132,209.296249 673.124207,212.786545 663.244568,216.293701 
	C662.147705,216.683105 661.041565,217.097702 659.904236,217.313110 
	C655.827942,218.085159 654.101196,220.324402 654.175598,224.621826 
	C654.270569,230.102783 654.067200,234.779968 659.677307,238.745758 
	C666.836365,243.806564 665.034180,252.526794 663.959412,259.666351 
	C662.237671,271.103485 664.563965,282.233337 664.721741,293.499969 
	C664.754150,295.818634 665.158386,298.131561 665.378967,300.448273 
	C666.131470,308.352661 666.128113,308.258270 657.906250,308.370300 
	C650.254761,308.474579 642.606323,308.988007 634.956665,308.985107 
	C629.155823,308.982910 627.904236,307.562012 629.124329,302.032745 
	C631.579590,290.906189 631.019409,279.509613 632.518127,268.304688 
	C632.749695,266.573059 632.065552,264.713898 631.775513,262.918427 
	C630.037415,252.160797 629.762268,241.997055 640.188354,234.676804 
	C643.500977,232.351013 642.218872,228.004654 641.179993,224.944321 
	C640.097961,221.757141 637.117798,224.053772 635.116699,224.600906 
	C629.821228,226.048737 624.663879,228.016891 619.347168,229.366882 
	C614.581421,230.576935 613.001282,233.318832 613.274780,238.076508 
	C613.761780,246.550568 613.931274,255.047653 614.029053,263.537476 
	C614.086121,268.490204 613.063660,269.232208 608.343140,267.764618 
	C596.072876,263.949860 583.820007,260.491913 570.706665,261.053833 
	C559.917542,261.516174 549.626953,263.700928 539.600464,267.581451 
	C520.852417,274.837402 520.819214,274.840240 501.678772,267.851837 
	C492.905945,264.648773 484.133972,261.878387 474.675385,261.114594 
	C460.171021,259.943359 446.539703,262.736572 433.253601,268.221283 
	C426.203796,271.131592 425.761871,270.807434 425.917816,262.976379 
	C426.083527,254.653839 426.213074,246.319122 426.799255,238.020859 
	C427.135620,233.259201 425.244232,231.161652 420.813232,229.976913 
	C398.300354,223.957565 376.314392,216.210709 354.068298,209.312607 
	C351.212555,208.427078 348.428436,207.290710 345.658905,206.154144 
	C343.954132,205.454544 342.116730,204.571564 342.257233,202.349243 
	C342.375427,200.479233 343.972504,199.551712 345.521576,198.892166 
	C351.494354,196.349060 357.443756,193.737793 363.499390,191.404922 
	C389.436279,181.412918 415.547882,171.858627 441.326263,161.475525 
	C465.736084,151.643661 490.734528,143.478043 515.323547,134.175568 
	C518.985291,132.790283 522.162720,132.830002 525.869385,134.214813 
	C551.903442,143.941254 578.035583,153.405212 604.106384,163.034103 
	C612.377075,166.088776 620.556641,169.390015 629.144226,172.696136 
M516.331787,251.186111 
	C521.959167,251.930115 527.978394,253.431213 533.183899,251.417908 
	C546.468079,246.279953 561.040161,246.896591 574.229675,241.293365 
	C579.266052,239.153748 583.731018,237.259460 587.145020,232.700027 
	C593.041687,224.824921 588.752075,209.051941 579.460693,205.418411 
	C568.044006,200.953751 556.049622,199.163025 544.062744,197.132858 
	C537.255676,195.979980 529.995483,197.836334 523.763123,195.613785 
	C515.910706,192.813538 508.365662,192.896683 500.731537,194.379059 
	C482.223633,197.972870 463.422668,200.865570 447.224121,211.699646 
	C446.600708,212.116608 445.664246,212.224365 444.877716,212.212296 
	C440.459839,212.144516 439.204742,214.549835 439.282928,218.596664 
	C439.430969,226.259903 439.206909,233.929855 439.308044,241.594757 
	C439.348419,244.657486 438.642853,247.846970 440.019531,250.788361 
	C443.540222,251.272812 444.776459,249.795807 444.763641,246.603699 
	C444.743378,241.559921 444.276855,236.462585 445.507782,231.248184 
	C448.069275,232.538345 447.732544,234.825607 448.440552,236.574387 
	C449.211884,238.479599 450.252319,241.005569 452.369324,240.467941 
	C457.764893,239.097702 462.552612,241.582901 467.602417,242.158432 
	C473.868896,242.872635 480.428772,242.173172 486.361908,244.642838 
	C495.710052,248.533997 505.482147,250.136719 516.331787,251.186111 
M513.819763,154.351715 
	C518.185791,151.901718 522.558105,152.102737 527.244629,153.684921 
	C561.941101,165.398560 596.280090,178.104599 630.674072,190.660904 
	C634.387451,192.016556 637.995544,194.028748 642.462585,194.181854 
	C641.838806,190.891479 639.544922,190.496567 637.569824,189.842850 
	C631.567200,187.856049 625.351807,186.392380 619.547546,183.946014 
	C588.109009,170.695312 556.157898,158.830246 523.890869,147.777969 
	C521.059448,146.808151 518.650940,146.519348 515.759033,147.580200 
	C497.479248,154.285843 479.209564,161.005585 461.046326,168.032394 
	C432.492432,179.079025 403.774963,189.702560 375.143280,200.548920 
	C373.008423,201.357666 370.691956,202.052307 368.538055,204.703125 
	C373.027008,204.441513 376.368530,203.496902 379.666626,202.442017 
	C405.987640,194.023392 431.379120,183.062149 457.455322,173.972092 
	C475.991638,167.510391 494.528503,161.050262 513.819763,154.351715 
M646.811218,275.724091 
	C646.565430,273.622131 647.719055,271.152130 644.368103,268.735199 
	C644.134094,269.437866 643.769287,270.078918 643.722778,270.742340 
	C643.157654,278.797638 642.606750,286.854340 642.138184,294.915680 
	C642.052124,296.396484 642.814514,297.532074 644.519775,297.377686 
	C646.205994,297.225037 646.576477,295.937683 646.594666,294.513702 
	C646.670593,288.564941 646.727966,282.615906 646.811218,275.724091 
M643.456787,251.019409 
	C643.195801,253.324005 643.231567,255.519897 646.352722,255.590881 
	C648.797913,255.646515 651.621521,255.952545 652.889587,253.278931 
	C653.807556,251.343521 652.900330,249.266556 651.145020,248.060333 
	C648.997498,246.584625 646.761169,246.890579 644.845032,248.710800 
	C644.378113,249.154358 644.070496,249.765549 643.456787,251.019409 
M668.428589,203.434509 
	C665.507202,199.144608 660.786011,200.032074 656.613342,199.297867 
	C658.985413,204.370102 663.743042,203.288254 668.428589,203.434509 
z"/>
<path fill="#000000" opacity="1.000000" stroke="none" 
	d="
M308.725830,589.309814 
	C321.472687,606.806946 326.016968,625.997742 319.163361,646.188416 
	C312.230835,666.611694 297.636627,680.227356 275.764709,683.860657 
	C247.179733,688.609314 212.782135,667.781738 210.569153,632.155579 
	C209.398315,613.306274 214.459076,596.944092 228.515213,583.894043 
	C241.181107,572.134766 256.298309,568.448242 273.249725,570.066650 
	C287.799713,571.455811 298.655396,579.167297 308.725830,589.309814 
M294.983154,648.172424 
	C292.677582,653.649414 297.531891,654.036560 300.429779,655.681519 
	C303.740265,657.560730 304.861847,654.705322 306.030914,652.630310 
	C307.816193,649.461426 309.546753,646.230530 310.933228,642.874146 
	C315.142181,632.685120 313.821259,630.924255 303.118866,631.265381 
	C299.829742,631.370239 298.353638,632.643982 297.799408,635.784180 
	C297.109619,639.692566 296.082397,643.541504 294.983154,648.172424 
M236.884720,649.846558 
	C235.970581,646.158630 234.895996,642.501648 234.175873,638.776245 
	C232.697083,631.125977 232.775223,631.110657 224.996170,631.197571 
	C224.334244,631.204956 223.671036,631.250793 223.010681,631.223694 
	C219.805084,631.092102 218.821991,632.884521 219.495880,635.649963 
	C221.144379,642.414734 223.164200,649.066284 226.902176,655.033325 
	C227.652695,656.231323 228.580490,658.145874 230.284363,657.038391 
	C232.904221,655.335510 236.553558,654.500061 236.884720,649.846558 
M289.602325,622.098145 
	C289.077820,608.680420 286.366425,606.474365 274.233826,609.601624 
	C273.752563,609.725708 273.289551,609.918823 272.811829,610.058533 
	C270.004242,610.879456 269.542664,613.222778 269.517181,615.586609 
	C269.485962,618.478821 268.478058,621.729614 271.231476,623.980896 
	C273.265167,625.643677 286.652405,624.674622 289.602325,622.098145 
M287.879181,642.236511 
	C288.145935,640.940613 288.535095,639.656311 288.658630,638.346924 
	C289.246460,632.116333 288.594574,631.386414 282.363953,631.264099 
	C279.367096,631.205261 276.368042,631.270813 273.370178,631.249023 
	C271.274841,631.233765 269.964508,632.038818 269.445465,634.233154 
	C267.633606,641.892822 269.635712,645.196533 277.260956,646.896545 
	C277.909698,647.041199 278.589539,647.166504 279.173889,647.461365 
	C284.106110,649.950073 286.593231,647.851013 287.879181,642.236511 
M297.644714,618.834717 
	C297.829346,623.606812 300.285065,625.286743 304.872864,624.264954 
	C306.156952,623.978943 307.514496,623.999817 308.841034,623.932129 
	C311.686920,623.786804 312.645844,622.302185 312.000916,619.610291 
	C310.760406,614.432434 309.360077,609.301025 306.786621,604.598755 
	C305.585236,602.403503 304.917511,599.133484 301.097107,600.857910 
	C297.730194,602.377747 294.124054,603.573059 295.791656,608.731567 
	C296.751038,611.699341 296.945923,614.914246 297.644714,618.834717 
M222.845291,608.292664 
	C221.534088,613.204529 219.075333,617.831238 218.972137,623.040710 
	C230.514801,626.055298 232.060501,625.163635 234.287781,614.362000 
	C234.522171,613.225342 234.711487,612.078918 234.963882,610.946472 
	C236.596863,603.619019 236.601837,603.598877 229.390671,601.229736 
	C228.323273,600.879150 227.254166,600.207214 225.556488,601.019592 
	C224.831665,602.949768 223.967331,605.251465 222.845291,608.292664 
M247.803558,631.150696 
	C245.635330,631.429993 242.611557,630.588013 242.409424,633.997192 
	C242.120392,638.871643 242.905701,643.952026 246.070221,647.569946 
	C248.469101,650.312561 251.762177,646.494690 254.802155,646.428040 
	C256.079224,646.400085 257.348175,645.752197 258.610260,645.352783 
	C260.161469,644.861816 261.020630,643.789856 261.452698,642.208435 
	C263.630035,634.239319 261.310699,631.087463 253.197861,631.094727 
	C251.707840,631.096008 250.217865,631.118286 247.803558,631.150696 
M242.203445,620.377747 
	C242.004791,622.692627 243.148712,623.742310 245.389771,623.777649 
	C247.872711,623.816895 250.397476,623.594055 252.830750,623.965576 
	C261.932129,625.354980 261.864502,625.729553 261.755585,614.826355 
	C261.736023,612.869568 261.893646,610.894897 259.519836,609.804993 
	C248.612625,604.796631 243.519516,607.631897 242.203445,620.377747 
M269.638153,585.743042 
	C268.727783,590.063171 270.244843,594.294373 270.109619,598.583069 
	C270.004547,601.916199 271.381104,603.154053 274.675018,602.099487 
	C276.243378,601.597290 277.887238,601.335938 279.483490,600.914612 
	C282.579254,600.097778 283.513489,598.130920 282.125671,595.295776 
	C279.992767,590.938416 276.966156,587.232056 273.285492,584.082214 
	C271.741730,582.761047 270.314819,582.400513 269.638153,585.743042 
M261.894409,586.081116 
	C261.643555,584.716980 262.187775,582.923035 259.624847,582.504333 
	C255.518707,585.803284 253.619156,590.910278 250.755646,595.301147 
	C249.890167,596.628357 248.432755,598.368469 250.044556,599.781494 
	C252.725128,602.131470 256.229736,601.951294 259.552765,601.752380 
	C261.475067,601.637390 261.801239,599.993042 261.830750,598.431641 
	C261.903076,594.604675 261.899841,590.776245 261.894409,586.081116 
M269.224487,658.036560 
	C269.618042,662.805786 268.076294,667.806274 270.648987,673.103210 
	C275.333252,669.806213 277.252441,665.300598 279.610535,661.250793 
	C280.703308,659.374084 283.757507,656.834229 279.243256,654.903931 
	C273.384186,652.398376 270.866699,652.894409 269.224487,658.036560 
M252.569946,662.867859 
	C254.833908,666.356079 256.401917,670.498474 261.458893,672.291504 
	C262.093109,665.953613 261.708099,660.122314 260.571716,654.320862 
	C260.303894,652.953613 259.287811,652.684387 257.934723,652.755005 
	C251.065948,653.113464 249.279022,656.026794 252.569946,662.867859 
M232.708923,594.260437 
	C235.102127,595.554993 237.786102,598.230591 240.250961,595.744873 
	C243.775299,592.190674 246.403549,587.796204 248.421799,582.079834 
	C242.033371,583.420105 237.683929,586.484192 233.641769,590.070190 
	C232.597336,590.996765 231.185867,591.998474 232.708923,594.260437 
M287.419037,589.157654 
	C288.509186,591.023682 289.571198,592.906799 290.697235,594.750916 
	C291.859589,596.654419 293.449554,596.234680 295.044006,595.420105 
	C296.569214,594.640869 298.011566,593.798035 297.538971,591.654114 
	C296.727539,587.973267 287.921997,582.394775 283.838745,583.084412 
	C284.041107,585.417419 286.075989,586.686829 287.419037,589.157654 
M293.135956,666.685669 
	C294.517487,665.594360 296.454437,664.938721 296.345459,662.674194 
	C290.329834,658.529358 286.506287,661.119385 284.994537,670.738770 
	C288.086334,670.433411 290.092072,668.244446 293.135956,666.685669 
M243.221619,669.107544 
	C244.707977,669.533386 245.943970,671.042725 248.188766,670.041382 
	C246.515945,667.325745 244.886642,664.737732 243.319611,662.112549 
	C242.549286,660.822083 241.974869,659.367065 239.988678,660.077271 
	C238.551193,660.591187 237.203857,661.271973 236.592667,662.729980 
	C235.865387,664.465027 237.036331,665.566528 238.285309,666.404663 
	C239.643173,667.315918 241.140472,668.019287 243.221619,669.107544 
z"/>
<path fill="#000000" opacity="1.000000" stroke="none" 
	d="
M677.767456,695.544128 
	C675.765808,693.492920 673.974670,691.755066 672.217285,689.983765 
	C665.747009,683.462219 666.597595,676.430908 674.395020,671.880493 
	C679.740906,668.760803 680.107300,667.240356 677.026550,661.657471 
	C675.306458,658.540344 673.632080,655.388428 676.766418,652.086792 
	C682.463257,646.085876 685.200989,645.219849 690.180420,647.933594 
	C695.352112,650.752136 699.210205,649.254822 700.756958,643.436462 
	C702.892029,635.405029 701.761353,636.002930 711.230835,635.607788 
	C711.894958,635.580078 712.572693,635.700745 713.225769,635.614441 
	C719.147339,634.831604 722.856628,636.388611 724.950623,642.916016 
	C727.444214,650.688721 730.568970,651.248657 737.682190,646.889709 
	C741.589722,644.495178 743.945374,647.398071 746.532532,649.207520 
	C749.617920,651.365479 751.294861,654.335144 750.048096,658.262390 
	C749.750488,659.199951 749.163025,660.045898 748.705444,660.932251 
	C745.480408,667.179016 746.243225,669.349792 752.772705,672.502197 
	C758.788391,675.406616 760.151917,684.449219 755.158752,689.079773 
	C752.969849,691.109741 750.507629,692.849854 748.130859,694.671082 
	C745.303711,696.837463 744.649292,699.283997 746.665283,702.429504 
	C752.524231,711.571228 748.528931,713.751282 741.827148,719.070251 
	C739.646484,720.800903 737.837341,719.604004 735.872742,718.606445 
	C728.481506,714.853333 725.491150,716.142639 723.986877,724.181274 
	C723.210754,728.328308 721.237244,730.345093 717.054077,730.410950 
	C714.897217,730.444885 712.746338,730.868408 710.589783,730.897400 
	C703.362366,730.994507 703.108276,730.748596 701.612183,723.548340 
	C700.373352,717.586365 694.561279,714.757141 688.831848,718.205505 
	C683.320374,721.522705 681.065002,717.521973 677.878967,714.825684 
	C674.415527,711.894714 674.413269,708.851990 676.801575,705.202271 
	C678.644043,702.386719 679.925720,699.254150 677.767456,695.544128 
M711.694397,657.683167 
	C721.538635,657.537537 728.639709,663.064880 735.101868,669.954956 
	C738.788269,661.902832 737.444763,659.158936 729.962708,657.207642 
	C724.232849,655.713318 719.015625,653.396057 715.835571,647.821594 
	C713.044250,642.928650 711.293335,643.220276 708.211853,648.102539 
	C704.196777,654.463867 699.014282,658.956787 690.655762,657.369995 
	C687.668579,656.802917 685.702209,658.186157 686.919312,661.222656 
	C689.576477,667.851501 685.914368,672.659424 682.267273,676.980469 
	C677.727966,682.358521 677.163696,682.464233 681.943726,687.823303 
	C685.881348,692.238037 687.276245,697.268677 687.065552,702.987610 
	C686.997131,704.842468 686.052185,707.187805 689.046814,707.824463 
	C691.690552,708.386658 693.308777,707.333679 694.727234,704.980652 
	C696.558289,701.943420 695.362976,699.587219 693.877502,697.109253 
	C691.379639,692.942566 689.476318,688.606934 688.670349,683.724976 
	C686.536804,670.800903 699.553833,660.019897 711.694397,657.683167 
M710.084290,691.794922 
	C707.825684,690.374268 705.613159,688.865601 704.042847,686.670166 
	C700.563721,681.805969 702.017151,676.630493 707.218445,675.114990 
	C714.363403,673.033142 723.126404,679.290344 723.432617,686.714417 
	C723.524658,688.945984 723.975220,690.957336 726.086670,692.181152 
	C730.090515,688.439758 730.796814,684.393433 728.506836,678.686218 
	C725.908264,672.209900 718.695984,666.416870 713.309937,666.479919 
	C706.321716,666.561646 697.262878,674.099731 696.384583,680.563904 
	C695.343079,688.229919 701.863708,697.794373 709.444458,699.606934 
	C711.889282,700.191528 714.413208,700.334717 716.846436,699.570679 
	C719.170715,698.840759 720.501343,697.171265 720.131104,694.672974 
	C719.753784,692.126099 717.661621,693.021484 716.138672,693.058411 
	C714.274536,693.103638 712.496643,692.864319 710.084290,691.794922 
z"/>
<path fill="#000000" opacity="1.000000" stroke="none" 
	d="
M604.598999,767.100220 
	C615.168396,772.586853 618.763855,781.870117 619.107178,792.505798 
	C619.547485,806.144592 619.207031,819.807373 619.316467,833.458984 
	C619.340088,836.407471 618.095581,837.543762 615.269958,837.913574 
	C598.802551,840.068726 598.822510,840.110657 598.722839,823.662964 
	C598.666321,814.347290 598.874817,805.033691 597.991821,795.726562 
	C597.336487,788.818970 593.933594,784.782654 587.784241,784.462524 
	C582.362000,784.180176 576.216248,789.010132 575.035400,794.416077 
	C573.810974,800.021667 574.406555,805.698242 574.328308,811.344482 
	C574.229187,818.502441 574.184509,825.664368 574.315125,832.820984 
	C574.388184,836.822998 573.057312,838.658752 568.740356,838.152039 
	C565.627319,837.786743 562.404480,837.896484 559.276733,838.228821 
	C555.037964,838.679077 553.770874,836.890930 553.728821,832.852905 
	C553.489441,809.885620 553.039917,786.920654 552.720032,763.954041 
	C552.622681,756.962646 552.823242,749.966125 552.664490,742.976990 
	C552.586670,739.549500 554.042419,738.096130 557.332092,738.056763 
	C561.659973,738.004944 565.988708,737.928711 570.313904,737.773743 
	C573.294067,737.666931 574.157410,739.104919 574.532837,741.954773 
	C575.540222,749.601379 575.071899,757.241699 575.066833,764.888794 
	C575.065857,766.345825 574.753174,767.910522 576.452454,769.601257 
	C585.210815,765.804321 594.411560,762.224731 604.598999,767.100220 
z"/>
<path fill="#000000" opacity="1.000000" stroke="none" 
	d="
M708.900757,351.991272 
	C708.816223,342.996460 708.593567,334.496857 708.739197,326.003571 
	C708.812073,321.754944 707.349426,319.251038 703.694641,316.680481 
	C692.345764,308.698303 681.129395,300.318390 679.131409,284.942932 
	C678.375305,279.124390 678.690186,273.302490 678.776184,267.479218 
	C678.818237,264.631104 680.671570,263.000183 683.237488,263.086639 
	C688.136780,263.251862 689.045227,260.052460 689.458069,256.406281 
	C690.469299,247.475418 693.721252,239.697525 700.586121,233.639801 
	C709.333984,225.920486 716.042480,225.117447 724.326416,233.255234 
	C740.169067,248.818268 749.640869,267.060486 743.553162,290.274658 
	C740.580933,301.608582 733.386230,309.736755 723.437927,315.247375 
	C718.554993,317.952209 717.117432,321.437256 717.300476,326.565308 
	C717.923889,344.033813 717.926025,361.507050 717.268433,378.979248 
	C717.103333,383.366028 716.440979,387.494904 712.068176,392.100403 
	C708.133118,378.342346 710.017578,365.253479 708.900757,351.991272 
M727.095215,252.474258 
	C724.144226,246.708633 719.890930,242.190796 714.456909,238.636597 
	C712.224426,237.176361 710.586853,237.116608 708.790771,239.044342 
	C703.958496,244.231094 699.933289,249.826263 698.856628,257.100891 
	C697.875183,263.732269 700.092041,267.002838 706.681458,267.607880 
	C711.022705,268.006531 715.167542,268.681519 719.268433,270.342468 
	C723.804871,272.179779 726.884521,270.535828 728.886353,265.985626 
	C730.886047,261.440399 729.787903,257.212036 727.095215,252.474258 
M689.198181,283.556885 
	C689.907104,289.916626 692.478821,295.209351 697.557007,299.336548 
	C700.733215,301.917938 703.586670,301.895477 706.301025,299.082367 
	C708.656738,296.641083 708.186646,290.786591 705.324158,288.800171 
	C701.579895,286.201843 698.570312,283.006073 695.800354,279.449554 
	C694.307373,277.532654 692.553467,275.664795 689.729431,275.703125 
	C687.527893,277.934235 688.566223,280.373260 689.198181,283.556885 
M718.432190,298.670044 
	C723.209534,299.983673 725.178650,295.991913 727.099854,293.273224 
	C728.787292,290.885345 730.286377,290.697723 732.707886,291.745636 
	C733.950195,287.136749 736.342651,283.123016 733.493103,278.239471 
	C728.568848,280.976898 725.461426,285.261292 721.281982,288.128296 
	C717.500671,290.722260 716.538940,293.887146 718.432190,298.670044 
z"/>
<path fill="#000000" opacity="1.000000" stroke="none" 
	d="
M267.424377,296.192505 
	C271.537231,295.993103 275.220917,295.515045 278.839508,295.816986 
	C285.329285,296.358490 288.244232,299.822357 287.833954,305.965851 
	C287.501556,310.943115 287.134369,315.924652 286.539764,320.875153 
	C286.223999,323.504089 286.590912,325.363403 289.310028,326.469513 
	C294.628693,328.633179 296.417206,332.740479 296.336792,338.403656 
	C296.135895,352.552094 296.368866,366.706329 296.371124,380.858215 
	C296.372406,388.692383 292.904999,392.278809 285.288422,392.405029 
	C267.980865,392.691772 250.673309,392.993195 233.364685,393.196381 
	C225.007004,393.294495 221.833389,390.215240 221.916656,381.786865 
	C222.064560,366.814301 221.673157,351.835052 222.558380,336.867340 
	C222.778839,333.139923 224.209747,330.223358 227.347900,328.694458 
	C232.224884,326.318329 233.221115,322.594452 232.811432,317.653046 
	C232.506989,313.980865 232.158600,310.410583 230.909241,306.906860 
	C228.844650,301.116913 230.930771,297.800110 237.096558,296.568115 
	C243.058319,295.376953 249.041977,295.901917 255.011139,296.330505 
	C259.008545,296.617523 262.983154,296.799042 267.424377,296.192505 
M231.976944,356.501282 
	C232.035339,363.325195 232.051483,370.149841 232.165558,376.972839 
	C232.256287,382.398804 233.552246,383.636688 239.066254,383.503357 
	C240.880646,383.459503 242.840454,383.379272 244.466568,382.687561 
	C250.228989,380.236267 256.392761,379.860504 262.419281,378.714447 
	C271.543121,376.979462 278.313507,372.236328 281.390076,363.028534 
	C282.967407,358.307770 284.366577,353.539581 286.212341,348.885681 
	C288.061920,344.222137 286.817261,339.899963 282.754913,336.346405 
	C270.951813,326.021545 254.575150,324.666321 240.903687,332.285187 
	C234.140121,336.054352 230.516159,340.584595 231.902283,348.522095 
	C232.297287,350.783997 231.969635,353.172119 231.976944,356.501282 
M265.193726,306.943481 
	C260.544983,307.042114 255.895828,307.124969 251.247696,307.246918 
	C249.298218,307.298065 247.550705,307.777832 247.181442,310.074127 
	C246.715500,312.971527 245.720947,315.873322 246.939590,318.886597 
	C253.143753,318.886597 259.249115,318.812531 265.351379,318.918427 
	C268.326019,318.970001 270.796173,318.650726 270.714203,314.863037 
	C270.639343,311.403992 272.069000,307.019653 265.193726,306.943481 
z"/>
<path fill="#000000" opacity="1.000000" stroke="none" 
	d="
M756.100586,782.234863 
	C756.813721,780.489746 757.252930,779.035767 757.955750,777.722839 
	C760.039368,773.830994 760.052673,767.550781 764.237793,766.365784 
	C770.601746,764.563843 777.631104,765.136353 785.237122,766.132080 
	C783.145569,770.608459 781.119324,774.354553 779.599243,778.295959 
	C770.913635,800.816772 761.333618,822.964478 751.876892,845.163757 
	C750.704468,847.916138 749.148071,850.505249 747.979187,853.259033 
	C744.112061,862.369202 736.816040,865.540405 727.528809,864.966797 
	C722.724915,864.670044 717.959595,863.785950 713.166687,863.260315 
	C710.223328,862.937561 709.568542,861.515320 710.480957,858.818665 
	C712.179077,853.799988 713.153015,848.594543 713.935730,843.020386 
	C714.976746,843.372009 715.774231,843.529602 716.464478,843.891602 
	C724.896973,848.313477 731.451843,845.789673 735.028076,836.884888 
	C735.958374,834.568298 735.190857,832.724731 734.367859,830.689392 
	C726.383667,810.944702 717.460449,791.586121 710.089233,771.589111 
	C708.183350,766.418579 708.465454,765.929993 714.016541,765.821167 
	C717.180847,765.759094 720.460144,766.261780 723.486694,765.596375 
	C729.470703,764.280762 731.490234,767.159790 733.309326,772.299072 
	C737.459900,784.025146 742.720337,795.347412 746.291016,807.968201 
	C750.556580,799.358032 752.992981,790.875061 756.100586,782.234863 
z"/>
<path fill="#000000" opacity="1.000000" stroke="none" 
	d="
M336.908691,777.995605 
	C353.764771,757.695190 385.887726,761.186584 396.868500,784.249451 
	C400.182861,791.210510 400.217438,798.756165 400.232147,806.262817 
	C400.238556,809.525696 397.871460,809.344238 395.665588,809.343933 
	C383.333496,809.342102 371.001373,809.332825 358.669281,809.326416 
	C356.865082,809.325439 355.060883,809.326294 352.640533,809.326294 
	C353.694702,814.689697 356.428680,817.946411 360.921173,819.480591 
	C370.118530,822.621338 378.224640,820.661499 385.127106,813.224915 
	C389.102417,817.957275 393.515717,821.863953 398.346619,825.341370 
	C379.763214,844.344482 357.006531,841.707397 343.815765,831.085022 
	C328.081970,818.414856 325.253235,796.029785 336.908691,777.995605 
M372.331146,794.744507 
	C374.684204,794.454712 377.296600,795.670288 379.352020,793.676453 
	C378.442841,787.300415 374.659515,783.384766 368.541504,782.370117 
	C362.142212,781.308777 355.888733,784.177246 353.225708,789.270386 
	C351.577484,792.422791 352.604767,794.065247 355.964050,794.239380 
	C361.098358,794.505432 366.242828,794.575684 372.331146,794.744507 
z"/>
<path fill="#000000" opacity="1.000000" stroke="none" 
	d="
M405.279297,818.528870 
	C404.264587,806.315186 412.960938,799.050964 423.557800,795.892395 
	C429.865662,794.012329 436.423218,794.617126 442.908203,794.621582 
	C445.189270,794.623108 447.543152,795.192078 449.754181,794.212891 
	C449.998260,787.638611 446.460022,783.746521 439.781494,783.150208 
	C431.925201,782.448608 425.059814,784.802979 418.916046,790.508362 
	C415.154999,785.221375 411.643402,780.285034 408.125885,775.340393 
	C421.588196,766.179871 442.328918,761.668335 455.579529,768.157898 
	C464.402466,772.478943 468.760590,779.544861 469.191193,789.159851 
	C469.711945,800.788391 468.843079,812.455933 470.143707,824.066895 
	C470.328613,825.717712 470.084961,827.444519 470.449585,829.042542 
	C472.197144,836.701538 472.995453,837.206848 462.623566,838.163574 
	C457.463837,838.639587 452.207550,839.081421 451.392914,830.964355 
	C439.994202,839.369385 428.400024,842.184082 416.009552,835.487793 
	C409.545288,831.994202 406.296509,826.136841 405.279297,818.528870 
M445.399841,819.991943 
	C446.268219,819.223999 447.212006,818.525024 447.989868,817.674316 
	C449.823883,815.668640 450.378967,813.175903 449.515106,810.713257 
	C448.707001,808.409668 446.196564,808.856445 444.328583,808.551636 
	C440.151489,807.870117 436.039459,808.868164 431.967407,809.567810 
	C429.201965,810.042969 427.003265,811.824646 426.594818,814.785461 
	C426.181091,817.784851 427.953705,819.794861 430.491058,821.140808 
	C435.391113,823.740173 440.122650,822.850464 445.399841,819.991943 
z"/>
<path fill="#000000" opacity="1.000000" stroke="none" 
	d="
M349.556030,328.538696 
	C345.833374,332.825806 342.323639,336.825623 338.833618,340.842590 
	C336.409790,343.632385 334.210541,343.514008 331.881622,340.617737 
	C324.167297,331.024170 315.994690,321.794586 308.277130,312.224487 
	C296.823883,298.022003 293.840027,282.191986 302.265320,265.159149 
	C314.676941,240.067398 350.391235,237.440460 366.540771,260.449249 
	C376.881104,275.181488 376.804626,291.316040 366.358978,307.023590 
	C361.370209,314.525391 355.526459,321.353668 349.556030,328.538696 
M333.782227,308.363831 
	C339.858521,308.417084 344.491730,305.208130 348.922485,301.600861 
	C350.465210,300.344849 351.757599,298.782349 354.060333,298.949768 
	C358.466064,299.270111 359.782104,295.934784 359.590515,292.816833 
	C358.988434,283.018585 357.544250,273.439606 350.469421,265.626099 
	C346.257538,260.974518 340.459656,258.646759 335.223877,256.727386 
	C330.104340,254.850647 324.350586,258.611359 319.952881,262.427795 
	C314.417053,267.232025 313.535858,275.021790 308.717163,280.372253 
	C307.748138,281.448181 307.885712,283.549652 308.993652,285.380646 
	C311.815277,285.154419 313.722626,286.083679 314.212036,289.502380 
	C315.767517,300.368042 322.948303,305.794067 333.782227,308.363831 
z"/>
<path fill="#000000" opacity="1.000000" stroke="none" 
	d="
M386.195526,680.722046 
	C395.512146,685.989258 395.773254,691.200867 387.060150,696.555725 
	C383.662506,698.643921 382.686981,701.088379 383.525085,704.871338 
	C385.090118,711.935486 380.628876,716.553345 373.311066,715.848022 
	C366.703217,715.211060 362.782593,720.032898 358.264618,723.549744 
	C356.834381,724.663025 355.771362,726.232605 353.996857,726.933167 
	C349.222992,728.817871 345.397949,727.731934 343.130646,723.097473 
	C341.157349,719.063904 338.549011,717.381409 333.943146,716.951721 
	C323.084534,715.938843 322.335938,713.355713 322.821564,705.004822 
	C323.062744,700.858215 322.625244,697.038391 317.306213,695.857605 
	C314.417328,695.216187 314.651550,692.216370 314.849518,689.968079 
	C315.105988,687.054932 313.221466,683.164246 317.281616,681.610107 
	C322.760254,679.512939 323.552185,675.595764 323.024536,670.399353 
	C322.288971,663.155212 324.770325,660.572815 332.008575,661.085876 
	C337.129059,661.448792 340.486145,659.925903 341.510529,654.689697 
	C342.152771,651.406921 344.392914,650.722229 347.288422,650.360718 
	C354.896332,649.410583 356.785553,650.255554 360.858521,657.123047 
	C363.400146,661.408508 367.505005,661.279907 371.463257,660.415100 
	C379.270477,658.709473 384.687439,663.850647 382.775818,671.671509 
	C381.852570,675.448669 381.899017,678.612976 386.195526,680.722046 
M364.118927,687.094604 
	C361.339874,676.858643 352.831635,672.711975 345.647095,678.091980 
	C340.360046,682.051086 339.006836,687.699036 341.813049,694.094116 
	C344.033966,699.155396 348.562378,701.597595 353.955475,700.642517 
	C360.114288,699.551819 363.789185,694.994141 364.118927,687.094604 
M333.834686,678.631897 
	C334.978363,675.391663 338.102966,673.196777 338.851807,669.717590 
	C332.519043,667.128174 329.602417,669.152649 329.159729,676.260986 
	C328.904663,680.357422 329.387146,684.544434 324.114838,686.384338 
	C321.769012,687.203003 321.692078,689.644592 323.959839,691.033264 
	C327.618591,693.273560 329.500244,696.583496 330.733795,700.491394 
	C331.066681,701.545959 331.603302,702.778320 333.754395,701.798157 
	C331.771667,694.452087 329.969147,686.867920 333.834686,678.631897 
M354.502167,660.352112 
	C353.543213,658.337585 351.965149,656.812866 349.803741,657.953796 
	C346.482544,659.706970 346.106903,662.983337 346.252472,666.352112 
	C353.573090,667.346008 354.411072,666.797607 354.502167,660.352112 
M374.413605,675.676758 
	C375.283142,673.018494 374.567810,670.840759 372.520721,668.973755 
	C370.483551,667.115845 367.891815,666.599854 366.506195,668.873535 
	C364.738831,671.773560 368.278473,673.376831 369.526611,675.500366 
	C370.580933,677.294189 372.081360,678.886475 374.413605,675.676758 
z"/>
<path fill="#000000" opacity="1.000000" stroke="none" 
	d="
M284.908264,767.249634 
	C277.957153,765.387695 271.120514,766.269470 264.363678,766.410706 
	C259.223297,766.518127 257.460022,764.723145 257.817017,759.802490 
	C258.057037,756.494263 257.843811,753.141541 257.664215,749.817871 
	C257.501770,746.811401 258.763916,745.595398 261.758667,745.687256 
	C266.084869,745.819946 270.437225,745.473938 274.744232,745.793396 
	C292.543152,747.113647 310.335571,745.863647 328.128113,745.776062 
	C332.418243,745.754944 334.019531,747.119812 334.071014,751.475525 
	C334.245117,766.207764 334.364563,766.213013 319.690796,766.154297 
	C317.694366,766.146301 315.686127,766.151550 313.704376,765.947083 
	C307.478851,765.304993 307.079895,765.655396 307.463684,771.752869 
	C308.783020,792.713379 307.947327,813.672485 307.468201,834.633972 
	C307.408905,837.228516 306.405884,838.223083 303.905334,838.194397 
	C299.576263,838.144653 295.234314,838.028992 290.919312,838.293274 
	C286.830566,838.543823 285.816956,836.644531 285.826019,832.932190 
	C285.872345,813.947449 285.756714,794.962280 285.672729,775.977417 
	C285.660248,773.161072 286.047943,770.310181 284.908264,767.249634 
z"/>
<path fill="#000000" opacity="1.000000" stroke="none" 
	d="
M669.734375,816.003052 
	C670.039124,807.360107 670.208618,799.208130 670.700806,791.075684 
	C670.980408,786.455261 669.354187,783.999573 664.549561,784.347961 
	C661.067871,784.600403 659.700195,782.914673 659.723999,779.646057 
	C659.736145,777.982239 659.658875,776.317444 659.607544,774.653564 
	C659.385986,767.460693 659.376038,767.378174 666.400940,766.704468 
	C668.595703,766.493958 669.832581,765.665161 670.059021,763.484802 
	C670.281982,761.338562 670.565247,759.190369 670.629578,757.037292 
	C670.946045,746.447998 678.535706,737.833801 689.117493,736.879639 
	C695.056335,736.344055 701.090027,736.537964 707.062927,736.806213 
	C711.913513,737.023987 713.569946,739.348999 712.975708,744.029785 
	C711.862122,752.800964 710.199341,754.173218 699.683105,754.999634 
	C693.442749,755.490051 691.789612,757.081726 691.372070,762.630127 
	C691.169556,765.320679 691.963196,766.803406 694.898682,766.652588 
	C697.223694,766.533142 699.554932,766.539368 701.883179,766.478333 
	C702.878113,766.452271 704.061707,766.022156 704.836853,766.414001 
	C711.210205,769.636169 707.029724,775.545898 708.099670,780.139526 
	C708.815063,783.211182 706.329956,783.517151 703.950623,783.423279 
	C702.287964,783.357666 700.620850,783.408142 698.955688,783.405762 
	C691.361877,783.394958 691.335754,783.394775 691.321594,791.241272 
	C691.296936,804.895264 691.201355,818.550476 691.365356,832.202454 
	C691.419006,836.672363 689.996277,838.667725 685.279663,838.134399 
	C682.326294,837.800415 679.294739,838.189514 676.298035,838.201904 
	C669.806274,838.228882 669.796509,838.215210 669.763123,831.488342 
	C669.738342,826.492981 669.742798,821.497559 669.734375,816.003052 
z"/>
<path fill="#000000" opacity="1.000000" stroke="none" 
	d="
M296.777283,168.925537 
	C306.206970,172.765640 312.052887,179.473297 315.124176,188.630936 
	C316.057434,191.413528 317.606506,192.898865 320.477600,193.823929 
	C330.175812,196.948685 334.603668,204.351440 333.372162,214.664719 
	C332.314270,223.524216 324.022095,231.469131 315.287262,232.516769 
	C309.759033,233.179794 304.319397,232.287582 298.837585,232.368698 
	C282.362457,232.612473 265.887421,232.899902 249.411255,233.014679 
	C243.022171,233.059174 236.908554,232.383209 232.245163,226.877945 
	C226.221237,219.766571 226.015289,211.987564 229.128418,203.943420 
	C232.511078,195.202820 238.942581,189.510681 248.542389,189.014297 
	C253.288483,188.768875 255.551163,186.939987 257.509827,182.862396 
	C264.175934,168.984650 280.171356,163.353073 296.777283,168.925537 
M267.071625,187.637650 
	C264.532532,191.090179 263.771271,195.253998 262.612274,199.221420 
	C261.397949,203.378235 259.457336,204.846954 255.422043,202.332611 
	C251.199234,199.701447 246.942352,199.481171 242.996231,202.949081 
	C239.142838,206.335480 236.812714,213.095245 238.635757,217.011230 
	C240.815353,221.693069 245.368530,222.487595 250.001328,222.730209 
	C250.499252,222.756302 250.999985,222.735489 251.499268,222.727310 
	C267.798462,222.460709 284.098145,222.218567 300.396545,221.910095 
	C305.400360,221.815399 310.403809,221.338409 315.174835,219.791687 
	C320.026855,218.218704 323.153168,213.517700 322.310394,209.693726 
	C321.351776,205.343964 317.604218,202.079010 313.227020,202.978058 
	C307.413147,204.172195 305.919922,202.004166 305.140778,196.543411 
	C303.766327,186.910553 297.628052,180.497314 288.232300,178.350662 
	C279.669495,176.394302 272.662903,179.991333 267.071625,187.637650 
z"/>
<path fill="#000000" opacity="1.000000" stroke="none" 
	d="
M503.250427,810.544739 
	C510.089111,821.747375 521.308350,821.637390 530.422913,814.369324 
	C533.212524,812.144836 534.914490,812.189148 537.133545,814.474976 
	C540.458496,817.900085 544.252258,820.935791 546.408875,825.268799 
	C530.611328,843.144531 500.014954,842.559814 486.379486,824.334656 
	C475.932770,810.371521 477.219818,788.441101 489.637268,776.054871 
	C499.937042,765.781128 520.701660,758.560181 538.974243,772.248840 
	C539.907166,772.947876 540.814636,773.681091 541.752869,774.372803 
	C545.018433,776.780273 544.961914,778.276672 542.328064,782.134216 
	C536.761475,790.286804 532.289917,790.917053 523.638123,785.763000 
	C513.196716,779.542725 501.307159,788.377258 501.105865,801.018188 
	C501.054901,804.218689 501.675293,807.306641 503.250427,810.544739 
z"/>
<path fill="#000000" opacity="1.000000" stroke="none" 
	d="
M631.144775,773.680298 
	C630.885254,770.783569 630.205017,768.318237 631.316345,765.745483 
	C636.762878,765.745483 642.190552,765.753052 647.618164,765.742065 
	C650.070557,765.737122 651.052673,766.924500 651.322388,769.381592 
	C653.623596,790.349548 655.461670,811.319336 654.543701,832.469238 
	C654.341736,837.123047 652.912964,838.698120 648.382080,838.332825 
	C644.753967,838.040283 641.021118,838.026855 637.432190,838.553528 
	C633.815674,839.084229 632.684509,837.977905 632.635376,834.443665 
	C632.388062,816.657837 631.987000,798.874146 631.612793,781.090210 
	C631.563904,778.768616 631.358032,776.450317 631.144775,773.680298 
z"/>
<path fill="#000000" opacity="1.000000" stroke="none" 
	d="
M428.700012,721.252747 
	C416.166718,725.528809 408.489777,716.411438 409.392242,708.175781 
	C410.053284,702.142639 412.891998,698.351318 418.622681,696.577393 
	C424.474396,694.766113 429.497650,696.216553 432.850983,700.685852 
	C436.428284,705.453613 436.771484,711.062500 433.800781,716.063477 
	C432.596893,718.089966 431.119385,719.852844 428.700012,721.252747 
M420.436188,707.678650 
	C420.328674,709.980103 420.827698,711.970520 423.413452,712.564148 
	C424.739594,712.868591 425.580048,712.062378 425.940521,710.822693 
	C426.466919,709.012207 426.524963,707.063293 425.012573,705.843689 
	C423.346863,704.500549 421.655975,704.955505 420.436188,707.678650 
z"/>
<path fill="#000000" opacity="1.000000" stroke="none" 
	d="
M630.264771,753.581787 
	C626.557312,745.960693 628.894043,739.784912 636.295288,736.755188 
	C641.396790,734.666870 648.802979,736.001953 652.499329,739.932861 
	C655.378662,742.994873 656.954041,746.626953 655.234558,750.853210 
	C653.472168,755.185181 645.745972,759.585144 640.836365,759.071960 
	C636.779602,758.648010 633.047058,757.386414 630.264771,753.581787 
z"/>
<path fill="#000000" opacity="1.000000" stroke="none" 
	d="
M209.003021,565.629395 
	C207.914017,559.387817 208.192978,553.953613 213.715744,550.096191 
	C218.128632,547.013977 223.079712,546.853455 227.702408,549.865662 
	C232.870941,553.233521 235.094086,557.947937 233.850235,562.902832 
	C232.396118,568.695312 228.333969,572.558105 222.979599,573.240112 
	C216.257309,574.096252 212.631882,572.199707 209.003021,565.629395 
M224.239395,558.362488 
	C222.203705,556.570862 220.060028,556.573181 218.087234,558.308777 
	C216.838531,559.407349 216.830200,560.956665 217.768784,562.321838 
	C218.965225,564.062073 220.825119,564.158203 222.618393,563.733459 
	C225.247986,563.110535 225.053802,561.080933 224.239395,558.362488 
z"/>
<path fill="#000000" opacity="1.000000" stroke="none" 
	d="
M820.947021,545.361206 
	C813.363464,545.046265 808.507202,540.426208 808.679077,534.109375 
	C808.870422,527.076782 814.131836,521.634644 820.892700,521.476196 
	C827.893982,521.312134 832.943604,526.095703 833.353577,532.933838 
	C833.689331,538.534790 828.266541,546.458679 820.947021,545.361206 
z"/>
<path fill="#000000" opacity="1.000000" stroke="none" 
	d="
M395.145935,244.687988 
	C402.384125,245.099762 407.007538,249.376587 407.016907,255.267380 
	C407.025940,260.943054 401.791382,266.590881 396.134216,267.009216 
	C390.501343,267.425781 385.736603,263.318665 384.881195,257.309326 
	C383.995300,251.085693 387.805664,246.200546 395.145935,244.687988 
z"/>
<path fill="#000000" opacity="1.000000" stroke="none" 
	d="
M325.510925,370.792419 
	C316.617004,367.339417 314.850342,356.198608 322.998688,350.598297 
	C326.711609,348.046478 330.733093,347.484589 334.499054,350.620789 
	C338.955963,354.332397 340.696136,360.209198 338.754425,364.417938 
	C335.917725,370.566589 331.613983,372.748230 325.510925,370.792419 
z"/>
<path fill="#000000" opacity="1.000000" stroke="none" 
	d="
M618.527344,719.138611 
	C609.703796,719.356689 604.545349,714.534424 604.804077,706.772949 
	C605.021240,700.258789 610.248047,696.040588 617.507324,696.521118 
	C623.035034,696.887024 626.832642,700.536255 627.685242,706.301331 
	C628.513611,711.902649 625.292358,716.602417 618.527344,719.138611 
M618.515686,706.196716 
	C617.451965,704.684814 616.093323,703.856812 614.356201,704.967834 
	C612.878418,705.913147 612.889343,707.446289 613.463806,708.920471 
	C613.910400,710.066589 614.808899,710.839905 616.109253,710.733643 
	C618.501465,710.538086 618.965088,708.922913 618.515686,706.196716 
z"/>
<path fill="#000000" opacity="1.000000" stroke="none" 
	d="
M790.460938,747.439697 
	C788.904480,745.877686 789.269287,747.589722 789.019714,748.063904 
	C788.715576,748.641785 788.577759,749.316162 788.423767,749.962097 
	C788.142883,751.139587 787.825500,752.416321 786.280334,752.150696 
	C784.810120,751.897888 784.786926,750.543945 784.777222,749.369873 
	C784.751160,746.225708 784.768311,743.081238 784.768311,739.853271 
	C780.282593,739.543945 780.435547,742.830444 780.277649,746.279114 
	C780.177124,748.476013 781.724915,752.469055 778.425781,752.430420 
	C774.992859,752.390320 777.027527,748.429993 776.731873,746.248962 
	C776.363525,743.532593 777.076904,740.920227 773.524902,739.259766 
	C771.369995,738.252441 772.035950,735.328247 774.691711,735.065674 
	C779.445618,734.595703 784.269897,734.732422 789.061646,734.808044 
	C790.770386,734.835083 791.480164,736.396240 792.027283,737.828064 
	C792.597473,739.319885 792.560059,741.160706 794.362183,741.898438 
	C795.907104,741.468018 795.795715,740.180908 796.013611,739.077576 
	C796.323914,737.505798 796.133850,735.400269 798.660889,735.756042 
	C800.822083,736.060242 802.320557,737.224609 802.357483,739.696350 
	C802.394714,742.187805 802.440552,744.683960 802.631287,747.166626 
	C802.768311,748.951294 802.815613,750.667480 800.635193,751.069702 
	C798.318115,751.497070 798.025146,749.579407 797.479797,747.658386 
	C796.204468,749.145264 796.119141,751.781189 793.424988,751.339722 
	C791.282166,750.988586 791.191833,749.151917 790.460938,747.439697 
z"/>
<path fill="#000000" opacity="1.000000" stroke="none" 
	d="
M779.276245,281.236084 
	C772.866394,278.690369 769.733704,273.553101 770.841492,268.023224 
	C771.986877,262.306213 777.224609,258.694122 782.525940,259.965240 
	C787.827271,261.236389 791.863037,268.173401 789.848511,273.318207 
	C788.101013,277.781128 785.352356,281.550690 779.276245,281.236084 
z"/>
<path fill="#000000" opacity="1.000000" stroke="none" 
	d="
M741.987061,407.865662 
	C737.298096,412.063324 734.193481,412.302917 729.792236,409.383514 
	C725.956177,406.839020 725.332825,403.545593 726.905762,399.470398 
	C728.573059,395.150604 732.139465,393.121094 737.233521,393.720642 
	C743.390747,394.445343 745.821899,401.161255 741.987061,407.865662 
z"/>
<path fill="#000000" opacity="1.000000" stroke="none" 
	d="
M268.581299,280.602386 
	C259.389313,277.654449 256.956543,267.050903 263.786896,261.064697 
	C266.130646,259.010559 268.716614,258.935455 270.767426,261.387756 
	C273.771271,264.979675 275.662048,268.917480 272.853516,273.594299 
	C271.499725,275.848633 270.214417,278.144043 268.581299,280.602386 
z"/>
<path fill="#000000" opacity="1.000000" stroke="none" 
	d="
M770.776733,682.328003 
	C767.806763,681.869690 763.420837,683.492615 763.587341,679.604553 
	C763.720703,676.489807 767.990356,677.785095 770.427551,677.753906 
	C773.682739,677.711975 776.444519,677.655823 778.638977,674.499451 
	C780.185913,672.274597 783.051819,672.035400 785.315613,673.898071 
	C787.673950,675.838562 790.851196,677.695862 789.271912,681.583130 
	C788.166992,684.302795 787.081970,687.341919 783.744812,688.173828 
	C780.242737,689.046814 778.078491,687.036194 776.478027,684.245667 
	C775.240601,682.088318 773.201599,682.318176 770.776733,682.328003 
z"/>
<path fill="#000000" opacity="1.000000" stroke="none" 
	d="
M679.006531,340.354218 
	C677.816895,339.133942 676.940430,338.136627 676.043579,337.157990 
	C671.445435,332.140228 673.010315,326.431824 679.563782,324.332031 
	C683.088623,323.202606 688.857910,328.152344 689.021057,332.445862 
	C689.162537,336.168457 683.109131,341.242676 679.006531,340.354218 
z"/>
<path fill="#000000" opacity="1.000000" stroke="none" 
	d="
M308.856140,413.689606 
	C305.535553,418.041443 304.370422,418.115845 302.799988,413.884979 
	C301.754456,411.068329 300.243713,409.857910 297.318665,410.100037 
	C295.604309,410.241974 294.300323,409.494110 294.397400,407.581970 
	C294.504639,405.470245 296.063049,405.413300 297.669495,405.678345 
	C300.888519,406.209473 302.830231,405.290771 302.735596,401.598450 
	C302.680298,399.442566 303.899475,398.146301 306.120544,398.191681 
	C308.054230,398.231171 309.310394,399.335083 309.262054,401.302582 
	C309.192017,404.152313 310.885864,404.962952 313.246979,405.355530 
	C314.479919,405.560577 315.362671,406.377441 315.465027,407.702240 
	C315.587891,409.292328 314.324127,409.624451 313.183563,409.762573 
	C310.942017,410.033997 309.481323,411.074524 308.856140,413.689606 
z"/>
<path fill="#000000" opacity="1.000000" stroke="none" 
	d="
M397.389679,155.156525 
	C394.279083,158.635315 391.937195,165.846878 388.007874,155.938675 
	C387.471222,154.585388 385.189789,154.410187 383.477631,154.340088 
	C382.022095,154.280487 380.377228,154.463699 379.937805,152.451035 
	C380.465820,150.771194 381.885559,150.844666 383.198700,150.799652 
	C386.076965,150.700974 388.220398,149.671692 389.554779,146.874634 
	C391.129974,143.572800 393.245270,144.623276 394.794098,146.878052 
	C395.758942,148.282684 396.411865,149.650131 398.326691,149.994217 
	C400.113373,150.315308 402.993561,149.797302 402.655487,152.773361 
	C402.355164,155.417313 399.649231,154.771606 397.389679,155.156525 
z"/>
<path fill="#000000" opacity="1.000000" stroke="none" 
	d="
M403.228699,290.738129 
	C404.873047,292.578400 407.182251,293.296173 407.977783,295.965820 
	C404.985077,297.381165 402.043121,298.754547 400.895477,302.535675 
	C400.226776,304.738831 397.803467,303.741760 397.080261,302.130890 
	C395.551239,298.725128 392.653503,297.468048 389.609283,296.646240 
	C388.880615,294.241608 390.464081,293.783691 391.842407,293.228760 
	C393.378510,292.610382 394.907410,292.118164 396.005096,290.672424 
	C399.552185,286.000671 399.593018,286.031677 403.228699,290.738129 
z"/>
<path fill="#000000" opacity="1.000000" stroke="none" 
	d="
M392.546570,726.444702 
	C395.901184,723.748169 397.681702,725.878357 399.175812,728.200623 
	C400.680542,730.539429 403.059204,732.494446 400.134460,735.929749 
	C394.551575,742.487183 393.391968,741.712219 388.786316,735.353943 
	C385.822723,731.262695 390.727814,729.460938 392.546570,726.444702 
z"/>
<path fill="#000000" opacity="1.000000" stroke="none" 
	d="
M519.691772,717.457031 
	C521.978149,717.201355 523.794861,718.560730 524.798828,721.033936 
	C526.121582,724.292542 523.747070,728.661072 519.914368,730.020081 
	C516.604675,731.193604 512.728882,728.973450 512.063477,725.267273 
	C511.518402,722.231262 511.757141,719.433350 516.089783,719.836853 
	C517.787720,719.994934 519.524048,720.161255 519.691772,717.457031 
z"/>
<path fill="#000000" opacity="1.000000" stroke="none" 
	d="
M222.173584,274.245026 
	C224.019012,272.290497 225.774231,270.007446 227.912170,273.028473 
	C229.642960,275.474152 234.439011,277.185242 230.658890,281.539978 
	C229.691879,282.654022 229.015289,284.014709 228.119308,285.196930 
	C226.252350,287.660217 224.479965,287.917816 222.922195,284.867218 
	C222.472702,283.986969 222.150848,282.846954 221.415939,282.339020 
	C217.101013,279.356903 218.307480,276.873535 222.173584,274.245026 
z"/>
<path fill="#000000" opacity="1.000000" stroke="none" 
	d="
M269.104095,705.817627 
	C272.871948,706.383240 274.438568,708.555603 274.219177,711.777588 
	C274.016846,714.748657 272.718018,717.361023 269.529205,718.107483 
	C266.688171,718.772522 264.728119,716.903625 263.292877,714.822754 
	C260.961273,711.442322 263.016663,708.150269 269.104095,705.817627 
z"/>
<path fill="#000000" opacity="1.000000" stroke="none" 
	d="
M305.081268,709.858643 
	C305.293121,710.863220 305.525757,711.536316 305.451172,712.173584 
	C305.097351,715.196716 303.525177,718.041870 300.693390,718.420410 
	C297.621460,718.830994 295.680115,716.015259 294.940277,713.172424 
	C294.107422,709.972168 295.879272,707.614502 298.684387,706.379333 
	C301.775360,705.018311 303.700012,706.788025 305.081268,709.858643 
z"/>
<path fill="#000000" opacity="1.000000" stroke="none" 
	d="
M801.051758,675.717773 
	C802.152039,675.695984 802.812927,675.665405 803.470276,675.700867 
	C806.111511,675.843323 808.722534,676.392761 808.637207,679.683472 
	C808.544250,683.268921 805.419495,683.117371 803.084717,682.988525 
	C799.206055,682.774536 795.336426,682.084900 791.926025,678.983826 
	C794.493835,676.321716 797.492432,675.882507 801.051758,675.717773 
z"/>
<path fill="#000000" opacity="1.000000" stroke="none" 
	d="
M258.459290,709.411743 
	C259.662354,713.031128 257.782562,714.523193 255.014755,714.795715 
	C251.738831,715.118225 247.879547,716.841187 245.421829,713.360168 
	C243.849533,711.133118 244.725983,708.630188 247.703140,708.174683 
	C251.212875,707.637695 254.882751,706.918579 258.459290,709.411743 
z"/>
<path fill="#000000" opacity="1.000000" stroke="none" 
	d="
M284.937500,715.399658 
	C281.914825,715.187561 278.847168,715.534607 278.190765,712.083618 
	C277.811920,710.092041 279.310211,708.581177 281.184113,708.076538 
	C284.354340,707.222717 287.832886,706.175659 290.534454,708.854919 
	C292.806763,711.108459 290.045105,714.537659 284.937500,715.399658 
z"/>
<path fill="#000000" opacity="1.000000" stroke="none" 
	d="
M778.895020,707.717896 
	C782.209106,708.093872 784.055542,709.942749 783.825073,712.640137 
	C783.613708,715.113831 781.728760,717.384399 779.173462,717.836731 
	C776.216003,718.360168 774.763672,715.763733 773.835754,713.519714 
	C772.008362,709.100464 774.902283,708.025452 778.895020,707.717896 
z"/>
<path fill="#000000" opacity="1.000000" stroke="none" 
	d="
M578.249878,710.639893 
	C579.207764,708.697021 579.850525,706.914856 582.475281,706.697754 
	C582.934448,709.511169 585.250000,712.074829 583.588745,715.151367 
	C582.963074,716.309998 581.491333,716.729980 580.081604,715.998413 
	C577.974304,714.904968 577.516113,713.150940 578.249878,710.639893 
z"/>
<path fill="#000000" opacity="1.000000" stroke="none" 
	d="
M470.181519,721.062683 
	C467.509033,721.387085 465.211456,721.768433 462.905151,721.831604 
	C461.447540,721.871582 460.325226,720.961548 460.403900,719.353333 
	C460.477081,717.857910 461.628510,717.569702 462.919891,717.648560 
	C465.232910,717.789795 467.571045,717.753296 469.853516,718.093750 
	C471.989441,718.412415 473.171936,719.334229 470.181519,721.062683 
z"/>
<path fill="#000000" opacity="1.000000" stroke="none" 
	d="
M451.631866,370.066467 
	C468.047943,370.207642 484.048157,369.220245 500.008545,370.756470 
	C501.490875,370.899139 503.005554,371.051361 504.417755,371.484436 
	C506.001556,371.970154 506.831604,373.261627 506.714630,374.946106 
	C506.579315,376.895050 505.158569,377.336365 503.527191,377.317169 
	C500.195648,377.277863 496.855652,377.319275 493.535156,377.092621 
	C481.724792,376.286407 469.897980,376.290375 458.071564,376.167572 
	C455.917511,376.145233 453.751129,375.876862 451.620270,375.535858 
	C450.118774,375.295593 447.919800,375.888428 447.690826,373.463074 
	C447.465302,371.074524 449.236359,370.403290 451.631866,370.066467 
z"/>
<path fill="#000000" opacity="1.000000" stroke="none" 
	d="
M455.347046,352.184021 
	C452.392639,351.210419 447.731384,353.085205 447.885315,348.722778 
	C448.058197,343.822754 452.749329,345.843170 455.445709,345.804871 
	C469.901489,345.599518 484.363068,345.635712 498.820007,345.808838 
	C502.046722,345.847504 507.096832,345.003876 506.702850,350.118774 
	C506.308380,355.239929 501.609955,352.654541 498.665985,352.638550 
	C484.378021,352.561066 470.090729,352.358734 455.347046,352.184021 
z"/>
<path fill="#000000" opacity="1.000000" stroke="none" 
	d="
M492.872528,322.844360 
	C496.657104,323.205017 499.966522,323.505737 503.261169,323.922913 
	C505.641998,324.224365 506.774200,325.595551 506.431458,328.068420 
	C506.070923,330.669769 504.204437,330.634033 502.305786,330.408752 
	C486.085236,328.484406 469.774658,328.641937 453.487640,328.228760 
	C452.013000,328.191345 450.526062,327.845093 449.085938,327.480103 
	C447.844879,327.165527 447.081787,326.288696 447.216217,324.912476 
	C447.348999,323.553345 448.236572,322.967834 449.512115,322.694305 
	C453.321777,321.877380 457.126099,322.544464 460.937500,322.597504 
	C471.421051,322.743500 481.906403,322.764069 492.872528,322.844360 
z"/>
<path fill="#000000" opacity="1.000000" stroke="none" 
	d="
M502.248718,316.368164 
	C486.231140,314.588165 470.564880,315.385895 454.922211,315.200714 
	C453.259735,315.181030 451.588135,315.185211 449.938995,315.008301 
	C448.469788,314.850708 447.417450,313.903748 447.299103,312.429413 
	C447.161102,310.709900 448.549286,310.269958 449.915161,310.016449 
	C450.566254,309.895599 451.239807,309.846954 451.903107,309.847900 
	C468.376801,309.871033 484.864349,308.883545 501.316101,310.638245 
	C503.728790,310.895569 505.637634,311.479980 505.990662,314.124054 
	C506.356049,316.860992 504.277679,316.370148 502.248718,316.368164 
z"/>
<path fill="#000000" opacity="1.000000" stroke="none" 
	d="
M495.962921,388.214966 
	C481.804779,388.201813 468.140839,388.212616 454.477020,388.188416 
	C452.818237,388.185486 451.134766,388.135559 449.508514,387.848267 
	C448.026855,387.586517 447.236267,386.453613 447.376465,384.927185 
	C447.505768,383.519653 448.612244,383.050385 449.835480,382.890472 
	C450.657959,382.782959 451.496826,382.762543 452.328094,382.765839 
	C468.324829,382.829193 484.321533,382.900696 500.318207,382.976746 
	C500.983673,382.979919 501.656006,382.993988 502.312897,383.088196 
	C504.345398,383.379730 506.763184,383.810364 506.658447,386.284851 
	C506.531403,389.286194 503.732574,388.215363 501.950104,388.351624 
	C500.132904,388.490540 498.289246,388.283722 495.962921,388.214966 
z"/>
<path fill="#000000" opacity="1.000000" stroke="none" 
	d="
M482.991302,333.755493 
	C489.455505,334.089081 495.425201,334.367737 501.386597,334.769897 
	C504.398193,334.973083 506.413635,336.245758 505.862061,339.913818 
	C501.243805,340.986176 496.879089,339.260864 492.439392,339.291962 
	C479.813019,339.380402 467.185364,339.294037 454.558228,339.265411 
	C453.064270,339.262024 451.564880,339.256470 450.078125,339.131500 
	C448.589630,339.006317 447.539612,338.210144 447.508514,336.620941 
	C447.475739,334.945557 448.708282,334.277191 450.109863,334.167328 
	C452.921997,333.946838 455.747314,333.820190 458.568237,333.800507 
	C466.542999,333.744843 474.518280,333.762726 482.991302,333.755493 
z"/>
<path fill="#000000" opacity="1.000000" stroke="none" 
	d="
M483.999817,363.987549 
	C473.199921,363.780457 462.899811,363.577240 452.600189,363.352020 
	C451.608185,363.330383 450.600525,363.260071 449.633270,363.055542 
	C448.318573,362.777527 447.659912,361.843079 447.761902,360.512726 
	C447.853027,359.323975 448.698425,358.855957 449.796906,358.753448 
	C449.962341,358.738007 450.127441,358.702972 450.292633,358.703186 
	C467.414490,358.723572 484.536499,358.716827 501.658081,358.797638 
	C504.624237,358.811646 505.760986,360.568909 505.108246,363.985352 
	C498.295776,363.985352 491.397797,363.985352 483.999817,363.987549 
z"/>
<path fill="#000000" opacity="1.000000" stroke="none" 
	d="
M589.420532,329.134705 
	C572.857849,329.231964 556.737183,329.260803 540.616577,329.238525 
	C538.491577,329.235565 535.884033,329.462463 535.914734,326.258545 
	C535.943420,323.267303 538.471497,323.101929 540.609314,322.961578 
	C556.038269,321.948700 571.473206,321.592957 586.906982,322.882294 
	C588.907715,323.049408 591.062744,323.209717 591.809265,325.531891 
	C592.347473,327.206024 591.449646,328.393585 589.420532,329.134705 
z"/>
<path fill="#000000" opacity="1.000000" stroke="none" 
	d="
M570.292419,376.722900 
	C559.858093,376.533783 549.875305,376.429169 539.895081,376.207184 
	C538.087097,376.166992 535.389954,377.043915 535.143250,374.064514 
	C534.914795,371.305817 537.308044,370.353271 539.488098,370.203186 
	C544.792786,369.838013 550.120117,369.704376 555.439453,369.673187 
	C565.258301,369.615601 575.078186,369.674164 584.897156,369.746155 
	C586.545837,369.758240 588.225220,369.936401 589.830566,370.301056 
	C591.479248,370.675568 592.290405,371.973267 592.279053,373.645599 
	C592.265381,375.655426 590.746643,376.085541 589.194153,376.149353 
	C583.046265,376.402008 576.894897,376.568665 570.292419,376.722900 
z"/>
<path fill="#000000" opacity="1.000000" stroke="none" 
	d="
M537.138611,346.473450 
	C554.272644,345.028168 571.062805,345.854126 587.843445,345.764526 
	C590.231079,345.751770 591.704956,347.004883 591.765320,349.348206 
	C591.823120,351.593628 589.835449,351.987030 588.221619,351.998444 
	C571.759949,352.115112 555.296265,352.256775 538.836609,352.075256 
	C535.119446,352.034271 534.421753,349.642456 537.138611,346.473450 
z"/>
<path fill="#000000" opacity="1.000000" stroke="none" 
	d="
M547.425598,315.330475 
	C544.700439,315.810394 542.432922,316.310211 540.152771,316.743500 
	C537.691162,317.211273 536.253906,315.927277 535.838562,313.691406 
	C535.388672,311.269104 537.443542,311.154449 539.039795,310.831818 
	C544.788147,309.669830 550.609253,309.568665 556.450134,309.633392 
	C566.443726,309.744141 576.438721,309.737274 586.432251,309.853241 
	C588.457153,309.876740 590.848938,310.143524 590.866333,312.790344 
	C590.886047,315.788055 588.239075,315.271118 586.359619,315.279388 
	C573.532532,315.335999 560.705017,315.316223 547.425598,315.330475 
z"/>
<path fill="#000000" opacity="1.000000" stroke="none" 
	d="
M542.989136,382.793549 
	C557.698608,381.350311 571.987732,382.406464 586.252747,382.050690 
	C587.403320,382.022003 588.585022,382.129547 589.707031,382.378143 
	C590.887024,382.639618 591.927856,383.270782 591.778564,384.735779 
	C591.645386,386.043060 590.814880,386.873016 589.546143,387.055237 
	C588.239014,387.242889 586.903748,387.268982 585.579346,387.296967 
	C570.481995,387.615723 555.366821,386.665253 540.281921,387.935364 
	C539.458923,388.004669 538.616089,387.997162 537.795898,387.905457 
	C536.441162,387.753937 535.038940,387.484344 534.984619,385.728088 
	C534.932434,384.043396 536.227234,383.446045 537.574219,383.226624 
	C539.203979,382.961121 540.873596,382.940002 542.989136,382.793549 
z"/>
<path fill="#000000" opacity="1.000000" stroke="none" 
	d="
M574.995789,339.302368 
	C563.055115,339.647430 551.589478,338.560028 540.159607,339.933777 
	C538.259033,340.162201 535.734924,340.471069 535.624023,337.531403 
	C535.526306,334.943970 537.919678,335.015076 539.642639,334.879364 
	C555.715698,333.613403 571.824036,333.941223 587.923950,333.945435 
	C589.588562,333.945892 591.549438,334.064758 591.684998,336.285065 
	C591.836670,338.767914 589.887756,339.178009 587.948120,339.210602 
	C583.797607,339.280426 579.645935,339.275452 574.995789,339.302368 
z"/>
<path fill="#000000" opacity="1.000000" stroke="none" 
	d="
M539.402283,363.390442 
	C537.502380,363.248718 535.542725,363.492096 535.684082,361.328247 
	C535.867065,358.524261 538.304321,358.845734 540.244934,358.669220 
	C555.180542,357.310303 570.152588,358.127899 585.107666,357.929321 
	C586.270996,357.913849 587.441345,357.884674 588.597412,357.986603 
	C590.077698,358.117096 591.842407,358.150452 592.023987,360.120148 
	C592.230347,362.359009 590.434509,362.901642 588.736206,363.002380 
	C585.087097,363.218842 581.426086,363.296417 577.769409,363.312256 
	C565.129883,363.366943 552.490234,363.370789 539.402283,363.390442 
z"/>
<path fill="#000000" opacity="1.000000" stroke="none" 
	d="
M790.971863,596.202515 
	C794.898987,603.915894 793.420654,610.300476 787.373047,613.079407 
	C781.736023,615.669739 774.601807,613.901062 771.866272,609.235107 
	C769.165405,604.628357 770.528259,596.950195 774.600647,593.830383 
	C779.216919,590.293945 785.862366,591.139526 790.971863,596.202515 
z"/>
<path fill="#000000" opacity="1.000000" stroke="none" 
	d="
M255.008026,363.912537 
	C254.908737,360.181946 255.587204,356.330078 249.937637,357.889252 
	C247.939850,358.440613 246.855011,357.001038 246.796341,355.032227 
	C246.721359,352.515991 246.564972,349.411102 249.785477,349.092010 
	C253.377747,348.736115 254.672546,347.578522 254.385132,343.898407 
	C254.181915,341.296387 256.568359,340.883514 258.662964,340.918762 
	C261.017059,340.958313 263.480591,341.081665 264.132660,344.052917 
	C264.446716,345.484070 264.472778,346.978424 264.657837,348.711975 
	C267.928894,349.410339 272.055511,349.122833 271.976166,354.127716 
	C271.945343,356.071991 271.579956,358.296875 269.283905,358.127594 
	C263.162659,357.676270 264.375916,361.868103 264.246796,365.363708 
	C264.175995,367.280487 264.747040,369.542175 262.297546,370.509674 
	C260.528473,371.208466 258.636261,371.155853 257.012817,370.170990 
	C254.824341,368.843414 255.206436,366.458832 255.008026,363.912537 
z"/>
<path fill="#000000" opacity="1.000000" stroke="none" 
	d="
M341.291199,297.728455 
	C334.526581,298.773438 325.658447,292.669861 323.097931,285.069214 
	C321.586304,280.582214 323.617249,276.843658 327.110840,274.102325 
	C330.787079,271.217651 336.937195,271.253448 340.207245,273.806000 
	C340.980011,274.409180 341.623108,275.282196 342.487885,275.647430 
	C349.494263,278.606415 350.460236,280.532990 348.166626,287.791443 
	C346.944824,291.657898 345.079712,295.150726 341.291199,297.728455 
z"/>
</svg>